SplineFontDB: 3.0
FontName: Bevan-Italic
FullName: Bevan
FamilyName: Bevan
Weight: Normal
Copyright: Copyright (c) 2011 by . All rights reserved.
Version: 001.001
ItalicAngle: -8
UnderlinePosition: -205
UnderlineWidth: 102
Ascent: 1638
Descent: 410
sfntRevision: 0x00010000
LayerCount: 2
Layer: 0 0 "Back"  1
Layer: 1 0 "Fore"  0
XUID: [1021 14 500265001 5052300]
FSType: 0
OS2Version: 3
OS2_WeightWidthSlopeOnly: 0
OS2_UseTypoMetrics: 1
CreationTime: 1314018767
ModificationTime: 1327079940
PfmFamily: 17
TTFWeight: 400
TTFWidth: 5
LineGap: 0
VLineGap: 0
Panose: 2 0 0 0 0 0 0 0 0 0
OS2TypoAscent: 727
OS2TypoAOffset: 1
OS2TypoDescent: -515
OS2TypoDOffset: 1
OS2TypoLinegap: 0
OS2WinAscent: 94
OS2WinAOffset: 1
OS2WinDescent: -35
OS2WinDOffset: 1
HheadAscent: 94
HheadAOffset: 1
HheadDescent: 35
HheadDOffset: 1
OS2SubXSize: 1331
OS2SubYSize: 1228
OS2SubXOff: 0
OS2SubYOff: 153
OS2SupXSize: 1331
OS2SupYSize: 1228
OS2SupXOff: 0
OS2SupYOff: 716
OS2StrikeYSize: 102
OS2StrikeYPos: 643
OS2Vendor: 'newt'
OS2CodePages: 20000081.00000000
OS2UnicodeRanges: 00000007.00000000.00000000.00000000
Lookup: 1 0 0 "'smcp' Lowercase to Small Capitals in Latin lookup 0"  {"'smcp' Lowercase to Small Capitals in Latin lookup 0 subtable"  } ['smcp' ('latn' <'dflt' > ) ]
Lookup: 1 0 0 "'c2sc' Capitals to Small Capitals in Latin lookup 0"  {"'c2sc' Capitals to Small Capitals in Latin lookup 0 subtable"  } ['c2sc' ('latn' <'dflt' > ) ]
Lookup: 1 0 0 "alt endings"  {"alt endings-t"  } []
Lookup: 1 0 0 "swash ini"  {"alt inits-p" ("swash" ) "alt inits-u"  } []
Lookup: 4 0 0 "Numbers No"  {"'dlig' Discretionary Ligatures in Latin lookup 3-1"  } ['dlig' ('DFLT' <'dflt' > 'latn' <'dflt' > ) ]
Lookup: 6 0 0 "Contextual chains"  {"Contextual chains-p.init"  "Contextual chains-No"  "Contextual chains-u.init"  "Contextual chains-t.fin"  } ['dlig' ('DFLT' <'dflt' > 'latn' <'dflt' > ) ]

StartChar: macron
Encoding: 109 175 0
Width: 725
Flags: HW
HStem: 537 299<179 739>
VStem: 137 644
LayerCount: 2
Fore
SplineSet
781 836 m 1
 739 537 l 1
 137 537 l 1
 179 836 l 1
 781 836 l 1
EndSplineSet
EndChar

StartChar: exclam
Encoding: 1 33 2
Width: 629
Flags: HW
VStem: 79 531<98.3209 325.052>
LayerCount: 2
Fore
SplineSet
375 462 m 1
 222 462 79 353 79 171 c 0
 79 42 174 -33 306 -33 c 0
 464 -33 610 68 610 252 c 0
 610 384 510 463 377 463 c 1
 375 462 l 1
586 558 m 1
 194 556 l 1
 227 1331 l 1
 269 1630 l 1
 815 1630 l 1
 773 1331 l 1
 586 558 l 1
EndSplineSet
EndChar

StartChar: quotedbl
Encoding: 2 34 3
Width: 1066
Flags: HW
HStem: 945 679<266 524 811 1069>
LayerCount: 2
Fore
SplineSet
811 1624 m 1
 1258 1624 l 1
 1069 945 l 1
 790 945 l 1
 811 1624 l 1
266 1624 m 1
 712 1624 l 1
 524 945 l 1
 245 945 l 1
 266 1624 l 1
EndSplineSet
EndChar

StartChar: numbersign
Encoding: 3 35 4
Width: 1257
Flags: HW
HStem: 0 21G<97 395.063 542 840.993> 1603 20G<654.05 962 1099.05 1408>
DStem2: 97 0 388 0 0.333428 0.942776<97.0275 302.643 717.571 1002.17 1418.43 1718.18> 542 0 834 0 0.333428 0.942776<97.3609 302.643 717.571 1002.51 1418.77 1718.18>
LayerCount: 2
Fore
SplineSet
595 585 m 1
 746 585 l 1
 871 947 l 1
 723 947 l 1
 595 585 l 1
530 1246 m 1
 661 1623 l 1
 962 1623 l 1
 828 1246 l 1
 975 1246 l 1
 1106 1623 l 1
 1408 1623 l 1
 1274 1246 l 1
 1404 1246 l 1
 1303 947 l 1
 1168 947 l 1
 1040 585 l 1
 1174 585 l 1
 1074 286 l 1
 934 286 l 1
 834 0 l 1
 542 0 l 1
 641 286 l 1
 489 286 l 1
 388 0 l 1
 97 0 l 1
 196 286 l 1
 69 286 l 1
 170 585 l 1
 300 585 l 1
 425 947 l 1
 299 947 l 1
 400 1246 l 1
 530 1246 l 1
EndSplineSet
EndChar

StartChar: dollar
Encoding: 4 36 5
Width: 1300
Flags: HW
HStem: -8 8G<94 400.246 699.5 863.5> 1343 280<635.083 760 908 937.562> 1573 20G<1087.64 1361>
VStem: 212 381<894.11 1268.02> 540 110<-227 -117> 825 111<1692 1803> 899 407<338.641 705.557>
DStem2: 540 -227 650 -227 0.139173 0.990268<15.309 218.839 522.305 787.895 1331.91 1585.34 1868.18 2049.91>
LayerCount: 2
Fore
SplineSet
721 275 m 1
 824 283 899 321 899 410 c 0
 899 482 854 505 758 538 c 1
 721 275 l 1
760 1343 m 1
 658 1334 593 1293 593 1217 c 0
 593 1152 655 1118 725 1092 c 1
 760 1343 l 1
212 1035 m 0
 212 1389 474 1623 794 1623 c 0
 796 1623 798 1623 800 1623 c 1
 825 1803 l 1
 936 1803 l 1
 908 1609 l 1
 993 1584 1027 1531 1050 1483 c 1
 1096 1593 l 1
 1361 1593 l 1
 1294 1117 l 1
 1008 1117 l 1
 984 1258 945 1320 870 1339 c 1
 831 1060 l 1
 1097 987 1306 844 1306 566 c 0
 1306 539 1304 510 1300 480 c 0
 1260 194 1023 -29 704 -29 c 0
 695 -29 686 -28 678 -28 c 1
 650 -227 l 1
 540 -227 l 1
 570 -8 l 1
 511 16 472 59 427 122 c 1
 395 0 l 1
 94 0 l 1
 163 488 l 1
 463 488 l 1
 478 359 532 302 611 282 c 1
 652 574 l 1
 415 656 212 752 212 1035 c 0
EndSplineSet
EndChar

StartChar: percent
Encoding: 5 37 6
Width: 2454
Flags: HW
HStem: -27 260<1926.86 2067.38> 0 21G<802 1096.07> 472 260<538.862 679.376> 706 250<1978.33 2124.86> 1295 161<1020 1424>
VStem: 185 331<747.542 1113.87> 755 328<835.629 1193.37> 1573 331<248.133 612.003> 2143 328<336.162 691.482>
LayerCount: 2
Fore
SplineSet
1573 365 m 0
 1573 700 1788 956 2091 956 c 0
 2335 956 2471 788 2471 558 c 0
 2471 529 2468 499 2464 468 c 0
 2423 173 2239 -27 1953 -27 c 0
 1702 -27 1573 128 1573 365 c 0
2056 706 m 0
 1981 706 1931 619 1911 479 c 0
 1906 445 1904 415 1904 387 c 0
 1904 291 1932 233 1989 233 c 0
 2062 233 2115 329 2136 479 c 0
 2140 510 2143 538 2143 563 c 0
 2143 653 2115 706 2056 706 c 0
185 865 m 0
 185 1200 400 1456 703 1456 c 2
 1739 1456 l 1
 1857 1281 l 1
 1084 0 l 1
 802 0 l 1
 1424 1296 l 1
 1020 1295 l 1
 1061 1230 1083 1148 1083 1057 c 0
 1083 1028 1080 998 1076 968 c 0
 1035 673 851 472 565 472 c 0
 314 472 185 627 185 865 c 0
668 1206 m 0
 593 1206 543 1118 523 978 c 0
 518 944 516 914 516 886 c 0
 516 790 544 732 601 732 c 0
 674 732 727 828 748 978 c 0
 752 1009 755 1037 755 1062 c 0
 755 1152 727 1206 668 1206 c 0
EndSplineSet
LCarets2: 2 0 0 
EndChar

StartChar: ampersand
Encoding: 6 38 7
Width: 1600
Flags: HW
HStem: -30 360<344.683 674.206> 0 368<1340.46 1549> 1269 244<819.108 975.262>
VStem: 83 446<355.965 512.583> 987 242<1072.41 1257.28>
LayerCount: 2
Fore
SplineSet
904 1269 m 0
 857 1269 793 1227 782 1149 c 1
 881 1020 l 1
 881 1020 975 1080 985 1148 c 0
 986 1157 987 1166 987 1174 c 0
 987 1229 959 1269 904 1269 c 0
600 584 m 1
 571 564 536 532 529 484 c 1
 529 482 l 1
 528 474 527 466 527 458 c 0
 527 384 577 330 651 330 c 0
 689 330 727 343 763 370 c 1
 600 584 l 1
1225 1168 m 0
 1200 988 1127 931 1024 844 c 1
 1166 669 l 1
 1194 693 l 2
 1215 711 1279 766 1283 797 c 0
 1286 820 1280 832 1263 832 c 2
 1219 832 l 1
 1261 1127 l 1
 1710 1127 l 1
 1669 838 l 1
 1561 800 1542 776 1454 694 c 2
 1264 518 l 1
 1267 517 1324 368 1451 368 c 2
 1600 368 l 1
 1549 0 l 1
 1047 0 l 1
 1047 -3 l 1
 1021 30 976 91 911 180 c 1
 777 44 624 -30 453 -30 c 0
 236 -30 83 95 83 307 c 0
 83 329 85 351 88 375 c 0
 121 609 262 726 441 804 c 1
 393 872 368 950 368 1038 c 0
 368 1060 370 1083 373 1107 c 0
 411 1374 630 1513 879 1513 c 0
 1069 1513 1229 1409 1229 1219 c 0
 1229 1203 1227 1186 1225 1168 c 0
EndSplineSet
EndChar

StartChar: quoteright
Encoding: 345 8217 8
Width: 601
Flags: HW
HStem: 809 223<202 347.421> 1601 20G<284.213 761>
VStem: 172 589
LayerCount: 2
Fore
SplineSet
204 1034 m 1
 202 1032 l 1
 203 1032 l 1
 204 1034 l 1
203 1032 m 1
 350 1032 389 1095 411 1255 c 1
 236 1255 l 1
 287 1621 l 1
 761 1621 l 1
 761 1518 756 1426 745 1345 c 0
 693 976 514 809 172 809 c 1
 203 1032 l 1
EndSplineSet
EndChar

StartChar: parenleft
Encoding: 8 40 9
Width: 849
Flags: HW
HStem: -20 21G<591.504 812.779>
VStem: 120 465<447.455 969.508>
LayerCount: 2
Fore
SplineSet
810 -20 m 1
 373 -20 120 228 120 649 c 0
 120 702 124 758 132 816 c 0
 213 1391 511 1653 1049 1653 c 1
 1003 1321 l 1
 1001 1319 l 1
 735 1313 639 1107 598 817 c 0
 590 760 585 706 585 654 c 0
 585 457 653 311 856 311 c 1
 810 -20 l 1
EndSplineSet
EndChar

StartChar: parenright
Encoding: 9 41 10
Width: 849
Flags: HW
HStem: -20 21G<37.7795 310.645> 1321 331<265 371.866>
VStem: 495 468<666.768 1199.52>
LayerCount: 2
Fore
SplineSet
481 817 m 0
 490 880 495 938 495 992 c 0
 495 1187 427 1316 220 1321 c 1
 267 1652 l 1
 733 1651 963 1454 963 1027 c 0
 963 381 586 -20 35 -20 c 1
 81 311 l 1
 337 311 442 543 481 817 c 0
267 1652 m 1
 267 1653 l 1
 265 1652 l 1
 267 1652 l 1
EndSplineSet
EndChar

StartChar: asterisk
Encoding: 10 42 11
Width: 1155
Flags: HW
HStem: 1373 20G<323 427 1107.5 1224.97>
VStem: 483 308<320.662 584.354> 621 308<1291.32 1555.34>
LayerCount: 2
Fore
SplineSet
106 624 m 0
 106 841 452 891 606 944 c 1
 499 988 184 1053 184 1214 c 0
 184 1258 199 1288 229 1328 c 1
 219 1320 l 1
 253 1367 299 1393 347 1393 c 0
 507 1393 587 1177 653 1078 c 1
 643 1167 621 1263 621 1366 c 0
 621 1395 623 1424 627 1454 c 0
 641 1555 713 1634 802 1634 c 0
 881 1634 929 1572 929 1487 c 0
 929 1476 929 1465 927 1454 c 0
 907 1313 844 1192 796 1080 c 1
 894 1180 1028 1392 1187 1392 c 0
 1263 1392 1313 1331 1313 1258 c 0
 1313 1250 1312 1242 1311 1234 c 0
 1283 1038 966 995 813 938 c 1
 923 893 1240 833 1240 670 c 0
 1240 572 1143 480 1064 480 c 0
 904 480 824 698 756 796 c 1
 770 712 791 615 791 514 c 0
 791 484 788 453 784 422 c 0
 770 321 698 242 609 242 c 0
 530 242 483 305 483 389 c 0
 483 400 483 411 485 422 c 0
 504 559 571 690 618 800 c 1
 530 694 383 490 231 490 c 0
 155 490 106 551 106 624 c 0
EndSplineSet
EndChar

StartChar: plus
Encoding: 11 43 12
Width: 758
Flags: HW
HStem: 517 245<118 337 608 820> 1031 20G<409.163 649>
VStem: 297 237<238 475> 412 237<814 1051>
DStem2: 297 238 534 238 0.139173 0.990268<32.984 281.852 562.183 821.093>
LayerCount: 2
Fore
SplineSet
118 762 m 1
 371 762 l 1
 412 1051 l 1
 649 1051 l 1
 608 762 l 1
 855 762 l 1
 820 517 l 1
 574 517 l 1
 534 238 l 1
 297 238 l 1
 337 517 l 1
 84 517 l 1
 118 762 l 1
EndSplineSet
EndChar

StartChar: comma
Encoding: 12 44 13
Width: 553
Flags: HW
HStem: -448 224<1 146.421>
VStem: -29 589
LayerCount: 2
Fore
SplineSet
2 -223 m 1
 1 -224 l 1
 2 -224 l 1
 2 -223 l 1
2 -224 m 1
 149 -224 188 -161 210 -1 c 1
 34 -1 l 1
 86 365 l 1
 560 365 l 1
 560 262 556 170 544 88 c 0
 492 -281 313 -448 -29 -448 c 1
 2 -224 l 1
EndSplineSet
EndChar

StartChar: hyphen
Encoding: 13 45 14
Width: 704
Flags: HW
HStem: 537 299<150 747>
VStem: 108 681
LayerCount: 2
Fore
SplineSet
789 836 m 1
 747 537 l 1
 108 537 l 1
 150 836 l 1
 789 836 l 1
EndSplineSet
EndChar

StartChar: period
Encoding: 14 46 15
Width: 572
Flags: HW
HStem: -28 496<186.733 277 279 442.303>
VStem: 52 531<108.5 336.382>
LayerCount: 2
Fore
SplineSet
583 264 m 0
 583 80 435 -27 279 -27 c 1
 277 -28 l 1
 146 -28 52 51 52 181 c 0
 52 362 193 468 348 468 c 0
 485 468 583 395 583 264 c 0
EndSplineSet
EndChar

StartChar: slash
Encoding: 15 47 16
Width: 829
Flags: HW
HStem: 0 21G<17 354.564> 1603 20G<693.559 1041>
DStem2: 17 0 346 0 0.393646 0.919262<129.509 1761.61>
LayerCount: 2
Fore
SplineSet
17 0 m 1
 702 1623 l 1
 1041 1623 l 1
 346 0 l 1
 17 0 l 1
EndSplineSet
EndChar

StartChar: zero
Encoding: 16 48 17
Width: 1205
Flags: HW
HStem: -26 374<586.59 724.707> 1104 371<673.88 826.969>
VStem: 120 438<367.057 860.308> 849 448<596.276 1082.9>
LayerCount: 2
Fore
SplineSet
650 348 m 1
 650 343 l 1
 792 343 808 601 832 768 c 0
 840 827 849 892 849 949 c 0
 849 1036 829 1104 755 1104 c 0
 633 1104 608 915 587 764 c 0
 576 684 558 584 558 502 c 0
 558 415 578 348 650 348 c 1
120 556 m 0
 120 1074 389 1475 811 1475 c 0
 1125 1475 1297 1248 1297 916 c 0
 1297 868 1293 816 1286 764 c 0
 1221 301 994 -26 602 -26 c 0
 270 -26 120 204 120 556 c 0
EndSplineSet
EndChar

StartChar: one
Encoding: 17 49 18
Width: 764
Flags: HW
HStem: 0 324<93 223 688 735> 1355 20G<756.473 830.241>
LayerCount: 2
Fore
SplineSet
48 0 m 1
 93 325 l 1
 223 324 l 1
 311 951 l 1
 158 950 l 1
 194 1208 l 1
 833 1375 l 1
 688 324 l 1
 781 324 l 1
 735 0 l 1
 48 0 l 1
EndSplineSet
EndChar

StartChar: two
Encoding: 18 50 19
Width: 1158
Flags: HW
HStem: 0 317<661 976.247> 1127 349<501.168 851.099>
VStem: 161 299<805.15 1081.62> 1031 161<371.306 465>
LayerCount: 2
Fore
SplineSet
161 953 m 0
 161 1305 458 1476 731 1476 c 0
 971 1476 1198 1343 1198 1085 c 0
 1198 1064 1196 1042 1193 1019 c 0
 1145 680 851 473 661 317 c 1
 810 317 l 1
 920 321 1014 343 1031 465 c 1
 1192 465 l 1
 1131 0 l 1
 68 0 l 1
 111 303 l 1
 340 407 659 602 709 955 c 0
 710 965 711 975 711 985 c 0
 711 1059 672 1127 605 1127 c 0
 524 1127 460 1064 460 975 c 0
 460 917 494 860 516 834 c 1
 281 660 l 1
 207 727 161 827 161 953 c 0
EndSplineSet
EndChar

StartChar: three
Encoding: 19 51 20
Width: 1115
Flags: HW
HStem: -19 324<244.336 605.093> 1041 311<360 691>
VStem: 658 500<361.68 559.163>
LayerCount: 2
Fore
SplineSet
476 305 m 0
 561 305 658 350 658 471 c 0
 658 562 579 592 494 592 c 0
 451 592 326 572 326 572 c 1
 307 572 l 1
 330 740 l 1
 689 1031 l 1
 691 1041 l 1
 360 1041 l 1
 339 898 l 1
 158 899 l 1
 222 1352 l 1
 1216 1352 l 1
 1179 1088 l 1
 851 831 l 1
 1066 831 1158 693 1158 534 c 0
 1158 514 1157 494 1154 473 c 0
 1106 130 817 -19 482 -19 c 0
 193 -19 54 78 54 78 c 1
 103 424 l 1
 220 345 343 305 476 305 c 0
EndSplineSet
EndChar

StartChar: four
Encoding: 20 52 21
AltUni2: 002074.ffffffff.0
Width: 1178
Flags: HW
HStem: 0 288<438 556 980 1053> 420 257<435 575 1036 1211>
LayerCount: 2
Fore
SplineSet
611 677 m 1
 644 911 l 1
 435 678 l 1
 611 677 l 1
980 288 m 1
 1094 288 l 1
 1053 0 l 1
 398 0 l 1
 438 288 l 1
 556 288 l 1
 575 420 l 1
 79 419 l 1
 117 688 l 1
 721 1342 l 1
 1129 1341 l 1
 1036 675 l 1
 1247 677 l 1
 1211 420 l 1
 999 420 l 1
 980 288 l 1
EndSplineSet
EndChar

StartChar: five
Encoding: 21 53 22
Width: 981
Flags: HW
HStem: -20 300<126.235 423.21> 617 741<224 444.6> 1061 297<466 1034>
VStem: 508 523<354.566 682.273>
LayerCount: 2
Fore
SplineSet
271 280 m 0
 378 280 508 335 508 468 c 0
 508 572 400 617 295 617 c 0
 238 617 181 596 122 553 c 1
 112 564 l 1
 224 1358 l 1
 1075 1358 l 1
 1034 1061 l 1
 466 1061 l 1
 446 922 l 1
 470 926 l 2
 512 934 591 939 645 939 c 0
 862 939 1031 791 1031 573 c 0
 1031 553 1029 532 1026 511 c 0
 975 148 707 -20 370 -20 c 0
 255 -20 93 13 44 73 c 1
 45 75 l 1
 83 347 l 1
 114 330 l 2
 147 313 224 280 271 280 c 0
EndSplineSet
EndChar

StartChar: six
Encoding: 22 54 23
Width: 1210
Flags: HW
HStem: -19 328<586.275 716.806> 1437 20G<692.5 1281>
VStem: 94 474<326.86 677.505> 785 463<386.874 738.496>
LayerCount: 2
Back
SplineSet
1262 542 m 4
 1262 254 1011 -19 655 -19 c 4
 305 -19 28 186 28 534 c 4
 28 972.103 399.883 1236.1 617 1458 c 5
 622 1457 l 5
 1158 1457 l 5
 1158 1457 834.473 1083.95 802 993 c 5
 1114 978 1262 767 1262 542 c 4
658 746 m 4
 549 746 540 645 540 531 c 4
 540 438 551 309 644 309 c 4
 757 309 760 472 760 526 c 4
 760 606 738 746 658 746 c 4
EndSplineSet
Fore
SplineSet
716 746 m 0
 615 746 592 645 576 531 c 0
 572 501 568 467 568 435 c 0
 568 368 584 309 642 309 c 0
 747 309 772 472 780 526 c 0
 783 548 785 573 785 600 c 0
 785 671 770 746 716 746 c 0
1241 486 m 0
 1205 226 936 -19 606 -19 c 0
 311 -19 94 151 94 443 c 0
 94 472 97 502 101 534 c 0
 165 990 602 1287 783 1457 c 1
 1281 1457 l 1
 1281 1457 938 1124 829 993 c 1
 1134 993 1248 799 1248 580 c 0
 1248 549 1245 518 1241 486 c 0
EndSplineSet
EndChar

StartChar: seven
Encoding: 23 55 24
Width: 1113
Flags: HW
HStem: 0 21G<108 614.977> 1020 317<387.133 721>
VStem: 108 495<0 495> 153 202<878 980.816>
DStem2: 108 0 603 0 0.513786 0.857918<254.324 1190.03>
LayerCount: 2
Fore
SplineSet
497 1020 m 2
 404 1020 370 983 355 877 c 1
 153 878 l 1
 217 1337 l 1
 1280 1337 l 1
 1242 1067 l 1
 603 0 l 1
 108 0 l 1
 721 1020 l 1
 497 1020 l 2
EndSplineSet
EndChar

StartChar: eight
Encoding: 24 56 25
Width: 1171
Flags: HW
HStem: -18 256<572.745 677.385> 1121 256<676.118 802.323>
VStem: 238 406<828.174 1092.97> 722 480<283.061 571.474> 807 412<883.871 1115.09>
LayerCount: 2
Fore
SplineSet
747 1121 m 0
 667 1121 644 1017 644 924 c 0
 644 857 667 824 707 824 c 0
 755 824 787 876 802 984 c 0
 805 1003 807 1022 807 1039 c 0
 807 1086 793 1121 747 1121 c 0
568 404 m 0
 564 378 562 354 562 334 c 0
 562 270 582 238 619 238 c 0
 668 238 700 293 716 404 c 0
 720 433 722 457 722 479 c 0
 722 544 704 576 668 576 c 0
 617 576 584 519 568 404 c 0
1219 1070 m 0
 1219 894 1121 776 1004 730 c 1
 1135 672 1202 576 1202 441 c 0
 1202 420 1200 398 1197 375 c 0
 1154 72 867 -18 585 -18 c 0
 323 -18 75 58 75 311 c 0
 75 331 77 351 80 373 c 0
 104 543 201 661 372 728 c 1
 291 763 238 841 238 953 c 0
 238 971 239 989 242 1008 c 0
 281 1283 531 1377 781 1377 c 0
 1009 1377 1219 1298 1219 1070 c 0
EndSplineSet
EndChar

StartChar: nine
Encoding: 25 57 26
Width: 1215
Flags: HW
HStem: -2 21G<194 707.557> 1149 327<703.123 974.682>
VStem: 150 483<725.543 1058.94> 841 484<781.718 1141.18>
LayerCount: 2
Back
SplineSet
1262 971 m 4
 1262 1231 1010 1476 655 1476 c 4
 305 1476 28 1271 28 923 c 4
 28 467 453 170 622 0 c 5
 1158 0 l 5
 1158 0 840 333 742 464 c 5
 1117 464 1261 717 1262 971 c 4
658 711 m 4
 549 711 540 812 540 926 c 4
 540 1019 551 1148 644 1148 c 4
 757 1148 760 985 760 931 c 4
 760 851 738 711 658 711 c 4
EndSplineSet
Fore
SplineSet
834 927 m 0
 838 955 841 988 841 1021 c 0
 841 1087 827 1149 776 1149 c 0
 707 1149 662 1072 640 919 c 0
 635 887 633 859 633 835 c 0
 633 752 659 710 712 710 c 0
 772 710 814 782 834 927 c 0
1319 920 m 0
 1261 504 694 -2 694 -2 c 1
 194 0 l 1
 292 112 470 339 561 470 c 1
 333 470 150 626 150 856 c 0
 150 877 152 898 155 920 c 0
 204 1270 496 1476 830 1476 c 0
 1119 1476 1325 1298 1325 1011 c 0
 1325 982 1323 952 1319 920 c 0
EndSplineSet
EndChar

StartChar: colon
Encoding: 26 58 27
Width: 583
Flags: HW
HStem: -20 21G<217.691 285>
VStem: 58 531<116.5 344.382> 146 531<731.5 959.383>
LayerCount: 2
Fore
SplineSet
589 272 m 0
 589 88 441 -19 285 -19 c 1
 283 -20 l 1
 152 -20 58 59 58 189 c 0
 58 370 199 476 354 476 c 0
 491 476 589 403 589 272 c 0
677 887 m 0
 677 703 529 596 373 596 c 1
 371 595 l 1
 240 595 146 674 146 804 c 0
 146 985 287 1091 442 1091 c 0
 579 1091 677 1018 677 887 c 0
EndSplineSet
EndChar

StartChar: semicolon
Encoding: 27 59 28
Width: 581
Flags: HW
HStem: -450 227<9 153.421>
VStem: 146 531<728.5 956.19>
LayerCount: 2
Fore
SplineSet
677 883 m 0
 677 699 528 593 373 593 c 1
 371 592 l 1
 240 592 146 671 146 801 c 0
 146 982 286 1088 441 1088 c 0
 578 1088 677 1015 677 883 c 0
217 -3 m 1
 195 -161 156 -223 9 -223 c 1
 -23 -448 l 1
 -22 -450 l 1
 320 -450 499 -284 551 86 c 0
 563 168 567 363 567 363 c 1
 93 363 l 1
 42 -3 l 1
 217 -3 l 1
EndSplineSet
EndChar

StartChar: less
Encoding: 28 60 29
AltUni2: 002039.ffffffff.0
Width: 711
Flags: HW
HStem: -20 21G<656.503 678.796>
LayerCount: 2
Fore
SplineSet
147 946 m 1
 895 1542 l 1
 830 1077 l 1
 476 761 l 1
 741 445 l 1
 676 -20 l 1
 95 576 l 1
 147 946 l 1
EndSplineSet
EndChar

StartChar: equal
Encoding: 29 61 30
Width: 667
Flags: HW
HStem: 169 223<88 658> 538 223<140 710>
LayerCount: 2
Fore
SplineSet
741 761 m 1
 710 538 l 1
 108 538 l 1
 140 761 l 1
 741 761 l 1
690 392 m 1
 658 169 l 1
 57 169 l 1
 88 392 l 1
 690 392 l 1
EndSplineSet
EndChar

StartChar: greater
Encoding: 30 62 31
AltUni2: 00203a.ffffffff.0
Width: 711
Flags: HW
HStem: -20 21G<32.7957 55.1342>
LayerCount: 2
Fore
SplineSet
779 576 m 1
 30 -20 l 1
 95 445 l 1
 449 761 l 1
 184 1077 l 1
 249 1542 l 1
 831 946 l 1
 779 576 l 1
EndSplineSet
EndChar

StartChar: question
Encoding: 31 63 32
Width: 1169
Flags: HW
HStem: -26 21G<399.691 467> 1381 356<688.634 972.161>
VStem: 240 532<110.5 338.19> 851 482<1155.74 1376.1>
LayerCount: 2
Fore
SplineSet
772 265 m 0
 772 81 622 -25 467 -25 c 1
 465 -26 l 1
 334 -26 240 53 240 183 c 0
 240 364 381 470 536 470 c 0
 673 470 772 397 772 265 c 0
1328 1273 m 0
 1281 936 976 813 728 726 c 1
 702 539 l 1
 379 539 l 1
 430 891 l 1
 430 893 l 1
 692 1012 831 1131 848 1250 c 0
 850 1262 851 1275 851 1287 c 0
 851 1339 831 1381 778 1381 c 0
 704 1381 656 1327 634 1219 c 1
 195 1219 l 1
 255 1527 526 1737 834 1737 c 0
 1102 1737 1333 1600 1333 1340 c 0
 1333 1318 1331 1296 1328 1273 c 0
EndSplineSet
EndChar

StartChar: at
Encoding: 32 64 33
Width: 1688
Flags: HW
HStem: -201 235<667.105 1072.66> 202 193<1309 1400.82> 202 168<762.636 979.034> 813 151<942.227 1049.66> 1115 253<778.754 1276.58>
VStem: 97 296<270.103 709.692> 566 317<372.095 649.066> 1056 282<581.291 808.383> 1501 267<533.014 926.424>
LayerCount: 2
Fore
SplineSet
999 813 m 0
 923 813 904 665 892 579 c 1
 891 577 l 1
 887 547 883 511 883 477 c 0
 883 420 893 370 929 370 c 0
 963 370 1008 375 1012 405 c 2
 1049 667 l 2
 1053 695 1056 720 1056 741 c 0
 1056 785 1043 813 999 813 c 0
566 500 m 0
 566 805 753 964 1018 964 c 0
 1220 964 1338 876 1338 683 c 0
 1338 658 1336 631 1332 603 c 2
 1304 398 l 1
 1309 395 l 1
 1436 395 1475 531 1495 675 c 0
 1499 702 1501 727 1501 751 c 0
 1501 1001 1304 1115 1026 1115 c 0
 690 1115 449 916 400 565 c 0
 395 532 393 502 393 472 c 0
 393 179 612 34 920 34 c 0
 974 34 1025 41 1075 56 c 1
 1091 -172 l 1
 1020 -191 952 -201 887 -201 c 0
 440 -201 97 11 97 438 c 0
 97 478 100 520 106 563 c 0
 178 1075 575 1368 1060 1368 c 0
 1460 1368 1768 1171 1768 787 c 0
 1768 378 1510 202 1156 202 c 2
 1016 202 l 1
 994 292 l 1
 950 236 864 189 782 189 c 0
 636 189 566 333 566 500 c 0
EndSplineSet
EndChar

StartChar: A
Encoding: 33 65 34
Width: 1570
Flags: HW
HStem: 0 359<80 226 577 660 826 939.375 1478 1545> 523 240<702 915> 1573 20G<424.167 1353.06>
DStem2: 574 1240 702 763 0.367383 0.93007<-396.618 0>
LayerCount: 2
Fore
SplineSet
875 1251 m 1
 702 763 l 1
 915 763 l 1
 875 1251 l 1
926 523 m 1
 625 523 l 1
 577 359 l 1
 710 359 l 1
 660 0 l 1
 29 0 l 1
 80 359 l 1
 226 359 l 1
 574 1240 l 1
 377 1240 l 1
 427 1593 l 1
 1351 1593 l 1
 1478 360 l 1
 1596 360 l 1
 1545 0 l 1
 776 0 l 1
 826 359 l 1
 938 359 l 2
 939 359 939 360 939 362 c 2
 939 370 l 2
 939 407 926 523 926 523 c 1
EndSplineSet
Substitution2: "'c2sc' Capitals to Small Capitals in Latin lookup 0 subtable" a.sc
EndChar

StartChar: B
Encoding: 34 66 35
Width: 1481
Flags: HW
HStem: 0 359<83 244 734 938.994> 690 261<817 984.149> 1240 353<263 368 858 1062.24>
VStem: 1014 504<428.431 659.475> 1086 474<1053.12 1399.13>
LayerCount: 2
Fore
SplineSet
1084 1101 m 0
 1085 1110 1086 1118 1086 1126 c 0
 1086 1196 1041 1240 975 1240 c 2
 858 1240 l 1
 817 951 l 1
 856 951 l 2
 984 951 1067 977 1084 1101 c 0
755 359 m 2
 887 359 1014 379 1014 563 c 0
 1014 654 953 690 850 690 c 0
 843 690 820 690 781 689 c 1
 734 359 l 1
 755 359 l 2
1560 1259 m 0
 1560 1038 1433 897 1279 840 c 1
 1426 792 1518 684 1518 504 c 0
 1518 124 1230 0 909 0 c 2
 33 0 l 1
 83 359 l 1
 244 359 l 1
 368 1240 l 1
 214 1240 l 1
 263 1593 l 1
 1020 1593 l 2
 1324 1593 1560 1540 1560 1259 c 0
EndSplineSet
Substitution2: "'c2sc' Capitals to Small Capitals in Latin lookup 0 subtable" b.sc
EndChar

StartChar: C
Encoding: 35 67 36
Width: 1350
Flags: HW
HStem: -27 420<579.209 1043.74> 1260 363<668.635 1118.36> 1574 20G<1259.89 1540>
VStem: 125 569<520.141 968.369>
LayerCount: 2
Fore
SplineSet
998 1260 m 0
 825 1260 694 984 694 736 c 0
 694 552 766 393 947 393 c 0
 1120 393 1289 488 1368 563 c 1
 1307 133 l 1
 1121 26 929 -27 757 -27 c 0
 401 -27 125 198 125 638 c 0
 125 691 129 746 137 805 c 0
 200 1254 453 1623 888 1623 c 0
 1039 1623 1157 1595 1223 1493 c 1
 1269 1594 l 1
 1540 1594 l 1
 1452 962 l 1
 1174 962 l 1
 1179 985 1181 1015 1181 1039 c 0
 1181 1165 1125 1260 998 1260 c 0
EndSplineSet
Substitution2: "'c2sc' Capitals to Small Capitals in Latin lookup 0 subtable" c.sc
EndChar

StartChar: D
Encoding: 36 68 37
Width: 1592
Flags: HW
HStem: 0 359<89 240 749 918.776> 1241 352<257 364 873 1049.47>
VStem: 1141 553<652.501 1147.67>
DStem2: 189.546 0 698.546 0 0.139173 0.990268<433.367 1253.2>
LayerCount: 2
Fore
SplineSet
1129 797 m 0
 1137 851 1141 905 1141 954 c 0
 1141 1118 1089 1241 917 1241 c 2
 873 1241 l 1
 749 359 l 1
 782 359 l 2
 1004 359 1097 568 1129 797 c 0
1681 796 m 0
 1618 350 1278 0 784 0 c 2
 38 0 l 1
 89 359 l 1
 240 359 l 1
 364 1241 l 1
 207 1241 l 1
 257 1593 l 1
 1029 1593 l 2
 1469 1593 1694 1388 1694 982 c 0
 1694 924 1690 862 1681 796 c 0
EndSplineSet
Substitution2: "'c2sc' Capitals to Small Capitals in Latin lookup 0 subtable" d.sc
EndChar

StartChar: E
Encoding: 37 69 38
Width: 1262
Flags: HW
HStem: 0 359<83 230 744 947> 716 262<831 985> 1240 353<257 354 868 1066>
LayerCount: 2
Fore
SplineSet
1098 959 m 1
 1066 1240 l 1
 868 1240 l 1
 831 978 l 1
 1022 978 l 1
 985 716 l 1
 795 716 l 1
 744 359 l 1
 947 359 l 1
 1063 677 l 1
 1317 677 l 1
 1222 0 l 1
 33 0 l 1
 83 359 l 1
 230 359 l 1
 354 1240 l 1
 207 1240 l 1
 257 1593 l 1
 1436 1593 l 1
 1347 959 l 1
 1098 959 l 1
EndSplineSet
Substitution2: "'c2sc' Capitals to Small Capitals in Latin lookup 0 subtable" e.sc
EndChar

StartChar: F
Encoding: 38 70 39
Width: 1243
Flags: HW
HStem: 0 359<83 230 756 848> 683 256<837 989> 1240 353<257 354 879 1069>
LayerCount: 2
Fore
SplineSet
989 683 m 1
 801 683 l 1
 756 359 l 1
 899 359 l 1
 848 0 l 1
 33 0 l 1
 83 359 l 1
 230 359 l 1
 354 1240 l 1
 207 1240 l 1
 257 1593 l 1
 1442 1593 l 1
 1352 949 l 1
 1088 949 l 1
 1069 1240 l 1
 879 1240 l 1
 837 939 l 1
 1025 939 l 1
 989 683 l 1
EndSplineSet
Substitution2: "'c2sc' Capitals to Small Capitals in Latin lookup 0 subtable" f.sc
EndChar

StartChar: G
Encoding: 39 71 40
Width: 1516
Flags: HW
HStem: -29 407<808.682 1118.51> 1260 362<922.061 1179.29> 1573 20G<1311.3 1641>
VStem: 127 563<508.358 942.35>
LayerCount: 2
Fore
SplineSet
697 801 m 0
 693 770 690 740 690 710 c 0
 690 533 768 378 937 378 c 0
 1029 378 1119 416 1119 416 c 1
 1139 558 l 1
 983 558 l 1
 1025 862 l 1
 1607 862 l 1
 1505 140 l 1
 1299 30 1065 -29 849 -29 c 0
 459 -29 127 167 127 633 c 0
 127 683 131 736 139 792 c 0
 201 1233 500 1622 1001 1622 c 0
 1121 1622 1213 1581 1273 1485 c 1
 1320 1593 l 1
 1641 1593 l 1
 1556 993 l 1
 1270 993 l 1
 1256 1177 1167 1260 1063 1260 c 0
 880 1260 737 1089 697 801 c 0
EndSplineSet
Substitution2: "'c2sc' Capitals to Small Capitals in Latin lookup 0 subtable" g.sc
EndChar

StartChar: H
Encoding: 40 72 41
Width: 1645
Flags: HW
HStem: 0 359<83 220 747 786 919 997 1527 1613> 635 341<834 1036> 1240 353<257 344 871 959 1089 1121 1650 1782>
LayerCount: 2
Fore
SplineSet
83 359 m 1
 220 359 l 1
 344 1240 l 1
 207 1240 l 1
 257 1593 l 1
 1009 1593 l 1
 959 1240 l 1
 871 1240 l 1
 834 976 l 1
 1084 976 l 1
 1121 1240 l 1
 1039 1240 l 1
 1089 1593 l 1
 1831 1593 l 1
 1782 1240 l 1
 1650 1240 l 1
 1527 359 l 1
 1663 359 l 1
 1613 0 l 1
 869 0 l 1
 919 359 l 1
 997 359 l 1
 1036 635 l 1
 786 635 l 1
 747 359 l 1
 837 359 l 1
 786 0 l 1
 33 0 l 1
 83 359 l 1
EndSplineSet
Substitution2: "'c2sc' Capitals to Small Capitals in Latin lookup 0 subtable" h.sc
EndChar

StartChar: I
Encoding: 41 73 42
Width: 872
Flags: HW
HStem: 0 359<83 220 754 834> 1240 353<260 344 878 1014>
DStem2: 169.546 0 703.546 0 0.139173 0.990268<436.847 1252.21>
LayerCount: 2
Fore
SplineSet
1014 1240 m 1
 878 1240 l 1
 754 359 l 1
 885 359 l 1
 834 0 l 1
 33 0 l 1
 83 359 l 1
 220 359 l 1
 344 1240 l 1
 211 1240 l 1
 260 1593 l 1
 1064 1593 l 1
 1014 1240 l 1
EndSplineSet
Substitution2: "'c2sc' Capitals to Small Capitals in Latin lookup 0 subtable" i.sc
EndChar

StartChar: J
Encoding: 42 74 43
Width: 1202
Flags: HW
HStem: -30 395<401.089 717.5> -13 21G<23 284.217> 1240 353<606 699 1213 1350>
DStem2: 520.394 -30 1035.03 -30 0.139173 0.990268<416.544 1282.5>
LayerCount: 2
Fore
SplineSet
473 365 m 0
 561 365 589 458 605 572 c 2
 699 1240 l 1
 556 1240 l 1
 606 1593 l 1
 1400 1593 l 1
 1350 1240 l 1
 1213 1240 l 1
 1106 475 l 2
 1063 167 861 -30 574 -30 c 0
 450 -30 366 6 321 79 c 1
 274 -13 l 1
 23 -13 l 1
 114 633 l 1
 396 633 l 1
 390 590 384 543 384 501 c 0
 384 426 403 365 473 365 c 0
EndSplineSet
Substitution2: "'c2sc' Capitals to Small Capitals in Latin lookup 0 subtable" j.sc
EndChar

StartChar: K
Encoding: 43 75 44
Width: 1606
Flags: HW
HStem: 0 359<83 220 729 803 1489.35 1575> 1240 352<257 344 852 971 1572 1700>
VStem: 1008 478<361.688 615.482>
LayerCount: 2
Fore
SplineSet
982 307 m 2
 1006 482 l 2
 1007 489 1008 496 1008 503 c 0
 1008 561 977 630 925 630 c 2
 767 630 l 1
 729 359 l 1
 847 359 l 1
 803 0 l 1
 33 0 l 1
 83 359 l 1
 220 359 l 1
 344 1240 l 1
 207 1240 l 1
 257 1592 l 1
 1020 1592 l 1
 971 1240 l 1
 852 1240 l 1
 801 877 l 1
 1119 1240 l 1
 1169 1592 l 1
 1749 1592 l 1
 1700 1240 l 1
 1572 1240 l 1
 1221 854 l 1
 1219 840 l 1
 1385 840 1510 797 1510 641 c 0
 1510 626 1509 610 1506 592 c 2
 1486 451 l 2
 1485 446 1486 441 1486 436 c 0
 1486 400 1501 359 1536 359 c 2
 1620 359 l 1
 1575 0 l 1
 1251 0 l 2
 1068 0 977 79 977 237 c 0
 977 259 978 282 982 307 c 2
EndSplineSet
Substitution2: "'c2sc' Capitals to Small Capitals in Latin lookup 0 subtable" k.sc
EndChar

StartChar: L
Encoding: 44 76 45
Width: 1245
Flags: HW
HStem: 0 359<88 220 747 925> 1240 352<257 344 871 1014>
DStem2: 169.546 0 696.546 0 0.139173 0.990268<435.872 1252.21>
LayerCount: 2
Fore
SplineSet
747 359 m 1
 925 359 l 1
 1055 709 l 1
 1321 709 l 1
 1221 0 l 1
 37 0 l 1
 88 359 l 1
 220 359 l 1
 344 1240 l 1
 207 1240 l 1
 257 1592 l 1
 1064 1592 l 1
 1014 1240 l 1
 871 1240 l 1
 747 359 l 1
EndSplineSet
Substitution2: "'c2sc' Capitals to Small Capitals in Latin lookup 0 subtable" l.sc
EndChar

StartChar: M
Encoding: 45 77 46
Width: 2122
Flags: HW
HStem: 0 359<87 240 542 642 1394 1508 1997 2090> 1240 353<257 363 2121 2258>
DStem2: 189.405 0 491.405 0 0.139173 0.990268<405.568 1020.47>
LayerCount: 2
Fore
SplineSet
692 359 m 1
 642 0 l 1
 36 0 l 1
 87 359 l 1
 192 359 240 360 240 360 c 1
 363 1240 l 1
 207 1240 l 1
 257 1593 l 1
 1033 1593 l 1
 1214 826 l 1
 1578 1593 l 1
 2307 1593 l 1
 2258 1240 l 1
 2121 1240 l 1
 1997 359 l 1
 2140 359 l 1
 2090 0 l 1
 1343 0 l 1
 1394 359 l 1
 1508 359 l 1
 1591 947 l 1
 1139 0 l 1
 878 0 l 1
 627 969 l 1
 542 360 l 1
 542 360 603 359 692 359 c 1
EndSplineSet
Substitution2: "'c2sc' Capitals to Small Capitals in Latin lookup 0 subtable" m.sc
EndChar

StartChar: N
Encoding: 46 78 47
Width: 1658
Flags: HW
HStem: 0 359<83 235 529 625> 1240 352<262 359 1260 1357 1656 1803>
DStem2: 184.405 0 478.405 0 0.139173 0.990268<404.455 927.573> 1183.07 0 1481.73 0 0.139173 0.990268<653.358 1252.14>
LayerCount: 2
Fore
SplineSet
1803 1240 m 1
 1656 1240 l 1
 1482 0 l 1
 918 0 l 1
 602 878 l 1
 529 360 l 1
 529 360 572 360 676 359 c 1
 625 0 l 1
 33 0 l 1
 83 359 l 1
 178 359 235 360 235 360 c 1
 359 1242 l 1
 213 1242 l 1
 262 1593 l 1
 946 1593 l 1
 1274 647 l 1
 1357 1240 l 1
 1210 1240 l 1
 1260 1592 l 1
 1852 1592 l 1
 1803 1240 l 1
EndSplineSet
Substitution2: "'c2sc' Capitals to Small Capitals in Latin lookup 0 subtable" n.sc
EndChar

StartChar: O
Encoding: 47 79 48
Width: 1572
Flags: HW
HStem: -29 347<745.638 926.371> 1260 363<863.669 1053.18>
VStem: 126 556<392.259 958.928> 1116 557<649.946 1190.36>
LayerCount: 2
Fore
SplineSet
782 -29 m 0
 381 -29 126 254 126 655 c 0
 126 701 129 749 136 798 c 0
 206 1295 544 1623 1014 1623 c 0
 1431 1623 1673 1365 1673 959 c 0
 1673 908 1669 854 1661 798 c 0
 1594 323 1229 -29 782 -29 c 0
963 1260 m 0
 781 1260 682 905 682 632 c 0
 682 459 725 318 831 318 c 0
 1001 318 1116 690 1116 968 c 0
 1116 1131 1073 1260 963 1260 c 0
EndSplineSet
Substitution2: "'c2sc' Capitals to Small Capitals in Latin lookup 0 subtable" o.sc
EndChar

StartChar: P
Encoding: 48 80 49
Width: 1475
Flags: HW
HStem: 0 359<83 228 748 833> 559 326<823 1005.76> 1240 353<261 352 873 1065.95>
VStem: 1103 515<971.578 1373>
LayerCount: 2
Fore
SplineSet
951 1240 m 2
 873 1240 l 1
 823 885 l 1
 861 885 l 2
 1001 885 1082 952 1101 1086 c 0
 1102 1095 1103 1104 1103 1113 c 0
 1103 1196 1043 1240 951 1240 c 2
916 559 m 0
 872 559 826 562 778 569 c 1
 748 359 l 1
 884 359 l 1
 833 0 l 1
 33 0 l 1
 83 359 l 1
 228 359 l 1
 352 1240 l 1
 212 1240 l 1
 261 1593 l 1
 1053 1593 l 2
 1329 1593 1618 1530 1618 1216 c 0
 1618 1190 1616 1162 1612 1133 c 0
 1553 714 1311 559 916 559 c 0
EndSplineSet
Substitution2: "'c2sc' Capitals to Small Capitals in Latin lookup 0 subtable" p.sc
EndChar

StartChar: Q
Encoding: 49 81 50
Width: 1620
Flags: HW
HStem: -29 347<745.638 928.391> 1260 363<863.669 1053.18>
VStem: 126 556<392.259 958.928> 1116 557<648.882 1190.36>
LayerCount: 2
Fore
SplineSet
963 1260 m 0
 781 1260 682 905 682 632 c 0
 682 459 725 318 831 318 c 0
 1001 318 1116 690 1116 968 c 0
 1116 1131 1073 1260 963 1260 c 0
782 -29 m 0
 381 -29 126 254 126 655 c 0
 126 701 129 749 136 798 c 0
 206 1295 544 1623 1014 1623 c 0
 1431 1623 1673 1365 1673 959 c 0
 1673 711 1602 520 1493 359 c 1
 1496 360 l 1
 1648 360 l 1
 1597 1 l 1
 1004 1 l 1
 933 -18 858 -29 782 -29 c 0
EndSplineSet
Substitution2: "'c2sc' Capitals to Small Capitals in Latin lookup 0 subtable" q.sc
EndChar

StartChar: R
Encoding: 50 82 51
Width: 1574
Flags: HW
HStem: 0 359<84 227 725 787 1461.4 1545> 683 226<797 976.087> 1239 353<257 351 843 1082.13>
VStem: 1007 448<367.851 586.925> 1113 526<1036.94 1373.93>
LayerCount: 2
Fore
SplineSet
853 909 m 2
 982 909 1113 956 1113 1111 c 0
 1113 1193 1051 1239 956 1239 c 2
 843 1239 l 1
 797 909 l 1
 853 909 l 2
1639 1251 m 0
 1639 970 1465 839 1247 797 c 1
 1372 765 1472 716 1472 588 c 0
 1472 576 1471 562 1469 548 c 2
 1458 465 l 2
 1457 455 1455 446 1455 438 c 0
 1455 366 1510 358 1595 358 c 1
 1545 -1 l 1
 1243 -1 l 2
 1079 -1 970 43 970 198 c 0
 970 216 971 235 974 255 c 2
 1000 440 l 2
 1005 474 1007 504 1007 531 c 0
 1007 627 973 683 862 683 c 2
 770 683 l 1
 725 359 l 1
 837 359 l 1
 787 0 l 1
 34 0 l 1
 84 359 l 1
 227 359 l 1
 351 1239 l 1
 207 1239 l 1
 257 1592 l 1
 1200 1592 l 2
 1472 1592 1639 1496 1639 1251 c 0
EndSplineSet
Substitution2: "'c2sc' Capitals to Small Capitals in Latin lookup 0 subtable" r.sc
EndChar

StartChar: S
Encoding: 51 83 52
Width: 1261
Flags: HW
HStem: -29 333<532.361 770.428> 0 21G<83 388.246> 1305 318<678.067 935.636> 1573 20G<1075.64 1349>
VStem: 199 454<872.791 1272.81> 808 491<354.951 763.848>
LayerCount: 2
Fore
SplineSet
199 1027 m 0
 199 1381 441 1623 736 1623 c 0
 939 1623 1000 1549 1038 1483 c 1
 1084 1593 l 1
 1349 1593 l 1
 1282 1117 l 1
 997 1117 l 1
 967 1261 918 1305 812 1305 c 0
 718 1305 653 1271 653 1203 c 0
 653 1139 746 1114 832 1092 c 0
 1087 1025 1299 917 1299 610 c 0
 1299 248 1058 -29 739 -29 c 0
 569 -29 501 21 415 122 c 1
 383 0 l 1
 83 0 l 1
 151 488 l 1
 451 488 l 1
 471 345 551 304 661 304 c 0
 728 304 808 348 808 433 c 0
 808 497 735 519 674 538 c 0
 420 619 199 718 199 1027 c 0
EndSplineSet
Substitution2: "'c2sc' Capitals to Small Capitals in Latin lookup 0 subtable" s.sc
EndChar

StartChar: T
Encoding: 52 84 53
Width: 1446
Flags: HW
HStem: 0 360<358 510 1034 1136> 965 627<251 424 1294 1555> 1240 352<504 634 1158 1293>
DStem2: 459.405 0 983.405 0 0.139173 0.990268<436.465 1252.23>
LayerCount: 2
Fore
SplineSet
1294 965 m 1xc0
 1293 1240 l 1
 1158 1240 l 1
 1034 360 l 1
 1186 360 l 1
 1136 0 l 1
 307 0 l 1
 358 360 l 1
 510 360 l 1
 634 1240 l 1
 504 1240 l 1xa0
 424 965 l 1
 163 965 l 1
 251 1592 l 1xc0
 1643 1592 l 1xa0
 1555 965 l 1
 1294 965 l 1xc0
EndSplineSet
Substitution2: "'c2sc' Capitals to Small Capitals in Latin lookup 0 subtable" t.sc
EndChar

StartChar: U
Encoding: 53 85 54
Width: 1537
Flags: HW
HStem: -29 375<815.454 1006.6> 1240 352<250 350 871 1009 1126 1229 1542 1685>
VStem: 258 517<385.484 879.938>
DStem2: 1050.59 -29 1363.84 -29 0.139173 0.990268<430.061 1281.48>
LayerCount: 2
Fore
SplineSet
275 704 m 2
 350 1240 l 1
 201 1240 l 1
 250 1592 l 1
 1058 1592 l 1
 1009 1240 l 1
 871 1240 l 1
 781 600 l 2
 778 575 775 552 775 529 c 0
 775 424 815 346 921 346 c 0
 1033 346 1113 417 1130 536 c 2
 1229 1240 l 1
 1077 1240 l 1
 1126 1592 l 1
 1734 1592 l 1
 1685 1240 l 1
 1542 1240 l 1
 1441 520 l 2
 1393 181 1077 -29 758 -29 c 0
 401 -29 258 161 258 490 c 0
 258 556 264 627 275 704 c 2
EndSplineSet
Substitution2: "'c2sc' Capitals to Small Capitals in Latin lookup 0 subtable" u.sc
EndChar

StartChar: V
Encoding: 54 86 55
Width: 1571
Flags: HW
HStem: 0 21G<487.403 1041.81> 1240 352<224 329 871 979 1150 1221 1579 1746>
DStem2: 871 1240 329 1240 0.128758 -0.991676<0 728.055>
LayerCount: 2
Fore
SplineSet
979 1240 m 1
 871 1240 l 1
 957 517 l 1
 1221 1239 l 1
 1100 1239 l 1
 1150 1592 l 1
 1795 1592 l 1
 1746 1240 l 1
 1579 1240 l 1
 1033 0 l 1
 490 0 l 1
 329 1240 l 1
 174 1240 l 1
 224 1592 l 1
 1028 1592 l 1
 979 1240 l 1
EndSplineSet
Substitution2: "'c2sc' Capitals to Small Capitals in Latin lookup 0 subtable" v.sc
EndChar

StartChar: W
Encoding: 55 87 56
Width: 2322
Flags: HW
HStem: 0 21G<473.581 984.13 1340.73 1855.92> 1240 353<224 326 862 1003 1931 2012 2339 2496>
DStem2: 1792 703 1848 0 0.368156 0.929764<0 580.278>
LayerCount: 2
Fore
SplineSet
174 1240 m 1
 224 1593 l 1
 1053 1593 l 1
 1003 1240 l 1
 862 1240 l 1
 931 672 l 1
 1302 1593 l 1
 1682 1593 l 1
 1792 703 l 1
 2012 1240 l 1
 1882 1240 l 1
 1931 1593 l 1
 2546 1593 l 1
 2496 1240 l 1
 2339 1240 l 1
 1848 0 l 1
 1343 0 l 1
 1263 706 l 1
 976 0 l 1
 476 0 l 1
 326 1240 l 1
 174 1240 l 1
EndSplineSet
Substitution2: "'c2sc' Capitals to Small Capitals in Latin lookup 0 subtable" w.sc
EndChar

StartChar: X
Encoding: 56 88 57
Width: 1785
Flags: HW
HStem: 0 359<82 230 639 796 940 1057 1663 1753> 1240 353<303 413 1031 1107 1235 1319 1697 1880>
LayerCount: 2
Fore
SplineSet
847 359 m 1
 796 0 l 1
 32 0 l 1
 82 359 l 1
 230 359 l 1
 702 842 l 1
 413 1240 l 1
 254 1240 l 1
 303 1593 l 1
 1157 1593 l 1
 1107 1240 l 1
 1031 1240 l 1
 1154 1044 l 1
 1319 1240 l 1
 1185 1240 l 1
 1235 1593 l 1
 1930 1593 l 1
 1880 1240 l 1
 1697 1240 l 1
 1327 809 l 1
 1663 360 l 1
 1804 360 l 1
 1753 0 l 1
 889 0 l 1
 940 359 l 1
 1057 359 l 1
 867 614 l 1
 639 359 l 1
 847 359 l 1
EndSplineSet
Substitution2: "'c2sc' Capitals to Small Capitals in Latin lookup 0 subtable" x.sc
EndChar

StartChar: Y
Encoding: 57 89 58
Width: 1519
Flags: HW
HStem: 0 359<427 572 1090 1185> 1240 352<249 304 907 992 1124 1212 1501 1667>
LayerCount: 2
Fore
SplineSet
1212 1240 m 1
 1075 1240 l 1
 1124 1592 l 1
 1717 1592 l 1
 1667 1240 l 1
 1501 1240 l 1
 1138 704 l 1
 1090 359 l 1
 1236 359 l 1
 1185 0 l 1
 377 0 l 1
 427 359 l 1
 572 359 l 1
 613 652 l 1
 304 1240 l 1
 200 1240 l 1
 249 1592 l 1
 1042 1592 l 1
 992 1240 l 1
 907 1240 l 1
 1040 973 l 1
 1212 1240 l 1
EndSplineSet
Substitution2: "'c2sc' Capitals to Small Capitals in Latin lookup 0 subtable" y.sc
EndChar

StartChar: Z
Encoding: 58 90 59
Width: 1381
Flags: HW
HStem: 0 359<750 1037> 1240 352<549 842>
DStem2: 87 350 750 359 0.642018 0.76669<432.558 1167.08>
LayerCount: 2
Fore
SplineSet
1507 1263 m 1
 750 359 l 1
 1037 359 l 1
 1184 695 l 1
 1446 695 l 1
 1349 0 l 1
 37 0 l 1
 87 350 l 1
 842 1240 l 1
 549 1240 l 1
 431 928 l 1
 163 928 l 1
 257 1592 l 1
 1553 1592 l 1
 1507 1263 l 1
EndSplineSet
Substitution2: "'c2sc' Capitals to Small Capitals in Latin lookup 0 subtable" z.sc
EndChar

StartChar: bracketleft
Encoding: 59 91 60
Width: 729
Flags: HW
HStem: 0 21G<33 694.894> 1322 301<699 883>
DStem2: 33 0 513.292 0 0.139173 0.990268<380.9 1401.82>
LayerCount: 2
Fore
SplineSet
33 0 m 1
 261 1623 l 1
 925 1623 l 1
 883 1322 l 1
 699 1322 l 1
 557 311 l 1
 737 311 l 1
 692 0 l 1
 33 0 l 1
EndSplineSet
EndChar

StartChar: backslash
Encoding: 60 92 61
Width: 880
Flags: HW
HStem: 0 21G<331.891 866> 1603 20G<243 777.109>
VStem: 243 533<1090 1623> 333 533<0 533>
DStem2: 776 1623 243 1623 0.0553678 -0.998466<0 1595.98>
LayerCount: 2
Fore
SplineSet
333 0 m 1
 243 1623 l 1
 776 1623 l 1
 866 0 l 1
 333 0 l 1
EndSplineSet
EndChar

StartChar: bracketright
Encoding: 61 93 62
Width: 729
Flags: HW
HStem: 0 311<80 260> 1603 20G<258.209 925>
DStem2: 216.292 0 697 0 0.139173 0.990268<314.056 1334.98>
LayerCount: 2
Fore
SplineSet
37 0 m 1
 80 311 l 1
 260 311 l 1
 402 1322 l 1
 219 1322 l 1
 261 1623 l 1
 925 1623 l 1
 697 0 l 1
 37 0 l 1
EndSplineSet
EndChar

StartChar: asciicircum
Encoding: 62 94 63
Width: 1335
Flags: HW
HStem: 1604 20G<706.308 1076.1>
LayerCount: 2
Fore
SplineSet
1066 1624 m 1
 1427 909 l 1
 995 909 l 1
 841 1242 l 1
 593 909 l 1
 161 909 l 1
 722 1624 l 1
 1066 1624 l 1
EndSplineSet
EndChar

StartChar: underscore
Encoding: 63 95 64
Width: 1232
Flags: HW
HStem: -224 223<63 1141>
LayerCount: 2
Fore
SplineSet
1172 -1 m 1
 1141 -224 l 1
 31 -224 l 1
 63 -1 l 1
 1172 -1 l 1
EndSplineSet
EndChar

StartChar: quoteleft
Encoding: 344 8216 65
Width: 603
Flags: HW
HStem: 1426 227<600.579 745>
VStem: 187 589
LayerCount: 2
Fore
SplineSet
745 1428 m 1
 745 1426 l 1
 599 1426 559 1365 537 1206 c 1
 713 1206 l 1
 661 840 l 1
 187 840 l 1
 187 943 191 1035 203 1117 c 0
 255 1486 434 1653 776 1653 c 1
 745 1428 l 1
EndSplineSet
EndChar

StartChar: a
Encoding: 65 97 66
Width: 1172
Flags: HW
HStem: 0 21G<668.126 1146.84> 414 192<365.219 683.09> 676 314<227 403.818> 771 288<420.208 685.191>
VStem: 66 424<232.265 389.383> 716 451<570.719 893.601>
LayerCount: 2
Fore
SplineSet
600 414 m 0xcc
 532 414 490 360 490 300 c 0
 490 260 513 224 565 224 c 0
 603 224 660 235 663 256 c 2
 684 405 l 1
 663 409 631 414 600 414 c 0xcc
66 243 m 0
 66 492 272 606 458 606 c 0
 558 606 635 593 707 568 c 1
 713 612 l 2
 715 624 716 635 716 646 c 0
 716 729 663 771 547 771 c 0xdc
 463 771 344 676 344 676 c 1
 183 676 l 1
 227 990 l 1xec
 377 1032 559 1059 670 1059 c 0xdc
 916 1059 1167 1009 1167 778 c 0
 1167 762 1165 746 1163 728 c 2
 1102 296 l 1
 1186 296 l 1
 1144 0 l 1
 673 0 l 1
 644 119 l 1
 578 44 450 -18 329 -18 c 0
 184 -18 66 78 66 243 c 0
EndSplineSet
Substitution2: "'smcp' Lowercase to Small Capitals in Latin lookup 0 subtable" a.sc
EndChar

StartChar: b
Encoding: 66 98 67
Width: 1250
Flags: HW
HStem: -17 311<700.428 988> 0 21G<152 561.395> 747 314<771.5 1120.5> 1540 20G<651.579 797.224>
VStem: 918 423<390.769 721.584>
DStem2: 149.611 -17 578.643 -17 0.139173 0.990268<414.832 801.144 975.747 1240.04>
LayerCount: 2
Back
SplineSet
707 890 m 5
 769 971 868 1061 1008 1061 c 4
 1270 1061 1373 814 1332 525 c 4
 1291 235 1121 -17 855 -17 c 4
 726 -17 661 53 598 119 c 5
912 519 m 4
 934 672 897 747 802 747 c 4
 741 747 674 659 674 659 c 5
 635 384 l 5
 635 384 676 294 735 294 c 4
 845 294 895 398 912 519 c 4
603 102 m 5
 554 0 l 5
 152 0 l 5
 322 1211 l 5
 198 1211 l 5
 236 1484 l 5
 800 1560 l 5
 712 933 l 5
EndSplineSet
Fore
SplineSet
598 119 m 1
 554 0 l 1
 152 0 l 1
 322 1211 l 1
 198 1211 l 1
 236 1484 l 1
 800 1560 l 1
 707 890 l 1
 769 971 868 1061 1008 1061 c 0
 1233 1061 1341 878 1341 644 c 0
 1341 605 1338 566 1332 525 c 0
 1291 235 1121 -17 855 -17 c 0
 726 -17 661 53 598 119 c 1
735 294 m 0
 864 294 918 446 918 597 c 0
 918 698 879 747 802 747 c 0
 741 747 674 659 674 659 c 1
 635 384 l 1
 635 384 676 294 735 294 c 0
EndSplineSet
Substitution2: "'smcp' Lowercase to Small Capitals in Latin lookup 0 subtable" b.sc
EndChar

StartChar: c
Encoding: 67 99 68
Width: 992
Flags: HW
HStem: -18 312<406.938 729.885> 746 314<622.392 797.355> 1020 20G<924.215 1109>
VStem: 103 419<320.296 628.108>
LayerCount: 2
Fore
SplineSet
103 416 m 0xd0
 103 788 348 1060 671 1060 c 0xd0
 751 1060 844 1027 886 933 c 1
 933 1040 l 1
 1109 1040 l 1xb0
 1028 606 l 1
 813 606 l 1
 814 615 815 623 815 632 c 0
 815 695 783 746 725 746 c 0
 601 746 522 591 522 441 c 0
 522 365 554 294 641 294 c 0
 728 294 784 410 790 416 c 1
 1003 416 l 1
 962 124 l 1
 962 124 773 -18 550 -18 c 0
 265 -18 103 147 103 416 c 0xd0
EndSplineSet
Substitution2: "'smcp' Lowercase to Small Capitals in Latin lookup 0 subtable" c.sc
EndChar

StartChar: d
Encoding: 68 100 69
Width: 1257
Flags: HW
HStem: -19 313<365.804 631.5> 0 21G<692 1229.83> 747 311<430.171 737.855> 1540 20G<1191.89 1341.2>
VStem: 88 422<313.646 658.415>
DStem2: 689.032 -19 1122.61 -19 0.139173 0.990268<386.874 742.533 956.289 1242.1>
LayerCount: 2
Fore
SplineSet
679 747 m 0xb8
 567 747 510 600 510 450 c 0
 510 363 535 294 615 294 c 0
 674 294 743 365 743 365 c 1
 788 681 l 1
 768 710 731 747 679 747 c 0xb8
88 413 m 0
 88 752 287 1058 573 1058 c 0
 700 1058 763 1008 822 928 c 1
 862 1211 l 1
 728 1211 l 1
 766 1484 l 1
 1344 1560 l 1
 1168 304 l 1
 1270 304 l 1
 1227 0 l 1
 692 0 l 1x78
 710 128 l 1
 645 47 546 -19 429 -19 c 0
 198 -19 88 172 88 413 c 0
EndSplineSet
Substitution2: "'smcp' Lowercase to Small Capitals in Latin lookup 0 subtable" d.sc
EndChar

StartChar: e
Encoding: 69 101 70
Width: 1044
Flags: W
HStem: -17 240<407.314 736.304> 455 176<536 729.649> 804 256<581.84 721.431>
VStem: 731 368<631.48 795.46>
LayerCount: 2
Fore
SplineSet
724 631 m 1
 728 654 731 683 731 707 c 0
 731 763 714 804 655 804 c 0
 589 804 550 727 540 657 c 2
 536 631 l 1
 724 631 l 1
684 1060 m 0
 942 1060 1099 903 1099 650 c 0
 1099 620 1098 588 1093 555 c 0
 1087 511 1065 455 1065 455 c 1
 510 455 l 1
 507 436 506 417 506 399 c 0
 506 302 545 223 633 223 c 0
 713 223 761 268 775 352 c 1
 1045 352 l 1
 1014 128 l 1
 867 31 742 -17 543 -17 c 0
 272 -17 93 154 93 428 c 0
 93 459 95 492 100 526 c 0
 146 855 374 1060 684 1060 c 0
EndSplineSet
Substitution2: "'smcp' Lowercase to Small Capitals in Latin lookup 0 subtable" e.sc
EndChar

StartChar: f
Encoding: 70 102 71
Width: 814
Flags: W
HStem: 768 272<171 277 742 890> 1237 333<793.986 1014.54>
VStem: 133 434<-256 178>
DStem2: 133 -256 567 -256 0.139173 0.990268<60.4011 1034.08 1368.14 1548.87>
LayerCount: 2
Back
SplineSet
1056 1533 m 5
 1012 1223 l 5
 966.183 1232.29 927.584 1236.69 895.185 1236.69 c 4
 794.119 1236.69 753.377 1162.58 742 1040 c 5
 929 1040 l 5
 886 736 l 5
 706 736 l 5
 567 -256 l 5
 133 -256 l 5
 273 736 l 5
 128 736 l 5
 171 1040 l 5
 316 1040 l 5
 330 1141 l 5
 373.645 1427 531.856 1570 809 1570 c 4
 892.784 1570 1056 1533 1056 1533 c 5
EndSplineSet
Fore
SplineSet
1056 1533 m 1
 1012 1223 l 1
 966 1232 927 1237 895 1237 c 0
 794 1237 753 1163 742 1040 c 1
 929 1040 l 1
 890 768 l 1
 710 768 l 1
 567 -256 l 1
 133 -256 l 1
 277 768 l 1
 132 768 l 1
 171 1040 l 1
 316 1040 l 1
 330 1141 l 1
 374 1427 532 1570 809 1570 c 0
 893 1570 1056 1533 1056 1533 c 1
EndSplineSet
Substitution2: "'smcp' Lowercase to Small Capitals in Latin lookup 0 subtable" f.sc
EndChar

StartChar: g
Encoding: 71 103 72
Width: 1246
Flags: HW
HStem: -389 302<185.806 631.011> -43 20G<129.18 183.5> 31 266<331.467 646.341> 747 311<586.812 787.427> 1020 20G<902.333 1365>
VStem: 95 419<318.94 655.248>
LayerCount: 2
Fore
SplineSet
671 747 m 0xf4
 563 747 514 580 514 443 c 0
 514 363 538 297 615 297 c 0
 677 297 740 339 740 339 c 1
 792 715 l 1
 768 735 718 747 671 747 c 0xf4
95 427 m 0
 95 763 325 1058 600 1058 c 0xf4
 689 1058 780 1027 873 965 c 1
 913 1040 l 1
 1365 1040 l 1xec
 1322 736 l 1
 1229 736 l 1
 1142 121 l 2
 1094 -218 858 -389 423 -389 c 0
 304 -389 89 -328 89 -328 c 1
 132 -23 l 1
 235 -66 339 -87 444 -87 c 0
 594 -87 686 -54 709 110 c 1
 642 66 545 31 445 31 c 0
 218 31 95 194 95 427 c 0
EndSplineSet
Substitution2: "'smcp' Lowercase to Small Capitals in Latin lookup 0 subtable" g.sc
EndChar

StartChar: h
Encoding: 72 104 73
Width: 1275
Flags: HW
HStem: 0 8G<122 557.808 897.457 1118> 747 311<718.5 1073.94> 1540 20G<619.217 771.189>
VStem: 122 433<0 433> 757 440<255.083 609.108> 807 445<415.999 863.887>
DStem2: 120.173 -13 553.173 -13 0.139173 0.990268<73.3897 825.133 966.044 1223.84>
LayerCount: 2
Fore
SplineSet
984 1058 m 4xf4
 1164 1058 1252 953 1252 775 c 4xf4
 1252 746 1250 715 1245 683 c 6
 1198 350 l 6
 1197 345 1197 339 1197 333 c 4
 1197 296 1213 252 1255 252 c 4
 1299 252 1340 308 1400 416 c 5
 1487 376 l 5
 1306 60 1221 -13 1015 -13 c 4
 780 -13 757 230 757 284 c 6xf8
 757 294 l 5
 804 629 l 6
 806 643 807 656 807 668 c 4
 807 720 787 747 748 747 c 4
 689 747 655 710 644 634 c 6
 555 0 l 5
 122 0 l 5
 290 1199 l 5
 199 1199 l 5
 240 1491 l 5
 774 1560 l 5
 679 884 l 5
 735 972 837 1058 984 1058 c 4xf4
EndSplineSet
Substitution2: "'smcp' Lowercase to Small Capitals in Latin lookup 0 subtable" h.sc
EndChar

StartChar: i
Encoding: 73 105 74
Width: 658
Flags: HW
HStem: -13 265<318.26 687.855> 1020 20G<157.813 714> 1155 475<376.508 666.643>
VStem: 157 447<189.725 548.629> 239 569<1288.45 1505.32>
LayerCount: 2
Back
SplineSet
230.936 768 m 5
 121.936 768 l 5
 164.66 1072 l 5
 760.66 1072 l 5
806.055 1395 m 4xf0
 785.007 1245.24 643.773 1155 486.324 1155 c 4
 330.765 1155 221.142 1246.2 242.055 1395 c 4
 262.948 1543.67 395.515 1630 553.082 1630 c 4
 713.521 1630 827.219 1545.59 806.055 1395 c 4xf0
EndSplineSet
Fore
SplineSet
714 1040 m 9xf0
 606 350 l 2
 605 344 604 338 604 332 c 0
 604 295 621 252 663 252 c 0
 713 252 759 315 827 437 c 1
 915 397 l 1
 734 64 648 -13 442 -13 c 0
 195 -13 157 145 157 234 c 0
 157 269 164 293 164 294 c 2
 234 768 l 1
 196.667 768 159.333 768 122 768 c 1
 161 1040 l 1
 714 1040 l 9xf0
808 1430 m 0xe8
 808 1254 651 1155 486 1155 c 0
 343 1155 239 1231 239 1359 c 0
 239 1534 388 1630 553 1630 c 0
 701 1630 808 1559 808 1430 c 0xe8
EndSplineSet
Substitution2: "'smcp' Lowercase to Small Capitals in Latin lookup 0 subtable" i.sc
EndChar

StartChar: k
Encoding: 75 107 76
Width: 1238
Flags: HW
HStem: 0 21G<122 568.443 790.9 1219.81> 736 304<794 834 1155 1305> 1540 20G<619.217 771.194>
VStem: 122 444<0 444>
DStem2: 122 0 566 0 0.139173 0.990268<61.7929 507.007 627.787 1211.7>
LayerCount: 2
Fore
SplineSet
566 0 m 1
 122 0 l 1
 290 1200 l 1
 200 1200 l 1
 240 1491 l 1
 774 1560 l 1
 634 562 l 1
 834 736 l 1
 751 736 l 1
 794 1040 l 1
 1347 1040 l 1
 1305 736 l 1
 1155 736 l 1
 1155 737 985 592 984 592 c 2
 1123 292 l 1
 1258 292 l 1
 1217 0 l 1
 799 0 l 1
 620 442 l 1
 566 0 l 1
EndSplineSet
Substitution2: "'smcp' Lowercase to Small Capitals in Latin lookup 0 subtable" k.sc
EndChar

StartChar: l
Encoding: 76 108 77
Width: 676
Flags: W
HStem: -13 265<333.5 703> 1540 20G<621.154 788.193>
DStem2: 135.573 -13 570.14 -13 0.139173 0.990268<342.239 1247.26>
LayerCount: 2
Fore
SplineSet
622 356 m 2
 617 322 632.11 252 678 252 c 0
 728 252 775 319 844 448 c 1
 931 405 l 1
 749 65 663 -13 457 -13 c 0
 210 -13 172 146 172 236 c 0
 172 271 178 296 179 296 c 2
 310 1222 l 1
 201 1222 l 1
 239 1495 l 1
 791 1560 l 1
 622 356 l 2
844 448 m 1
EndSplineSet
Substitution2: "'smcp' Lowercase to Small Capitals in Latin lookup 0 subtable" l.sc
EndChar

StartChar: m
Encoding: 77 109 78
Width: 1820
Flags: WO
HStem: -14 249<1562.08 1817.5> 747 313<684 1052.5 1274 1626>
VStem: 128 394<0 394> 714 389<0 389> 1386 419<543.214 741.561>
DStem2: 126.032 -14 520.032 -14 0.139173 0.990268<68.9718 788.19> 712.032 -14 1101.03 -14 0.139173 0.990268<68.2759 688.255>
LayerCount: 2
Back
SplineSet
644 870 m 5
 723 971 844 1060 993 1060 c 4
 1112 1060 1175 964 1202 859 c 5
 1300 993 1413 1060 1539 1060 c 4
 1712.71 1060 1804.89 960.938 1804.89 788.757 c 4
 1804.89 763.694 1802.94 737.082 1799 709 c 6
 1748 341 l 6
 1748 338 1754 269 1760 269 c 5
 1763 248 1780 235 1800 235 c 4
 1847.3 235 1893.86 297.871 1961.32 418.524 c 5
 2044 380 l 5
 1872 62 1788 -14 1594 -14 c 4
 1364.49 -14 1328.63 133.546 1328.63 223.253 c 4
 1328.63 259.157 1334.63 285.795 1336 290 c 6
 1386 645 l 6
 1386.19 648.587 1386.29 652.133 1386.29 655.629 c 4
 1386.29 706.705 1365.41 747 1313 747 c 4
 1235 747 1198 673 1186 590 c 6
 1103 0 l 5
 714 0 l 5
 805 646 l 6
 806.095 653.784 806.642 661.168 806.642 668.135 c 4
 806.642 718.453 778.095 747 721 747 c 4
 647.424 747 615.667 654.462 602.23 572.623 c 5
 522 0 l 5
 128 0 l 5
 236 768 l 5
 135 768 l 5
 172 1032 l 5
 675 1092 l 5
 644 870 l 5
EndSplineSet
Fore
SplineSet
644 870 m 1
 723 971 844 1060 993 1060 c 0
 1112 1060 1175 964 1202 859 c 1
 1300 993 1413 1060 1539 1060 c 0
 1713 1060 1805 961 1805 789 c 0
 1805 764 1803 737 1799 709 c 2
 1748 341 l 2
 1748 338 1754 269 1760 269 c 1
 1763 248 1780 235 1800 235 c 0
 1847 235 1894 298 1961 419 c 1
 2044 380 l 1
 1872 62 1788 -14 1594 -14 c 0
 1364 -14 1329 133 1329 223 c 0
 1329 259 1335 286 1336 290 c 2
 1386 645 l 1
 1386 656 l 2
 1386 707 1365 747 1313 747 c 0
 1235 747 1198 673 1186 590 c 2
 1103 0 l 1
 714 0 l 1
 805 646 l 2
 806 654 807 661 807 668 c 0
 807 718 778 747 721 747 c 0
 647 747 615 655 602 573 c 1
 522 0 l 1
 128 0 l 1
 236 768 l 1
 135 768 l 1
 166 991 l 1
 669 1051 l 1
 644 870 l 1
EndSplineSet
Substitution2: "'smcp' Lowercase to Small Capitals in Latin lookup 0 subtable" m.sc
EndChar

StartChar: n
Encoding: 78 110 79
Width: 1293
Flags: WO
HStem: -13 255<993.637 1244> 1041 20G<512 690.159 936 1090.5>
VStem: 111 434<0 434> 754 441<244.249 606.867> 805 444<407.289 873.5>
DStem2: 109.173 -13 543.173 -13 0.139173 0.990268<73.5289 757.099>
LayerCount: 2
Back
SplineSet
1015 1092 m 4xd0
 1176.06 1092 1253.21 998.537 1253.21 811.047 c 4xd0
 1253.21 771.541 1249.79 727.861 1243 680 c 6
 1197 356 l 6
 1195.15 342.971 1194.27 330.835 1194.27 319.71 c 4
 1194.27 271.065 1211.07 241.763 1236.94 241.763 c 4
 1271.1 241.763 1321.08 292.874 1369.06 418.034 c 5
 1457 375 l 5
 1315.2 49.4019 1217.27 -13 1033 -13 c 4
 788.764 -13 753.713 191.92 753.713 272.142 c 4xe0
 753.713 282.377 754.283 290.583 755.062 296.074 c 6
 808 669 l 6
 809.018 676.255 809.518 683.445 809.518 690.469 c 4
 809.518 738.633 786.018 779 745 779 c 4
 691 779 647 728 638 666 c 6
 545 0 l 5
 111 0 l 5
 219 768 l 5
 118 768 l 5
 155 1032 l 5
 698 1092 l 5
 673 916 l 5
 748 1021 867 1092 1015 1092 c 4xd0
EndSplineSet
Fore
SplineSet
1010 1061 m 0xe8
 1171 1061 1249 967 1249 780 c 0xe8
 1249 740 1245 697 1238 649 c 2
 1197 356 l 2
 1195 343 1195 331 1195 320 c 0
 1195 271 1211 242 1237 242 c 0
 1271 242 1321 293 1369 418 c 1
 1457 375 l 1
 1315 49 1217 -13 1033 -13 c 0
 789 -13 754 192 754 272 c 0xf0
 754 282 754 291 755 296 c 2
 803 638 l 2
 804 645 805 652 805 659 c 0
 805 707 781 748 740 748 c 0
 686 748 642 697 633 635 c 2
 545 0 l 1
 111 0 l 1
 214 737 l 1
 113 737 l 1
 150 1001 l 1
 693 1061 l 1
 668 885 l 1
 743 990 862 1061 1010 1061 c 0xe8
EndSplineSet
Substitution2: "'smcp' Lowercase to Small Capitals in Latin lookup 0 subtable" n.sc
EndChar

StartChar: o
Encoding: 79 111 80
Width: 1122
Flags: WO
HStem: -18 312<517.142 649.582> 747 312<564.465 702.289>
VStem: 69 422<311.359 657.95> 728 422<392.905 731.953>
LayerCount: 2
Fore
SplineSet
640 747 m 0
 546 747 491 592 491 460 c 0
 491 370 518 294 577 294 c 0
 663 294 728 459 728 594 c 0
 728 678 702 747 640 747 c 0
684 1059 m 0
 970 1059 1150 912 1150 634 c 0
 1150 602 1147 567 1142 531 c 0
 1093 181 853 -18 533 -18 c 0
 247 -18 69 141 69 424 c 0
 69 458 72 494 77 531 c 0
 125 876 365 1059 684 1059 c 0
EndSplineSet
Substitution2: "'smcp' Lowercase to Small Capitals in Latin lookup 0 subtable" o.sc
EndChar

StartChar: p
Encoding: 80 112 81
Width: 1243
Flags: W
HStem: -398 21G<21 457.785> -17 311<629.428 917> 747 314<733.5 992.535>
VStem: 21 434<-398 36> 847 423<390.769 721.584>
DStem2: 21 -398 455 -398 0.139173 0.990268<60.4011 582.39 800.142 1144.67>
LayerCount: 2
Fore
SplineSet
664 294 m 0
 793 294 847 446 847 597 c 0
 847 698 808 747 731 747 c 0
 670 747 603 659 603 659 c 1
 564 384 l 1
 564 384 605 294 664 294 c 0
937 1061 m 0
 1162 1061 1270 878 1270 644 c 0
 1270 605 1267 566 1261 525 c 0
 1220 235 1050 -17 784 -17 c 0
 655 -17 590 53 527 119 c 1
 455 -398 l 1
 21 -398 l 1
 181 737 l 1
 78 737 l 1
 115 998 l 1
 659 1060 l 1
 636 890 l 1
 698 971 797 1061 937 1061 c 0
EndSplineSet
Substitution2: "alt inits-p" p.ini
Substitution2: "'smcp' Lowercase to Small Capitals in Latin lookup 0 subtable" p.sc
EndChar

StartChar: q
Encoding: 81 113 82
Width: 1251
Flags: HW
HStem: -398 21G<626 1062.8> -17 346<300.725 644> 736 324<428.98 749.187> 1020 20G<875.299 1344>
VStem: 90 423<350.058 663.518> 626 434<-398 36>
DStem2: 626 -398 1060 -398 0.139173 0.990268<60.4011 531.18 747.621 1117.15>
LayerCount: 2
Fore
SplineSet
616 329 m 0
 672 329 736 380 736 380 c 1
 778 683 l 1
 778 683 727 736 670 736 c 0
 587 736 537 671 518 538 c 0
 515 515 513 492 513 471 c 0
 513 392 538 329 616 329 c 0
90 409 m 0
 90 764 283 1060 582 1060 c 0
 700 1060 755 1023 816 953 c 1
 893 1040 l 1
 1344 1040 l 1
 1301 736 l 1
 1219 736 l 1
 1060 -398 l 1
 626 -398 l 1
 700 128 l 1
 629 50 540 -17 415 -17 c 0
 186 -17 90 169 90 409 c 0
EndSplineSet
Substitution2: "'smcp' Lowercase to Small Capitals in Latin lookup 0 subtable" q.sc
EndChar

StartChar: r
Encoding: 82 114 83
Width: 867
Flags: HW
HStem: 0 21G<132 551.782>
VStem: 132 417<0 417>
DStem2: 132 0 549 0 0.139173 0.990268<58.0352 710.833>
LayerCount: 2
Fore
SplineSet
175 1032 m 1
 718 1092 l 1
 693 917 l 1
 764 1026 896 1091 979 1091 c 1
 926 715 l 1
 869 717 l 1
 733 717 636 627 618 496 c 2
 549 0 l 1
 132 0 l 1
 240 768 l 1
 138 768 l 1
 175 1032 l 1
EndSplineSet
Substitution2: "'smcp' Lowercase to Small Capitals in Latin lookup 0 subtable" r.sc
EndChar

StartChar: s
Encoding: 83 115 84
Width: 1120
Flags: HW
HStem: 0 21G<67 269.569> 1020 20G<990.627 1169.66>
VStem: 123 228<294.995 397> 922 201<709 799.432>
LayerCount: 2
Back
SplineSet
579 830 m 4x13
 579 766 656 741 719 724 c 4
 919 672 1050 570 1050 355 c 4
 1050 119 884 -18 599 -18 c 4x93
 456 -18 344 42 280 116 c 5
 264 0 l 5
 67 0 l 5x45
 67 397 l 5
 295 397 l 5x49
 310 314 345 229 445 229 c 4
 497 229 523 255 523 307 c 4
 523 361 479 390 434 406 c 4
 242 476 74 536 74 756 c 4
 74 996 257 1091 510 1091 c 4x93
 708 1091 814 982 814 982 c 5
 851 1072 l 5
 1019 1072 l 5
 1019 741 l 5
 818 741 l 5x23
 782 830 771 897 671 897 c 4
 624 897 579 877 579 830 c 4x13
EndSplineSet
Fore
SplineSet
804 815 m 0
 751.09 815 714.469 790.137 714.469 752.916 c 0
 714.469 721.429 745.434 685.236 817 662 c 1
 987.885 616.131 1101.34 542.759 1101.34 389.502 c 0
 1101.34 372.359 1099.92 354.216 1097 335 c 0
 1069 135 895 -20 632 -20 c 0
 472 -20 349 29 296 116 c 1
 264 0 l 1
 67 0 l 1
 123 397 l 1
 351 397 l 1
 349.555 386.211 348.871 376.072 348.871 366.557 c 0
 348.871 277.298 409.069 243 466 243 c 0
 523.269 243 569.642 269.004 569.642 324.462 c 0
 569.642 443.38 175.995 437.219 175.995 683.429 c 0
 175.995 695.649 176.964 708.49 179 722 c 0
 213 964 409 1059 663 1059 c 0
 911 1059 952 950 952 950 c 1
 1002 1040 l 1
 1170 1040 l 1
 1123 709 l 1
 922 709 l 1
 922.828 714.793 923.225 720.315 923.225 725.572 c 0
 923.225 790.2 863.185 815 804 815 c 0
EndSplineSet
Substitution2: "'smcp' Lowercase to Small Capitals in Latin lookup 0 subtable" s.sc
EndChar

StartChar: t
Encoding: 84 116 85
Width: 769
Flags: HWO
HStem: -18 352<369.539 711.378> 769 271<169 238 709 822> 1386 20G<681.913 757.213>
VStem: 173 448<171.839 630.875>
LayerCount: 2
Back
SplineSet
695 334 m 4
 727.756 334 802.475 362.875 858.55 418 c 5
 820 119 l 5
 708.829 31.0746 568.929 -18 469 -18 c 4
 270.077 -18 173.489 76.9195 173.489 266.758 c 4
 173.489 297.371 176.001 330.451 181 366 c 6
 233 736 l 5
 126 736 l 5
 169 1040 l 5
 276 1040 l 5
 311 1291 l 5
 760 1406 l 5
 709 1040 l 5
 860 1040 l 5
 817 736 l 5
 666 736 l 5
 623 430 l 6
 621.947 422.63 621.414 415.538 621.414 408.777 c 4
 621.414 364.165 644.633 334 695 334 c 4
EndSplineSet
Fore
SplineSet
695 334 m 0
 728 334 803 363 859 418 c 1
 820 119 l 1
 709 31 569 -18 469 -18 c 0
 270 -18 173 77 173 267 c 0
 173 298 176 330 181 366 c 2
 238 769 l 1
 131 769 l 1
 169 1040 l 1
 276 1040 l 1
 311 1291 l 1
 760 1406 l 1
 709 1040 l 1
 860 1040 l 1
 822 769 l 1
 671 769 l 1
 623 430 l 2
 622 423 621 416 621 409 c 0
 621 364 645 334 695 334 c 0
EndSplineSet
Substitution2: "'smcp' Lowercase to Small Capitals in Latin lookup 0 subtable" t.sc
Substitution2: "alt endings-t" t.fin
EndChar

StartChar: u
Encoding: 85 117 86
Width: 1272
Flags: W
HStem: -18 336<342 702.5> -13 265<953.5 1283.5> 1020 20G<269.22 695 863.209 1300>
VStem: 170 440<180.5 626.016> 272 423<617 1040> 866 434<606 1040>
DStem2: 124.33 -18 549.038 -18 0.139173 0.990268<490.762 1068.26> 717.897 -18 1150.72 -18 0.139173 0.990268<411.229 1068.32>
LayerCount: 2
Back
SplineSet
866 1040 m 5
 1300 1040 l 5
 1203 354 l 6
 1194.79 295.911 1214.74 251.876 1259 252 c 5
 1308.04 252 1355.7 315.561 1424.37 438.663 c 5
 1512 399 l 5
 1331 64 1245 -13 1039 -13 c 4
 856 -13 766 74 743 156 c 5
 669 51 553 -18 406 -18 c 4
 249.712 -18 170.382 73.078 170.382 256.42 c 4
 170.382 291.276 173.249 329.467 179 371 c 6
 223 690 l 6
 229 732 222.271 788 167 788 c 4
 117.237 788 70.2249 725.402 2.00264 604.201 c 5
 -85 644 l 5
 95 976 179 1053 383 1053 c 4
 626.836 1053 663.769 896.102 663.769 806.655 c 4
 663.769 770.993 657.898 746.053 656.929 746.053 c 6
 612 430 l 6
 604.022 374.154 625.935 318 675 318 c 4
 730 318 772 370 781 431 c 6
 866 1040 l 5
EndSplineSet
Fore
SplineSet
866 1040 m 5xb4
 1300 1040 l 5
 1203 354 l 6
 1202 345 1201 337 1201 329 c 0
 1201 284 1221 252 1259 252 c 4
 1308 252 1355 316 1424 439 c 5
 1512 399 l 5
 1331 64 1245 -13 1039 -13 c 4x74
 868 -13 784 90 763 187 c 5
 691 63 579 -18 436 -18 c 4
 248 -18 170 96 170 265 c 0xb4
 170 298 173 334 179 371 c 6
 272 1040 l 21
 695 1040 l 5xac
 612 430 l 6
 611 423 610 416 610 409 c 0
 610 361 632 318 675 318 c 4
 730 318 772 370 781 431 c 6
 866 1040 l 5xb4
EndSplineSet
Substitution2: "alt inits-u" u.ini
Substitution2: "'smcp' Lowercase to Small Capitals in Latin lookup 0 subtable" u.sc
EndChar

StartChar: v
Encoding: 86 118 87
Width: 1237
Flags: HW
HStem: 0 21G<403.87 832.946> 736 304<170 256 662 744 869 918 1189 1316>
LayerCount: 2
Fore
SplineSet
256 736 m 1
 127 736 l 1
 170 1040 l 1
 786 1040 l 1
 744 736 l 1
 662 736 l 1
 740 316 l 1
 918 736 l 1
 826 736 l 1
 869 1040 l 1
 1359 1040 l 1
 1316 736 l 1
 1189 736 l 1
 823 0 l 1
 408 0 l 1
 256 736 l 1
EndSplineSet
Substitution2: "'smcp' Lowercase to Small Capitals in Latin lookup 0 subtable" v.sc
EndChar

StartChar: w
Encoding: 87 119 88
Width: 1956
Flags: W
HStem: 0 21G<353.924 811.814 1079.74 1567.08> 736 304<120 208 689 803 1520 1595 1892 2034>
DStem2: 1441 379 1558 0 0.413244 0.910621<0 388.731>
LayerCount: 2
Fore
SplineSet
1595 736 m 1
 1477 736 l 1
 1520 1040 l 1
 2077 1040 l 1
 2034 736 l 1
 1892 736 l 1
 1558 0 l 1
 1083 0 l 1
 1013 430 l 1
 802 0 l 1
 358 0 l 1
 208 736 l 1
 97 736 l 1
 120 1040 l 1
 846 1040 l 1
 803 736 l 1
 689 736 l 1
 749 392 l 1
 1055 1040 l 1
 1321 1040 l 1
 1441 379 l 1
 1595 736 l 1
EndSplineSet
Substitution2: "'smcp' Lowercase to Small Capitals in Latin lookup 0 subtable" w.sc
EndChar

StartChar: x
Encoding: 88 120 89
Width: 1081
Flags: HW
HStem: 0 305<74 206 977 1049> 736 304<194 264 1012 1125>
LayerCount: 2
Fore
SplineSet
1049 0 m 1
 636 0 l 1
 510 277 l 1
 290 0 l 1
 31 0 l 1
 74 305 l 1
 206 305 l 1
 390 498 l 1
 264 736 l 1
 152 736 l 1
 194 1040 l 1
 626 1040 l 1
 732 789 l 1
 929 1040 l 1
 1168 1040 l 1
 1125 736 l 1
 1012 736 l 1
 845 561 l 1
 977 305 l 1
 1092 305 l 1
 1049 0 l 1
EndSplineSet
Substitution2: "'smcp' Lowercase to Small Capitals in Latin lookup 0 subtable" x.sc
EndChar

StartChar: y
Encoding: 89 121 90
Width: 1298
Flags: HW
HStem: -377 315<267 487> 736 304<171 240 697 783 922 977 1281 1377>
DStem2: 800 434 1281 736 0.514496 0.857493<0 350.029>
LayerCount: 2
Fore
SplineSet
222 -377 m 1
 267 -62 l 1
 487 -62 l 1
 547 27 l 1
 240 736 l 1
 128 736 l 1
 171 1040 l 1
 826 1040 l 1
 783 736 l 1
 697 736 l 1
 800 434 l 1
 977 736 l 1
 879 736 l 1
 922 1040 l 1
 1420 1040 l 1
 1377 736 l 1
 1281 736 l 1
 615 -374 l 1
 222 -377 l 1
EndSplineSet
Substitution2: "'smcp' Lowercase to Small Capitals in Latin lookup 0 subtable" y.sc
EndChar

StartChar: z
Encoding: 90 122 91
Width: 1013
Flags: HW
HStem: 0 294<579 829> 747 293<387 567>
LayerCount: 2
Fore
SplineSet
387 747 m 1
 313 613 l 1
 141 613 l 1
 201 1040 l 1
 1096 1040 l 1
 1057 763 l 1
 579 294 l 1
 829 294 l 1
 881 441 l 1
 1043 441 l 1
 981 0 l 1
 31 0 l 1
 71 283 l 1
 567 747 l 1
 387 747 l 1
EndSplineSet
Substitution2: "'smcp' Lowercase to Small Capitals in Latin lookup 0 subtable" z.sc
EndChar

StartChar: braceleft
Encoding: 91 123 92
Width: 796
Flags: HW
HStem: -18 21G<601.581 764.779> 722 240<145 222.101>
VStem: 235 451<342.238 704.195>
LayerCount: 2
Fore
SplineSet
695 599 m 0
 695 560 686 511 686 476 c 0
 686 367 727 313 808 313 c 1
 762 -18 l 1
 441 -18 235 144 235 450 c 0
 235 496 246 552 246 600 c 0
 246 682 201 719 112 722 c 1
 146 962 l 1
 249 966 306 1014 322 1125 c 0
 375 1501 646 1702 1003 1702 c 1
 957 1371 l 1
 857 1371 795 1289 772 1125 c 0
 754 998 662 903 498 841 c 1
 629 787 695 706 695 599 c 0
146 962 m 1
 147 965 l 1
 145 962 l 1
 146 962 l 1
EndSplineSet
EndChar

StartChar: bar
Encoding: 92 124 93
Width: 432
Flags: HW
HStem: 0 21G<33 402.81> 1603 20G<258.19 628>
VStem: 33 367<0 367> 261 367<1256 1623>
DStem2: 33 0 400 0 0.139173 0.990268<51.0765 1638.94>
LayerCount: 2
Fore
SplineSet
628 1623 m 1
 400 0 l 1
 33 0 l 1
 261 1623 l 1
 628 1623 l 1
EndSplineSet
EndChar

StartChar: braceright
Encoding: 93 125 94
Width: 796
Flags: HW
HStem: -16 21G<33.7795 209.5>
VStem: 339 449<989.472 1344.64> 888 1<722 724>
LayerCount: 2
Fore
SplineSet
339 1086 m 0
 339 1125 348 1174 348 1210 c 0
 348 1319 307 1373 226 1373 c 1
 272 1704 l 1
 593 1704 799 1543 799 1237 c 0
 799 1191 788 1135 788 1087 c 0
 788 1005 833 968 922 965 c 1
 888 724 l 1
 785 720 728 672 712 561 c 0
 659 185 388 -16 31 -16 c 1
 77 315 l 1
 177 315 239 397 262 561 c 0
 280 688 371 782 535 843 c 1
 404 898 339 979 339 1086 c 0
888 724 m 1
 888 722 l 1
 889 724 l 1
 888 724 l 1
EndSplineSet
EndChar

StartChar: asciitilde
Encoding: 94 126 95
Width: 1180
Flags: HW
HStem: 631 291<826.457 919 920 1050.58> 833 288<377.766 604.081>
LayerCount: 2
Fore
SplineSet
973 922 m 0
 1046 922 1195 1116 1195 1116 c 1
 1303 1031 l 1
 1200 897 1122 629 920 629 c 1
 919 631 l 1
 709 631 654 833 458 833 c 0
 385 833 233 634 233 634 c 1
 123 720 l 1
 225 856 306 1121 509 1121 c 0
 719 1121 775 922 973 922 c 0
EndSplineSet
EndChar

StartChar: exclamdown
Encoding: 95 161 96
Width: 638
Flags: HW
VStem: 255 532<1293.71 1521.19>
LayerCount: 2
Fore
SplineSet
787 1448 m 0
 787 1264 638 1158 483 1158 c 1
 481 1157 l 1
 350 1157 255 1236 255 1367 c 0
 255 1548 396 1653 551 1653 c 0
 688 1653 787 1580 787 1448 c 0
667 1072 m 1
 275 1074 l 1
 90 299 l 1
 48 0 l 1
 594 0 l 1
 636 299 l 1
 667 1072 l 1
EndSplineSet
EndChar

StartChar: cent
Encoding: 96 162 97
Width: 1067
Flags: HW
VStem: 120 441<398.177 732.342> 535 105<-221 -116> 774 104<1372 1476>
DStem2: 535 -221 640 -221 0.139173 0.990268<14.6132 285.813 626.545 1069.43 1400.83 1713.75>
LayerCount: 2
Fore
SplineSet
684 838 m 1
 617 796 561 675 561 531 c 0
 561 465 579 410 621 388 c 1
 684 838 l 1
120 509 m 0
 120 889 364 1172 688 1172 c 0
 702 1172 717 1171 731 1169 c 1
 774 1476 l 1
 878 1476 l 1
 830 1136 l 1
 859 1121 888 1100 915 1074 c 1
 964 1151 l 1
 1127 1151 l 1
 1065 707 l 1
 840 707 l 1
 841 717 842 727 842 736 c 0
 842 788 821 827 789 846 c 1
 725 385 l 1
 763 400 806 455 813 505 c 1
 1036 505 l 1
 994 204 l 1
 920 135 681 71 681 71 c 1
 640 -221 l 1
 535 -221 l 1
 575 62 l 1
 562 62 l 2
 281 62 120 231 120 509 c 0
EndSplineSet
EndChar

StartChar: sterling
Encoding: 97 163 98
Width: 1146
Flags: HW
HStem: -19 349<83.6245 373 725.118 1105.02> 28 311<83.9718 171.917 994.209 1113> 760 233<254 337 811 1014> 1264 344<886.451 1255.13>
LayerCount: 2
Fore
SplineSet
1062 1264 m 0
 942 1264 846 1237 829 1117 c 2
 811 993 l 1
 1046 993 l 1
 1014 760 l 1
 778 760 l 1
 759 628 742 497 723 365 c 1
 750 355 l 1
 806 340 911 330 992 330 c 0
 1039 330 1094 333 1156 339 c 1
 1113 28 l 1
 1024 -3 937 -19 853 -19 c 0
 710 -19 639 28 639 122 c 0
 639 132 640 142 641 152 c 1
 561 37 447 -20 299 -20 c 0
 229 -20 42 28 42 28 c 1
 86 339 l 1
 121 330 150 326 173 326 c 0
 266 326 286 402 303 520 c 2
 337 760 l 1
 221 760 l 1
 254 993 l 1
 369 993 l 1
 399 1207 l 2
 441 1503 731 1608 1008 1608 c 0
 1122 1608 1297 1562 1297 1562 c 1
 1253 1251 l 1
 1179 1260 1115 1264 1062 1264 c 0
EndSplineSet
EndChar

StartChar: yen
Encoding: 99 165 99
Width: 1543
Flags: HW
HStem: -2 371<437 581 1099 1193> 454 174<225 593 1136 1496> 760 174<271 492 1274 1539> 1274 348<264 320 923 1008 1140 1194.06 1495.72 1684>
LayerCount: 2
Fore
SplineSet
1193 1221 m 0
 1194 1226 1194 1231 1194 1235 c 0
 1194 1269 1170 1272 1126 1272 c 2
 1091 1272 l 1
 1140 1622 l 1
 1733 1622 l 1
 1684 1272 l 1
 1615 1272 l 2
 1491 1272 1453 1178 1391 1093 c 2
 1274 934 l 1
 1564 934 l 1
 1539 760 l 1
 1154 760 l 1
 1136 628 l 1
 1521 628 l 1
 1496 454 l 1
 1111 454 l 1
 1099 369 l 1
 1245 369 l 1
 1193 -2 l 1
 385 -2 l 1
 437 369 l 1
 581 369 l 1
 593 454 l 1
 201 454 l 1
 225 628 l 1
 618 628 l 1
 623 670 l 1
 578 760 l 1
 244 760 l 1
 271 936 l 1
 492 936 l 1
 320 1274 l 1
 215 1274 l 1
 264 1622 l 1
 1057 1622 l 1
 1008 1274 l 1
 923 1274 l 1
 936 1250 1043 1019 1055 993 c 1
 1142 1108 1188 1184 1193 1221 c 0
EndSplineSet
EndChar

StartChar: section
Encoding: 101 167 100
Width: 943
Flags: HW
HStem: -18 227<373.21 549.773> 1 21G<67 238.537> 1463 171<539.282 771.834>
VStem: 121 205<278.648 379> 152 294<792.992 900.389> 251 360<1258.15 1444.8> 565 337<221.819 420.312> 746 281<740.737 902.054>
LayerCount: 2
Fore
SplineSet
646 685 m 1
 647 686 746 770 746 827 c 0
 746 920 556 985 556 985 c 1
 554 983 446 913 446 867 c 0
 446 779 646 685 646 685 c 1
902 339 m 0
 902 134 703 -18 524 -18 c 0
 401 -18 322 0 268 68 c 1
 226 1 l 1
 67 1 l 1
 121 379 l 1
 326 379 l 1
 328 294 380 209 471 209 c 0
 524 209 565 247 565 310 c 0
 565 520 152 572 152 807 c 0
 152 817 153 827 154 837 c 1
 145 833 l 1
 163 963 270 1056 371 1093 c 1
 291 1162 251 1237 251 1317 c 0
 251 1513 451 1634 621 1634 c 0
 713 1634 818 1617 856 1569 c 1
 888 1620 l 1
 1045 1620 l 1
 999 1297 l 1
 812 1297 l 1
 786 1392 l 1
 775 1425 744 1463 701 1463 c 0
 653 1463 611 1415 611 1356 c 0
 611 1177 1027 1103 1027 879 c 0
 1027 870 1026 861 1025 852 c 0
 1004 702 904 589 786 553 c 1
 863 497 902 426 902 339 c 0
EndSplineSet
EndChar

StartChar: currency
Encoding: 98 164 101
Width: 1145
Flags: HW
HStem: 540 161<499.842 850.075> 1493 162<597.887 942.25> 1602 20G<383.641 420.556 1181.44 1218.73>
VStem: 191 173<841.429 1240.37> 1083 182<958.756 1268.53>
DStem2: 174 660 255 557 0.730488 0.682925<0 116.464 1289 1397.47>
LayerCount: 2
Fore
SplineSet
778 1493 m 0
 547 1493 364 1299 364 1021 c 0
 364 828 478 701 668 701 c 0
 882 701 1045 864 1078 1099 c 0
 1081 1123 1083 1147 1083 1170 c 0
 1083 1206 1079 1239 1071 1270 c 1
 1068 1268 l 1
 1038 1397 938 1493 778 1493 c 0
1265 1200 m 0
 1265 1002.62 1201.78 854.539 1099 741 c 1
 1163 660 l 1
 1053 557 l 1
 985 643 l 1
 881 574 769 540 646 540 c 0
 526 540 425 573 342 638 c 1
 255 557 l 1
 174 660 l 1
 253 734 l 1
 206 807 184 893 184 993 c 0
 184 1026 186 1061 191 1097 c 1
 191 1098 l 1
 211 1238 262 1356 347 1451 c 1
 295 1519 l 1
 405 1622 l 1
 461 1550 l 1
 566 1620 679 1655 803 1655 c 0
 930 1655 1035 1618 1120 1545 c 1
 1203 1622 l 1
 1284 1519 l 1
 1205 1445 l 1
 1246 1375 1265 1293 1265 1200 c 0
EndSplineSet
EndChar

StartChar: quotesingle
Encoding: 7 39 102
Width: 520
Flags: HW
HStem: 945 679<266 524>
VStem: 245 467
LayerCount: 2
Fore
SplineSet
266 1624 m 1
 712 1624 l 1
 524 945 l 1
 245 945 l 1
 266 1624 l 1
EndSplineSet
EndChar

StartChar: quotedblleft
Encoding: 347 8220 103
Width: 1189
Flags: HW
HStem: 838 366<537 662 1124 1248>
LayerCount: 2
Fore
SplineSet
745 1426 m 1
 746 1424 l 1
 600 1424 559 1363 537 1204 c 1
 713 1204 l 1
 662 838 l 1
 187 838 l 1
 187 941 192 1033 204 1115 c 0
 256 1484 435 1651 777 1651 c 1
 745 1426 l 1
1331 1428 m 1
 1332 1426 l 1
 1186 1426 1146 1365 1124 1206 c 1
 1299 1206 l 1
 1248 840 l 1
 774 840 l 1
 774 943 778 1035 790 1117 c 0
 842 1486 1021 1653 1363 1653 c 1
 1331 1428 l 1
EndSplineSet
EndChar

StartChar: guillemotleft
Encoding: 105 171 104
Width: 1220
Flags: HW
HStem: -5 21G<423.218 458.661 990.218 1025.66>
DStem2: 139 669 400 534 0.746318 0.66559<104.934 566.85> 706 669 968 534 0.746318 0.66559<105.681 566.85>
LayerCount: 2
Fore
SplineSet
139 669 m 1
 592 1073 l 1
 738 849 l 1
 400 534 l 1
 649 219 l 1
 440 -5 l 1
 101 399 l 1
 139 669 l 1
706 669 m 1
 1159 1073 l 1
 1305 849 l 1
 968 534 l 1
 1216 219 l 1
 1007 -5 l 1
 668 399 l 1
 706 669 l 1
EndSplineSet
EndChar

StartChar: endash
Encoding: 342 8211 107
Width: 725
Flags: HW
HStem: 537 299<179 739>
VStem: 137 644
LayerCount: 2
Fore
SplineSet
781 836 m 1
 739 537 l 1
 137 537 l 1
 179 836 l 1
 781 836 l 1
EndSplineSet
EndChar

StartChar: periodcentered
Encoding: 117 183 108
Width: 621
Flags: HW
HStem: 513 496<284.733 375 377 540.303>
VStem: 150 531<649.5 877.383>
LayerCount: 2
Fore
SplineSet
681 805 m 0
 681 621 533 514 377 514 c 1
 375 513 l 1
 244 513 150 592 150 722 c 0
 150 903 291 1009 446 1009 c 0
 583 1009 681 936 681 805 c 0
EndSplineSet
EndChar

StartChar: paragraph
Encoding: 116 182 109
Width: 1355
Flags: HW
HStem: 0 363<440 613 1217 1311> 1270 366<993 1109 1344 1484>
DStem2: 561.984 0 814 0 0.139173 0.990268<366.567 745.294> 931 0 1165.98 0 0.139173 0.990268<399.271 1282.41>
LayerCount: 2
Fore
SplineSet
270 1181 m 0
 321 1541 599 1636 994 1636 c 0
 1181 1636 1373 1623 1534 1623 c 1
 1484 1268 l 1
 1344 1268 l 1
 1217 363 l 1
 1362 363 l 1
 1311 0 l 1
 931 0 l 1
 1109 1270 l 1
 993 1270 l 1
 814 0 l 1
 389 0 l 1
 440 363 l 1
 613 363 l 1
 666 738 l 1
 420 739 265 897 265 1114 c 0
 265 1136 267 1158 270 1181 c 0
EndSplineSet
EndChar

StartChar: bullet
Encoding: 350 8226 110
Width: 833
Flags: HW
HStem: 140 777<348.906 618.301>
LayerCount: 2
Fore
SplineSet
433 140 m 0
 239 140 121 264 121 460 c 0
 121 485 123 510 127 537 c 1
 125 546 l 1
 157 775 330 917 540 917 c 0
 735 917 865 799 865 604 c 0
 865 582 863 560 860 536 c 0
 826 296 653 140 433 140 c 0
EndSplineSet
EndChar

StartChar: quotesinglbase
Encoding: 346 8218 111
Width: 550
Flags: HW
HStem: -448 224<0 144.421>
VStem: -31 589
LayerCount: 2
Fore
SplineSet
0 -224 m 1
 147 -224 186 -161 208 -1 c 1
 33 -1 l 1
 84 365 l 1
 558 365 l 1
 558 262 554 170 542 88 c 0
 490 -281 311 -448 -31 -448 c 1
 0 -224 l 1
EndSplineSet
EndChar

StartChar: quotedblbase
Encoding: 349 8222 112
Width: 1147
Flags: HW
HStem: -449 224<-1 144.421 591 733.77> -2 366<84 208 676 800>
LayerCount: 2
Fore
SplineSet
0 -224 m 1
 -1 -225 l 1
 0 -225 l 1
 0 -224 l 1
592 -223 m 1
 591 -224 l 1
 592 -224 l 1
 592 -223 l 1
0 -225 m 1
 147 -225 186 -162 208 -2 c 1
 33 -2 l 1
 84 364 l 1
 558 364 l 1
 558 261 554 169 542 87 c 0
 490 -282 311 -449 -31 -449 c 1
 0 -225 l 1
592 -224 m 1
 739 -224 778 -161 800 -1 c 1
 624 -1 l 1
 676 365 l 1
 1150 365 l 1
 1150 262 1145 170 1133 88 c 0
 1081 -281 902 -448 560 -448 c 1
 592 -224 l 1
EndSplineSet
EndChar

StartChar: quotedblright
Encoding: 348 8221 113
Width: 1206
Flags: HW
HStem: 807 223<201 346.421 808 939.081> 1253 366<286 410 892 1017>
VStem: 201 1<1030 1032> 808 1<1032 1034>
LayerCount: 2
Fore
SplineSet
202 1032 m 1
 201 1030 l 1
 202 1030 l 1
 202 1032 l 1
809 1034 m 1
 808 1032 l 1
 809 1032 l 1
 809 1034 l 1
202 1030 m 1
 349 1030 388 1093 410 1253 c 1
 234 1253 l 1
 286 1619 l 1
 760 1619 l 1
 760 1516 755 1424 744 1343 c 0
 692 974 513 807 171 807 c 1
 202 1030 l 1
809 1032 m 1
 956 1032 995 1095 1017 1255 c 1
 841 1255 l 1
 892 1621 l 1
 1367 1621 l 1
 1367 1518 1361 1426 1350 1345 c 0
 1298 976 1119 809 777 809 c 1
 809 1032 l 1
EndSplineSet
EndChar

StartChar: guillemotright
Encoding: 121 187 114
Width: 1217
Flags: HW
HStem: -5 21G<198.875 234.376 765.964 801.426>
DStem2: 65 219 212 -5 0.745586 0.666409<0 461.927> 633 219 779 -5 0.746318 0.66559<0 461.17>
LayerCount: 2
Fore
SplineSet
1232 399 m 1
 779 -5 l 1
 633 219 l 1
 970 534 l 1
 721 849 l 1
 930 1073 l 1
 1270 669 l 1
 1232 399 l 1
664 399 m 1
 212 -5 l 1
 65 219 l 1
 403 534 l 1
 154 849 l 1
 363 1073 l 1
 702 669 l 1
 664 399 l 1
EndSplineSet
EndChar

StartChar: questiondown
Encoding: 125 191 115
Width: 1196
Flags: HW
HStem: -16 356<587.729 738.001>
LayerCount: 2
Fore
SplineSet
1189 1539 m 0
 1189 1357 1048 1252 894 1252 c 0
 757 1252 658 1325 658 1457 c 0
 658 1640 810 1748 964 1748 c 1
 964 1747 l 1
 1095 1747 1189 1669 1189 1539 c 0
653 340 m 0
 600 340 579 382 579 435 c 0
 579 446 580 459 582 471 c 0
 599 590 1001 828 1001 828 c 1
 1051 1180 l 1
 729 1180 l 1
 703 995 l 1
 455 908 150 785 103 448 c 0
 100 425 98 403 98 381 c 0
 98 121 329 -16 597 -16 c 0
 905 -16 1176 194 1236 502 c 1
 797 502 l 1
 775 394 727 340 653 340 c 0
EndSplineSet
EndChar

StartChar: grave
Encoding: 64 96 116
Width: 701
Flags: HW
HStem: 1130 578
VStem: 246 588
LayerCount: 2
Fore
SplineSet
455 1708 m 1
 834 1271 l 1
 718 1130 l 1
 246 1443 l 1
 455 1708 l 1
EndSplineSet
EndChar

StartChar: acute
Encoding: 114 180 117
Width: 699
Flags: HW
HStem: 1130 578
VStem: 222 636
LayerCount: 2
Fore
SplineSet
858 1443 m 1
 299 1130 l 1
 222 1271 l 1
 725 1708 l 1
 858 1443 l 1
EndSplineSet
EndChar

StartChar: circumflex
Encoding: 331 710 118
Width: 856
Flags: HW
HStem: 1123 477
LayerCount: 2
Fore
SplineSet
778 1600 m 1
 980 1224 l 1
 823 1123 l 1
 620 1368 l 1
 348 1123 l 1
 219 1224 l 1
 526 1601 l 1
 778 1600 l 1
EndSplineSet
EndChar

StartChar: tilde
Encoding: 337 732 119
Width: 927
Flags: HW
HStem: 1146 251<419.549 611.117> 1266 257<697.017 883.812>
LayerCount: 2
Fore
SplineSet
492 1397 m 0
 620 1397 703 1523 838 1523 c 0
 992 1523 999 1328 1050 1231 c 1
 934 1157 l 1
 887 1214 866 1266 814 1266 c 0
 699 1266 588 1146 466 1146 c 0
 310 1146 302 1335 251 1434 c 1
 367 1509 l 1
 415 1450 440 1397 492 1397 c 0
EndSplineSet
EndChar

StartChar: .notdef
Encoding: 357 -1 120
Width: 820
Flags: W
HStem: 1183 335<275 924>
LayerCount: 2
Fore
SplineSet
924 1183 m 1
 228 1183 l 1
 275 1518 l 1
 971 1518 l 1
 924 1183 l 1
EndSplineSet
EndChar

StartChar: breve
Encoding: 333 728 121
Width: 858
Flags: HW
HStem: 1243 217<546.588 603 605 737.611> 1601 19G<279.007 516 792.5 1033>
VStem: 275 239<1487.1 1620> 799 234<1524.76 1621>
LayerCount: 2
Fore
SplineSet
1033 1621 m 1
 999 1377 838 1245 605 1245 c 1
 603 1243 l 1
 394 1243 275 1345 275 1540 c 0
 275 1565 277 1592 281 1620 c 1
 516 1620 l 1
 515 1610 514 1600 514 1591 c 0
 514 1513 561 1460 635 1460 c 0
 719 1460 786 1527 799 1621 c 1
 1033 1621 l 1
EndSplineSet
EndChar

StartChar: dotaccent
Encoding: 334 729 122
Width: 634
Flags: HW
HStem: 1144 496<381.733 472 474 637.303>
VStem: 247 531<1280.5 1508.38>
LayerCount: 2
Fore
SplineSet
778 1436 m 0
 778 1252 630 1145 474 1145 c 1
 472 1144 l 1
 341 1144 247 1223 247 1353 c 0
 247 1534 388 1640 543 1640 c 0
 680 1640 778 1567 778 1436 c 0
EndSplineSet
EndChar

StartChar: dieresis
Encoding: 102 168 123
Width: 1098
Flags: HW
HStem: 1111 460<347.776 550.619 919.776 1122.62>
LayerCount: 2
Fore
SplineSet
809 1302 m 0
 809 1461 925 1570 1054 1570 c 0
 1163 1570 1235 1496 1235 1382 c 0
 1235 1369 1234 1355 1232 1341 c 1
 1230 1340 l 1
 1211 1205 1110 1110 990 1110 c 0
 881 1110 809 1187 809 1302 c 0
237 1303 m 0
 237 1462 353 1571 482 1571 c 0
 591 1571 663 1497 663 1383 c 0
 663 1370 662 1356 660 1342 c 1
 658 1341 l 1
 639 1206 538 1111 418 1111 c 0
 309 1111 237 1188 237 1303 c 0
EndSplineSet
EndChar

StartChar: ring
Encoding: 335 730 124
Width: 618
Flags: HW
HStem: 1139 101<379.636 464 465 595.816> 1533 100<403.84 626.147>
VStem: 244 105<1267.75 1479.16> 654 109<1295.65 1504.55>
LayerCount: 2
Fore
SplineSet
244 1350 m 0
 244 1523 380 1633 533 1633 c 0
 668 1633 763 1555 763 1428 c 0
 763 1254 619 1138 465 1138 c 1
 464 1139 l 1
 334 1139 244 1225 244 1350 c 0
520 1533 m 0
 429 1533 349 1467 349 1365 c 0
 349 1291 402 1240 479 1240 c 0
 570 1240 654 1307 654 1410 c 0
 654 1485 598 1533 520 1533 c 0
EndSplineSet
EndChar

StartChar: cedilla
Encoding: 118 184 125
Width: 473
Flags: HW
HStem: -487 113<2 154.93> -20 20G<123.143 292>
VStem: 191 187<-340.117 -169.831>
LayerCount: 2
Fore
SplineSet
378 -270 m 0
 378 -423 148 -487 6 -487 c 2
 -14 -487 l 1
 2 -374 l 1
 89 -373 191 -349 191 -262 c 0
 191 -197 109 -119 109 -119 c 1
 126 0 l 1
 292 -3 l 1
 276 -122 l 1
 344 -168 378 -218 378 -270 c 0
EndSplineSet
EndChar

StartChar: hungarumlaut
Encoding: 338 733 126
Width: 938
Flags: HW
LayerCount: 2
Fore
SplineSet
1118 1604 m 1
 658 1129 l 1
 538 1228 l 1
 903 1795 l 1
 1118 1604 l 1
709 1695 m 1
 361 1128 l 1
 216 1188 l 1
 446 1814 l 1
 709 1695 l 1
EndSplineSet
EndChar

StartChar: ogonek
Encoding: 336 731 127
Width: 487
Flags: HW
HStem: -488 113<227.616 353> -20 20G<213.339 381>
VStem: 19 190<-351.353 -232.951>
LayerCount: 2
Fore
SplineSet
19 -307 m 0
 19 -195 213 -2 214 0 c 1
 381 0 l 1
 381 0 215 -238 210 -273 c 0
 209 -278 209 -283 209 -287 c 0
 209 -354 286 -374 369 -375 c 1
 353 -488 l 1
 334 -488 l 2
 199 -488 19 -430 19 -307 c 0
EndSplineSet
EndChar

StartChar: caron
Encoding: 332 711 128
Width: 857
Flags: HW
HStem: 1149 478
LayerCount: 2
Fore
SplineSet
465 1149 m 1
 264 1526 l 1
 421 1627 l 1
 624 1382 l 1
 895 1627 l 1
 1024 1526 l 1
 717 1150 l 1
 465 1149 l 1
EndSplineSet
EndChar

StartChar: emdash
Encoding: 343 8212 129
Width: 1211
Flags: HW
HStem: 537 299<179 1225>
LayerCount: 2
Fore
SplineSet
1267 836 m 1
 1225 537 l 1
 137 537 l 1
 179 836 l 1
 1267 836 l 1
EndSplineSet
EndChar

StartChar: AE
Encoding: 132 198 130
Width: 1998
Flags: HW
HStem: -2 350<95 228.717 1459 1675.3> 538 231<784 982.006> 1269 354<698 780 1588 1786>
DStem2: 364 566 784 769 0.493981 0.869473<383.975 821.083>
LayerCount: 2
Fore
SplineSet
1006 769 m 1
 1080 1290 l 1
 784 769 l 1
 1006 769 l 1
1817 969 m 1
 1786 1269 l 1
 1588 1269 l 1
 1548 986 l 1
 1739 986 l 1
 1690 634 l 1
 1499 634 l 1
 1459 348 l 1
 1662 348 l 1
 1698 465 1780 685 1780 685 c 1
 2034 685 l 1
 1938 -2 l 1
 795 -2 l 1
 847 374 l 1
 958 374 l 1
 974 424 982 463 982 490 c 0
 982 522 971 538 948 538 c 2
 692 538 l 2
 658 538 634 464 634 416 c 0
 634 393 640 375 653 375 c 2
 732 375 l 1
 679 -1 l 1
 45 -2 l 1
 95 353 l 1
 241 353 305 456 364 566 c 0
 494 807 641 1039 780 1274 c 1
 583 1274 l 1
 698 1623 l 1
 2158 1623 l 1
 2066 970 l 1
 1817 969 l 1
EndSplineSet
EndChar

StartChar: ordfeminine
Encoding: 104 170 131
Width: 873
Flags: HW
HStem: 807 176<387.691 560.45> 1044 21G<181 191.5 497 501> 1140 142<423 637.069> 1409 215<429.856 646.415>
VStem: 663 310<1255.32 1501.88>
LayerCount: 2
Fore
SplineSet
576 1140 m 0
 539 1140 504 1100 498 1058 c 1
 497 1059 l 1
 496 1053 496 1048 496 1043 c 0
 496 1007 514 983 547 983 c 0
 578 983 620 994 623 1016 c 2
 638 1125 l 1
 623 1132 600 1140 576 1140 c 0
399 807 m 0
 278 807 178 881 178 1009 c 0
 178 1021 179 1033 181 1046 c 1
 180 1044 l 1
 203 1209 351 1282 495 1282 c 0
 558 1282 612 1273 656 1254 c 1
 661 1287 l 2
 662 1296 663 1304 663 1312 c 0
 663 1376 623 1409 542 1409 c 0
 481 1409 394 1339 394 1339 c 1
 280 1339 l 1
 313 1571 l 1
 359 1584 l 1
 422 1603 554 1624 635 1624 c 0
 804 1624 973 1588 973 1416 c 0
 973 1403 972 1389 970 1374 c 2
 924 1046 l 1
 973 1046 l 1
 941 821 l 1
 633 821 l 1
 612 909 l 1
 567 854 480 807 399 807 c 0
EndSplineSet
EndChar

StartChar: Lslash
Encoding: 247 321 132
Width: 1298
Flags: HW
HStem: 0 359<112 245 772 950> 1270 352<286 373 900 1044>
LayerCount: 2
Fore
SplineSet
1000 1160 m 1
 1067 981 l 1
 842 852 l 1
 772 359 l 1
 950 359 l 1
 1080 709 l 1
 1346 709 l 1
 1246 0 l 1
 63 0 l 1
 112 359 l 1
 245 359 l 1
 268 523 l 1
 189 478 l 1
 121 656 l 1
 301 759 l 1
 373 1270 l 1
 236 1270 l 1
 286 1622 l 1
 1093 1622 l 1
 1044 1270 l 1
 900 1270 l 1
 875 1088 l 1
 1000 1160 l 1
EndSplineSet
EndChar

StartChar: Oslash
Encoding: 150 216 133
Width: 1593
Flags: HW
HStem: -29 340<815 954.361>
VStem: 137 552<438.484 926.843> 1130 552<689.241 1175.11>
DStem2: 491 -155 636 -194 0.330863 0.943679<11.1717 177.37 627.526 1465.04 1929 2078.95>
LayerCount: 2
Fore
SplineSet
839 311 m 1
 1028 311 1071 572 1101 782 c 0
 1115 880 1130 980 1130 1065 c 0
 1130 1107 1127 1145 1117 1178 c 1
 815 313 l 1
 820 312 828 312 839 312 c 1
 839 311 l 1
980 1292 m 1
 798 1292 749 1056 721 854 c 0
 706 750 689 642 689 551 c 0
 689 508 692 469 702 436 c 1
 1007 1292 l 1
 995 1293 986 1294 979 1294 c 1
 980 1292 l 1
1671 808 m 0
 1603 326 1238 -29 791 -29 c 0
 758 -29 695 -23 695 -23 c 1
 636 -194 l 1
 491 -155 l 1
 551 10 l 1
 311 100 137 340 137 668 c 0
 137 713 140 759 147 807 c 0
 218 1315 561 1653 1029 1653 c 0
 1059 1653 1131 1646 1131 1646 c 1
 1187 1804 l 1
 1326 1774 l 1
 1270 1616 l 1
 1523 1532 1682 1304 1682 970 c 0
 1682 918 1679 865 1671 808 c 0
EndSplineSet
EndChar

StartChar: OE
Encoding: 261 338 134
Width: 2099
Flags: HW
HStem: 0 350<754.685 1047 1563 1779.3> 1258 352<866.324 1175 1690 1888>
VStem: 132 565<401.127 948.058>
LayerCount: 2
Fore
SplineSet
979 1257 m 2
 785 1257 738 1032 720 817 c 0
 712 728 697 636 697 556 c 0
 697 438 730 350 862 350 c 2
 1047 350 l 1
 1175 1257 l 1
 979 1257 l 2
143 792 m 0
 213 1290 571 1610 1035 1610 c 2
 2258 1610 l 1
 2166 957 l 1
 1916 956 l 1
 1888 1258 l 1
 1690 1258 l 1
 1652 988 l 1
 1843 988 l 1
 1793 636 l 1
 1603 636 l 1
 1563 350 l 1
 1766 350 l 1
 1802 467 1884 687 1884 687 c 1
 2138 687 l 1
 2042 0 l 1
 1632 0 1222 0 812 0 c 0
 397 0 132 244 132 648 c 0
 132 694 136 742 143 792 c 0
EndSplineSet
EndChar

StartChar: ordmasculine
Encoding: 120 186 135
Width: 881
Flags: HW
HStem: 271 229<449.969 582.194> 827 232<481.738 621.375>
VStem: 135 304<505.854 786.092> 628 309<546.091 821.659>
LayerCount: 2
Fore
SplineSet
557 827 m 0
 464 827 439 707 439 605 c 0
 439 535 462 500 509 500 c 0
 568 500 606 556 622 668 c 0
 626 692 628 716 628 737 c 0
 628 788 613 827 557 827 c 0
135 598 m 0
 135 898.785 337.246 1059 591 1059 c 0
 804 1059 937 952 937 748 c 0
 937 449 731 271 479 271 c 0
 269 271 135 391 135 598 c 0
EndSplineSet
EndChar

StartChar: ae
Encoding: 164 230 136
Width: 1686
Flags: HW
HStem: -26 240<320.04 675.044 1091.5 1372.65> 404 193<491.414 695.458> 421 172<1163 1357.7> 756 290<408.861 696.191> 765 316<1205 1345.84>
VStem: 1358 373<591.905 759.646>
LayerCount: 2
Fore
SplineSet
1358 647 m 0
 1358 713 1348 765 1281 765 c 0
 1211 765 1176 685 1167 620 c 2
 1163 593 l 1
 1351 591 l 1
 1355 612 1358 631 1358 647 c 0
696 384 m 1
 676 393 644 404 613 404 c 0
 559 404 513 351 506 302 c 1
 507 300 l 1
 506 294 506 288 506 282 c 0
 506 237 533 207 577 207 c 0
 618 207 658 231 677 250 c 1
 696 384 l 1
872 104 m 1
 741 4 617 -28 391 -28 c 0
 249 -28 154 24 104 121 c 0
 86 157 76 197 76 242 c 0
 76 258 78 275 80 292 c 1
 76 285 l 1
 99 443 218 535 357 577 c 0
 403 591 451 597 499 597 c 0
 584 597 656 584 716 559 c 1
 722 601 l 2
 724 612 724 623 724 633 c 0
 724 715 670 756 560 756 c 0
 477 756 410 727 360 669 c 1
 207 669 l 1
 250 975 l 1
 311 992 l 2
 394 1016 572 1046 683 1046 c 0
 813 1046 913 1000 976 937 c 0
 981 932 986 928 988 925 c 1
 1002 941 l 1
 1067 1013 1177 1081 1314 1081 c 0
 1520 1081 1658 966 1707 807 c 0
 1723 755 1731 698 1731 638 c 0
 1731 570 1722 510 1708 448 c 1
 1696 424 1699 421 1671 421 c 2
 1139 421 l 1
 1137 406 1136 391 1136 377 c 0
 1136 287 1181 214 1266 214 c 0
 1357 214 1395 262 1408 345 c 1
 1681 345 l 1
 1649 119 l 1
 1498 25 1368 -26 1147 -26 c 0
 1036 -26 944 17 872 104 c 1
EndSplineSet
EndChar

StartChar: dotlessi
Encoding: 231 305 137
Width: 641
Flags: HW
HStem: -13 262<315.378 679.5> 791 262<136.5 500.117>
LayerCount: 2
Fore
SplineSet
594 349 m 1
 594 349 601 281 608 283 c 1
 611 261 629 249 650 249 c 0
 699 249 746 312 814 434 c 1
 900 394 l 1
 722 64 638 -13 436 -13 c 0
 195 -13 159 143 159 232 c 0
 159 268 164 293 165 293 c 2
 222 691 l 1
 222 691 214 759 207 757 c 1
 204 779 187 791 166 791 c 0
 117 791 70 728 2 606 c 1
 -85 646 l 1
 93 976 177 1053 379 1053 c 0
 621 1053 657 901 657 814 c 0
 657 780 652 756 651 756 c 2
 594 349 l 1
2 606 m 1
 -12 582 -26 555 -41 526 c 1
 9 603 l 1
 2 606 l 1
814 434 m 1
 827 458 842 484 857 513 c 1
 807 437 l 1
 814 434 l 1
EndSplineSet
EndChar

StartChar: lslash
Encoding: 248 322 138
Width: 783
Flags: HW
HStem: -13 270<370.52 751.5>
LayerCount: 2
Fore
SplineSet
846 1153 m 1
 907 974 l 1
 736 870 l 1
 664 358 l 2
 664 357 670 292 678 292 c 2
 679 292 l 1
 682 268 700 257 721 257 c 0
 771 257 818 323 887 452 c 1
 976 409 l 1
 791 65 705 -13 496 -13 c 0
 245 -13 207 147 207 237 c 0
 207 272 213 297 214 297 c 2
 255 584 l 1
 181 540 l 1
 119 718 l 1
 288 820 l 1
 358 1317 l 1
 283 1317 l 1
 327 1630 l 1
 842 1630 l 1
 769 1106 l 1
 846 1153 l 1
887 452 m 1
 902 480 918 512 936 546 c 1
 880 456 l 1
 887 452 l 1
EndSplineSet
EndChar

StartChar: oslash
Encoding: 182 248 139
Width: 1129
Flags: HW
HStem: -23 312<544.57 690.485> 749 310<582.306 720.628>
VStem: 765 416<387.53 644.169>
DStem2: 203 -57 273 -104 0.547136 0.837044<0 136.304 565.277 895.675 1310.62 1310.62> 998 1192 1066 1126 0.479616 0.877479<-180.079 -25.2997>
LayerCount: 2
Fore
SplineSet
670 749 m 0
 555 749 536 627 520 526 c 1
 518 526 l 1
 513 493 510 463 510 437 c 0
 510 430 511 423 511 417 c 1
 722 737 l 1
 708 745 691 749 670 749 c 0
276 56 m 1
 170 125 100 249 100 421 c 0
 100 455 103 491 108 528 c 1
 106 528 l 1
 151 844 364 1059 713 1059 c 0
 787 1059 853 1050 910 1031 c 1
 998 1192 l 1
 1066 1126 l 1
 989 995 l 1
 1107 929 1181 806 1181 634 c 0
 1181 347 1042 137 850 41 c 0
 764 -2 669 -23 564 -23 c 0
 484 -23 414 -10 353 15 c 1
 273 -104 l 1
 203 -57 l 1
 276 56 l 1
763 647 m 1
 543 314 l 1
 558 298 579 289 604 289 c 0
 683 289 735 368 757 526 c 0
 762 558 764 585 765 608 c 0
 765 621 765 634 763 647 c 1
EndSplineSet
EndChar

StartChar: oe
Encoding: 262 339 140
Width: 1689
Flags: HW
HStem: -31 240<1085 1375.57> -26 343<532.348 702.72> 418 173<1166 1360.39> 691 352<567.078 749.184> 763 282<1208.35 1351.4>
VStem: 99 415<331.356 636.663> 1362 372<591 747.986>
LayerCount: 2
Fore
SplineSet
1285 763 m 0
 1219 763 1180 689 1170 619 c 2
 1166 591 l 1
 1354 591 l 1
 1359 617 1362 642 1362 665 c 0
 1362 721 1344 763 1285 763 c 0
663 691 m 0
 548 691 514 574 514 446 c 0
 514 360 546 317 610 317 c 0
 689 317 739 381 757 511 c 0
 760 535 762 557 762 577 c 0
 762 645 739 691 663 691 c 0
888 112 m 1
 823 30 690 -26 560 -26 c 0
 276 -26 99 127 99 408 c 0
 99 442 102 477 107 515 c 0
 156 861 393 1043 712 1043 c 0
 849 1043 948 991 1007 919 c 1
 1082 992 1179 1045 1313 1045 c 0
 1574 1045 1734 883 1734 622 c 0
 1734 590 1732 557 1727 522 c 0
 1719 463 1675 418 1675 418 c 1
 1143 418 l 1
 1141 404 1140 390 1140 376 c 0
 1140 285 1183 209 1270 209 c 0
 1355 209 1397 254 1412 347 c 1
 1686 347 l 1
 1653 114 l 1
 1496 17 1361 -31 1148 -31 c 0
 1022 -31 932 34 888 112 c 1
EndSplineSet
EndChar

StartChar: germandbls
Encoding: 157 223 141
Width: 1505
Flags: HW
HStem: 0 21G<193 664.812 915.779 1058> 748 151<852 960.387> 1274 349<862.936 1056.22>
VStem: 193 469<0 469> 1075 420<1107.8 1416.09>
DStem2: 190.049 -21 659.049 -21 0.139173 0.990268<86.4786 1352.61>
LayerCount: 2
Fore
SplineSet
852 899 m 1
 959 899 1075 1027 1075 1157 c 0
 1075 1229 1038 1274 965 1274 c 0
 887 1274 834 1224 821 1131 c 2
 662 0 l 1
 193 0 l 1
 347 1092 l 2
 403 1488 638 1623 989 1623 c 1
 985 1619 l 1
 1239 1619 1495 1541 1495 1292 c 0
 1495 1098 1362 966 1242 897 c 1
 1398 837 1538 698 1538 493 c 0
 1538 471 1536 449 1533 426 c 0
 1489 110 1203 -21 913 -21 c 1
 964 346 l 1
 1058 401 1108 462 1118 530 c 0
 1119 541 1120 550 1120 560 c 0
 1120 694 983 748 834 748 c 1
 852 899 l 1
EndSplineSet
EndChar

StartChar: onesuperior
Encoding: 119 185 142
Width: 495
Flags: HW
HStem: 286 190<145 194 465 494> 842 151<178 232.565>
VStem: 118 433
LayerCount: 2
Fore
SplineSet
118 286 m 1
 145 476 l 1
 194 476 l 1
 246 843 l 1
 157 842 l 1
 178 993 l 1
 551 1091 l 1
 465 476 l 1
 521 476 l 1
 494 286 l 1
 118 286 l 1
EndSplineSet
EndChar

StartChar: logicalnot
Encoding: 106 172 143
Width: 1054
Flags: HW
HStem: 761 331<204 883>
VStem: 853 214<542 756>
LayerCount: 2
Fore
SplineSet
204 1092 m 1
 1145 1092 l 1
 1067 542 l 1
 853 542 l 1
 883 761 l 1
 159 761 l 1
 204 1092 l 1
EndSplineSet
EndChar

StartChar: dotlessj
Encoding: 358 567 144
Width: 616
Flags: HW
DStem2: 94.5945 -398 527.621 -398 0.139173 0.990268<328.504 1145.15>
LayerCount: 2
Fore
SplineSet
148 -18 m 1
 139 -73 75 -79 28 -79 c 2
 17 -79 l 1
 -28 -398 l 1
 343 -398 545 -272 600 117 c 2
 730 1040 l 1
 181 1040 l 1
 138 736 l 1
 254 736 l 1
 148 -18 l 1
EndSplineSet
EndChar

StartChar: Eth
Encoding: 142 208 146
AltUni2: 000110.ffffffff.0
Width: 1621
Flags: HW
HStem: 0 351<105 257 768 945.553> 713 209<216 307 847 898> 1270 352<280 386 896 1072.48>
VStem: 1163 555<679.199 1174.05>
LayerCount: 2
Fore
SplineSet
1150 815 m 0
 1158 872 1163 928 1163 979 c 0
 1163 1145 1111 1269 940 1269 c 2
 896 1269 l 1
 847 921 l 1
 927 921 l 1
 898 712 l 1
 819 712 l 1
 768 350 l 1
 799 350 l 1
 797 347 l 1
 1020 347 1116 576 1150 815 c 0
1718 1006 m 0
 1718 393 1329 0 801 0 c 2
 56 0 l 1
 105 351 l 1
 257 351 l 1
 307 713 l 1
 186 713 l 1
 216 922 l 1
 337 922 l 1
 386 1270 l 1
 230 1270 l 1
 280 1622 l 1
 1052 1622 l 2
 1492 1622 1718 1416 1718 1006 c 0
EndSplineSet
EndChar

StartChar: onehalf
Encoding: 123 189 147
Width: 1617
Flags: HW
HStem: -1 195<1300 1508.55> 617 214<1181.56 1409.77> 818 190<213 262 536 562> 1374 151<245 299.711> 1603 20G<542.673 616.301 993.559 1341>
VStem: 994 173<430.563 604.129> 1318 296<434.567 613.54> 1524 97<212.25 283>
DStem2: 317 0 646 0 0.393646 0.919262<129.509 1761.61>
LayerCount: 2
Fore
SplineSet
994 511 m 0
 994 725 1166 831 1338 831 c 0
 1481 831 1614 754 1614 599 c 0
 1614 586 1613 572 1611 558 c 0
 1585 376 1461 311 1300 194 c 1
 1390 194 l 1
 1459 196 1514 211 1524 283 c 1
 1621 283 l 1
 1581 -1 l 1
 941 -1 l 1
 963 178 l 1
 1101 234 1291 331 1317 513 c 0
 1318 519 1318 525 1318 531 c 0
 1318 576 1296 617 1255 617 c 0
 1206 617 1167 576 1167 518 c 0
 1167 495 1175 474 1192 455 c 1
 1050 350 l 1
 1012 393 994 446 994 511 c 0
317 0 m 1
 1002 1623 l 1
 1341 1623 l 1
 646 0 l 1
 317 0 l 1
187 818 m 1
 213 1008 l 1
 262 1008 l 1
 313 1375 l 1
 224 1374 l 1
 245 1525 l 1
 619 1623 l 1
 536 1008 l 1
 588 1008 l 1
 562 818 l 1
 187 818 l 1
EndSplineSet
EndChar

StartChar: plusminus
Encoding: 111 177 148
Width: 754
Flags: HW
HStem: -1 224<107 678> 517 245<155 337 608 783>
VStem: 303 237<278 515> 409 237<794 1031>
DStem2: 263.789 -1 500.789 -1 0.139173 0.990268<314.726 523.148 803.479 1042.17>
LayerCount: 2
Fore
SplineSet
155 762 m 1
 371 762 l 1
 409 1031 l 1
 646 1031 l 1
 608 762 l 1
 817 762 l 1
 783 517 l 1
 574 517 l 1
 540 278 l 1
 303 278 l 1
 337 517 l 1
 121 517 l 1
 155 762 l 1
709 223 m 1
 678 -1 l 1
 76 -1 l 1
 107 223 l 1
 709 223 l 1
EndSplineSet
EndChar

StartChar: Thorn
Encoding: 156 222 149
Width: 1497
Flags: HW
HStem: 0 363<99 245 764 849> 559 335<840 1059.85> 1207 335<930 1098.82>
VStem: 1132 490<960.581 1175.53>
LayerCount: 2
Fore
SplineSet
896 894 m 2
 1022 894 1132 937 1132 1080 c 0
 1132 1165 1066 1207 980 1207 c 2
 884 1207 l 1
 840 894 l 1
 896 894 l 2
1615 1066 m 0
 1562 688 1285 559 931 559 c 0
 887 559 841 562 793 569 c 1
 764 363 l 1
 900 363 l 1
 849 0 l 1
 48 0 l 1
 99 363 l 1
 245 362 l 1
 403 1487 l 1
 263 1487 l 1
 313 1842 l 1
 973 1842 l 1
 930 1542 l 1
 1300 1542 1622 1504 1622 1160 c 0
 1622 1131 1620 1100 1615 1066 c 0
EndSplineSet
EndChar

StartChar: onequarter
Encoding: 122 188 150
Width: 1555
Flags: HW
HStem: 1 169<1072 1173 1422 1496> 247 151<1080 1184 1454 1558> 818 190<164 263 536 604> 1405 170<243 319> 1604 20G<459.612 622 1047.95 1349>
DStem2: 121.335 0 394.335 0 0.139173 0.990268<1055.9 1418.84> 322 0 613 0 0.412789 0.910827<120.121 1782.58> 915 405 1080 398 0.633808 0.77349<99.1639 349.288>
LayerCount: 2
Fore
SplineSet
1205 398 m 1
 1233 596 l 1
 1080 398 l 1
 1205 398 l 1
1422 170 m 1
 1520 170 l 1
 1496 1 l 1
 1049 1 l 1
 1072 170 l 1
 1173 170 l 1
 1184 247 l 1
 893 247 l 1
 915 405 l 1
 1278 848 l 1
 1517 848 l 1
 1454 398 l 1
 1579 398 l 1
 1558 247 l 1
 1433 247 l 1
 1422 170 l 1
322 0 m 1
 1057 1624 l 1
 1349 1624 l 1
 613 0 l 1
 322 0 l 1
609 1624 m 1
 622 1624 l 1
 536 1008 l 1
 630 1008 l 1
 604 818 l 1
 137 818 l 1
 164 1008 l 1
 263 1008 l 1
 319 1405 l 1
 219 1405 l 1
 243 1575 l 1
 609 1624 l 1
EndSplineSet
LCarets2: 2 0 0 
EndChar

StartChar: divide
Encoding: 181 247 151
Width: 785
Flags: HW
HStem: -18 405<318.706 557.783> 885 405<445.706 684.783>
LayerCount: 2
Fore
SplineSet
786 1125 m 0
 786 982 675 885 535 885 c 1
 535 884 l 1
 431 884 349 948 349 1054 c 0
 349 1195 452 1290 592 1290 c 0
 700 1290 786 1232 786 1125 c 0
659 222 m 0
 659 79 548 -18 408 -18 c 1
 408 -19 l 1
 304 -19 222 45 222 151 c 0
 222 292 326 387 465 387 c 0
 573 387 659 329 659 222 c 0
142 761 m 1
 111 538 l 1
 831 538 l 1
 862 761 l 1
 142 761 l 1
EndSplineSet
EndChar

StartChar: brokenbar
Encoding: 100 166 152
Width: 502
Flags: HW
HStem: 0 21G<67 437.802> 1603 20G<292.198 663>
VStem: 67 368<0 368> 169 367<354 721> 194 367<902 1269> 295 368<1255 1623>
DStem2: 67 0 435 0 0.139173 0.990268<51.2157 728.179 961.973 1638.94>
LayerCount: 2
Fore
SplineSet
663 1623 m 1
 561 902 l 1
 194 902 l 1
 295 1623 l 1
 663 1623 l 1
536 721 m 1
 435 0 l 1
 67 0 l 1
 169 721 l 1
 536 721 l 1
EndSplineSet
EndChar

StartChar: degree
Encoding: 110 176 153
Width: 749
Flags: HW
HStem: 949 143<409.404 649.96> 1496 138<448.801 696.143>
VStem: 216 145<1142.17 1402.11> 744 149<1189.97 1447.01>
LayerCount: 2
Fore
SplineSet
521 1092 m 0
 641 1092 744 1193 744 1330 c 0
 744 1428 679 1496 577 1496 c 0
 458 1496 361 1398 361 1263 c 0
 361 1165 422 1092 521 1092 c 0
893 1357 m 0
 893 1112 712 949 501 949 c 0
 326 949 216 1061 216 1234 c 0
 216 1477 388 1634 596 1634 c 0
 774 1634 893 1529 893 1357 c 0
EndSplineSet
EndChar

StartChar: thorn
Encoding: 188 254 154
Width: 1230
Flags: HW
HStem: -398 21G<-27.1523 568> -9 315<631.051 874.413> 1425 20G<235.19 740>
VStem: 865 421<400.366 710.454>
DStem2: 45.5567 -398 470.557 -398 0.139173 0.990268<364.116 581.199 869.41 1187.27 1425.89 1552.03>
LayerCount: 2
Fore
SplineSet
586 404 m 1
 583 401 l 1
 583 348 626 306 682 306 c 0
 805 306 846 434 861 542 c 0
 864 563 865 582 865 599 c 0
 865 690 826 736 746 736 c 0
 691 736 658 707 635 675 c 0
 623 659 622 656 618 643 c 1
 586 415 l 1
 586 404 l 1
801 -9 m 0
 684 -9 586 47 543 119 c 1
 513 -96 l 1
 610 -96 l 1
 568 -397 l 1
 -30 -398 l 1
 13 -96 l 1
 88 -96 l 1
 261 1139 l 1
 195 1139 l 1
 238 1445 l 1
 740 1445 l 1
 671 954 l 1
 680 954 l 1
 754 1029 824 1081 955 1081 c 0
 1186 1081 1286 884 1286 652 c 0
 1286 449 1216 283 1126 163 c 0
 1058 73 948 -9 801 -9 c 0
EndSplineSet
EndChar

StartChar: threequarters
Encoding: 124 190 155
Width: 1651
Flags: HW
HStem: -1 167<1229 1297 1547 1590> 243 151<1226 1308 1580 1654> 822 171<248.281 502.542> 1358 21G<231 356.976> 1440 183<354.663 541>
VStem: 231 105<1358 1424.19> 522 294<1016.06 1160.66>
DStem2: 454 0 782 0 0.394056 0.919086<129.25 1759.37>
LayerCount: 2
Fore
SplineSet
387 993 m 0
 450 993 522 1020 522 1094 c 0
 522 1155 462 1178 399 1178 c 0
 381 1178 341 1166 328 1166 c 0
 321 1166 317 1171 317 1171 c 1
 330 1264 l 1
 540 1434 l 1
 541 1440 l 1
 422 1440 l 2
 364 1440 336 1358 336 1358 c 1
 231 1358 l 1
 268 1623 l 1
 850 1623 l 1
 829 1469 l 2
 829 1468 770 1422 654 1331 c 1
 744 1323 816 1241 816 1140 c 0
 816 1130 815 1120 814 1110 c 0
 786 909 617 822 421 822 c 0
 308 822 170 878 170 878 c 1
 198 1078 l 1
 256 1022 318 993 387 993 c 0
454 0 m 1
 1138 1621 l 1
 1477 1621 l 1
 782 0 l 1
 454 0 l 1
1547 166 m 1
 1614 166 l 1
 1590 -1 l 1
 1205 -1 l 1
 1229 166 l 1
 1297 166 l 1
 1308 243 l 1
 1017 243 l 1
 1039 401 l 1
 1395 785 l 1
 1635 784 l 1
 1580 393 l 1
 1675 394 l 1
 1654 243 l 1
 1558 243 l 1
 1547 166 l 1
1330 394 m 1
 1349 532 l 1
 1226 395 l 1
 1330 394 l 1
EndSplineSet
EndChar

StartChar: twosuperior
Encoding: 112 178 156
Width: 746
Flags: HW
HStem: 286 195<464 672.547> 904 214<345.561 573.771>
VStem: 158 173<717.563 891.129> 482 296<721.567 900.54> 688 97<499.25 570>
LayerCount: 2
Fore
SplineSet
158 798 m 0
 158 1012 330 1118 502 1118 c 0
 645 1118 778 1041 778 886 c 0
 778 873 777 859 775 845 c 0
 749 663 625 598 464 481 c 1
 554 481 l 1
 623 483 678 498 688 570 c 1
 785 570 l 1
 745 286 l 1
 105 286 l 1
 127 465 l 1
 265 521 455 618 481 800 c 0
 482 806 482 812 482 818 c 0
 482 863 460 904 419 904 c 0
 370 904 331 863 331 805 c 0
 331 782 339 761 356 742 c 1
 214 637 l 1
 176 680 158 733 158 798 c 0
EndSplineSet
EndChar

StartChar: registered
Encoding: 108 174 157
Width: 1644
Flags: HW
HStem: -18 148<623.362 1066.99> 360 199<499 578 855 890 1261.61 1313> 747 125<895 927 928 1007.89> 1058 204<597 648 923 1068.96> 1446 154<787.241 1239.77>
VStem: 142 162<450.882 940.837> 1013 259<559.498 741.753> 1072 293<910.528 1137.08> 1558 166<641.495 1115.85>
LayerCount: 2
Fore
SplineSet
928 873 m 1
 1019 873 1072 909 1072 988 c 0
 1072 1038 1039 1068 986 1068 c 2
 923 1068 l 1
 895 872 l 1
 927 872 l 1
 928 873 l 1
1365 1067 m 0
 1365 909 1271 831 1147 809 c 1
 1216 791 1272 762 1272 691 c 0
 1272 684 1272 677 1271 670 c 2
 1263 618 l 2
 1262 612 1262 606 1262 601 c 0
 1262 563 1288 559 1341 559 c 1
 1313 360 l 1
 1177 360 l 2
 1071 360 992 373 992 470 c 0
 992 480 992 491 994 502 c 2
 1009 611 l 2
 1012 631 1013 648 1013 664 c 0
 1013 718 994 747 931 747 c 2
 881 747 l 1
 855 566 l 1
 918 566 l 1
 889 361 l 1
 890 360 l 1
 799 360 659 360 471 359 c 1
 499 562 l 1
 578 562 l 1
 648 1058 l 1
 568 1058 l 1
 597 1262 l 1
 1121 1262 l 2
 1273 1262 1365 1207 1365 1067 c 0
1550 788 m 0
 1555 824 1558 859 1558 893 c 0
 1558 1214 1339 1446 1024 1446 c 2
 1023 1446 l 2
 671 1446 364 1165 311 788 c 0
 306 752 304 716 304 682 c 0
 304 360 522 130 839 130 c 0
 1188 130 1497 414 1550 788 c 0
819 -18 m 0
 421 -18 142 261 142 663 c 0
 142 705 145 748 151 792 c 0
 217 1262 608 1600 1046 1600 c 0
 1444 1600 1724 1322 1724 920 c 0
 1724 878 1720 835 1714 791 c 0
 1648 320 1258 -18 819 -18 c 0
EndSplineSet
EndChar

StartChar: eth
Encoding: 174 240 158
Width: 1172
Flags: HW
HStem: -19 355<440.017 702.76> 775 254<628.014 736.131> 1321 333<420.775 771>
VStem: 101 465<342.757 679.676> 762 490<553.592 1052.55>
DStem2: 444 1225 478 1068 0.921102 0.389321<0 185.54 728.894 889.745>
LayerCount: 2
Fore
SplineSet
574 566 m 0
 568 528 566 494 566 465 c 0
 566 379 590 336 639 336 c 0
 719 336 742 489 754 558 c 1
 759 596 762 629 762 657 c 0
 762 736 741 775 699 775 c 0
 635 775 594 705 574 566 c 0
1290 1585 m 1
 1325 1426 l 1
 1177 1363 l 1
 1227 1254 1252 1115 1252 947 c 0
 1252 583 1159 289 962 120 c 0
 869 40 737 -19 569 -19 c 0
 311 -19 162 126 114 336 c 0
 105 375 101 415 101 455 c 0
 101 613 155 728 230 820 c 0
 330 943 487 1029 708 1029 c 2
 737 1029 l 1
 732 1090 724 1137 715 1169 c 1
 478 1068 l 1
 444 1225 l 1
 615 1297 l 1
 581 1313 538 1321 488 1321 c 0
 442 1321 404 1317 375 1310 c 1
 419 1621 l 1
 513 1643 602 1654 684 1654 c 0
 858 1654 993 1602 1087 1499 c 1
 1290 1585 l 1
EndSplineSet
EndChar

StartChar: multiply
Encoding: 149 215 159
Width: 752
Flags: HW
DStem2: 99 447 236 274 0.723084 0.69076<0 261.833 541.102 813.652> 337 1024 144 844 0.607246 -0.794514<25.8141 255.597 506.305 726.23>
LayerCount: 2
Fore
SplineSet
442 467 m 1
 236 274 l 1
 99 447 l 1
 305 640 l 1
 144 844 l 1
 337 1024 l 1
 491 820 l 1
 703 1024 l 1
 845 844 l 1
 627 640 l 1
 778 447 l 1
 593 274 l 1
 442 467 l 1
EndSplineSet
EndChar

StartChar: threesuperior
Encoding: 113 179 160
Width: 713
Flags: HW
HStem: 270 171<183.281 437.569> 888 183<289.663 476>
VStem: 166 105<806 872.19> 457 295<464.058 608.521>
LayerCount: 2
Fore
SplineSet
322 441 m 0
 385 441 457 468 457 542 c 0
 457 603 397 626 334 626 c 0
 316 626 276 614 263 614 c 0
 259 614 252 619 252 619 c 1
 265 712 l 1
 475 882 l 1
 476 888 l 1
 357 888 l 2
 299 888 271 806 271 806 c 1
 166 806 l 1
 203 1071 l 1
 785 1071 l 1
 764 917 l 2
 764 916 705 870 589 779 c 1
 679 771 752 689 752 588 c 0
 752 578 751 568 750 558 c 0
 722 357 552 270 356 270 c 0
 243 270 105 326 105 326 c 1
 133 526 l 1
 191 470 253 441 322 441 c 0
EndSplineSet
EndChar

StartChar: copyright
Encoding: 103 169 161
Width: 1644
Flags: HW
HStem: -18 148<623.362 1066.99> 245 240<698.285 1024.7> 1085 230<899.548 1085.58> 1446 154<787.241 1239.77>
VStem: 142 162<450.882 940.837> 439 362<511.357 932.99> 1558 166<641.495 1115.85>
LayerCount: 2
Fore
SplineSet
921 485 m 0
 1015 485 1063 552 1080 656 c 1
 1258 656 l 1
 1221 396 l 1
 1201 374 l 1
 1112 303 971 245 827 245 c 0
 570 245 439 403 439 655 c 0
 439 693 442 732 448 774 c 0
 489 1069 652 1315 927 1315 c 0
 1027 1315 1095 1294 1130 1251 c 1
 1157 1296 l 1
 1340 1296 l 1
 1284 895 l 1
 1108 895 l 1
 1111 912 1112 928 1112 944 c 0
 1112 1023 1076 1085 998 1085 c 0
 872 1085 838 944 819 808 c 2
 808 731 l 2
 804 700 801 670 801 642 c 0
 801 553 829 485 921 485 c 0
1550 788 m 0
 1555 824 1558 859 1558 893 c 0
 1558 1214 1339 1446 1024 1446 c 2
 1023 1446 l 2
 671 1446 364 1165 311 788 c 0
 306 752 304 716 304 682 c 0
 304 360 522 130 839 130 c 0
 1188 130 1497 414 1550 788 c 0
819 -18 m 0
 421 -18 142 261 142 663 c 0
 142 705 145 748 151 792 c 0
 217 1262 608 1600 1046 1600 c 0
 1444 1600 1724 1322 1724 920 c 0
 1724 878 1720 835 1714 791 c 0
 1648 320 1258 -18 819 -18 c 0
EndSplineSet
EndChar

StartChar: foursuperior
Encoding: 359 -1 215
Width: 760
Flags: HW
HStem: 286 169<335 404 653 697> 532 151<333 415 686 789>
LayerCount: 2
Fore
SplineSet
436 683 m 1
 456 821 l 1
 333 684 l 1
 436 683 l 1
653 455 m 1
 720 455 l 1
 697 286 l 1
 312 286 l 1
 335 455 l 1
 404 455 l 1
 415 532 l 1
 124 532 l 1
 146 690 l 1
 501 1074 l 1
 741 1073 l 1
 686 682 l 1
 810 683 l 1
 789 532 l 1
 664 532 l 1
 653 455 l 1
EndSplineSet
EndChar

StartChar: uni00AD
Encoding: 107 173 216
Width: 720
Flags: HW
HStem: 537 299<178 737>
VStem: 136 643
LayerCount: 2
Fore
SplineSet
779 836 m 1
 737 537 l 1
 136 537 l 1
 178 836 l 1
 779 836 l 1
EndSplineSet
EndChar

StartChar: hbar
Encoding: 221 295 219
Width: 1265
Flags: HW
HStem: -13 267<1007.22 1290> 712 345<721.5 1082.01> 1104 129<223 279 733 867>
VStem: 811 453<411.823 862.173>
DStem2: 122.73 -13 560.73 -13 0.139173 0.990268<379.054 789.479 966.384 1127.88 1318.81 1334.92>
LayerCount: 2
Fore
SplineSet
992 1057 m 0
 1172 1057 1264 952 1264 772 c 0
 1264 744 1261 714 1257 683 c 2
 1210 350 l 1
 1210 350 1218 284 1225 287 c 1
 1229 265 1246 254 1267 254 c 0
 1317 254 1364 316 1432 437 c 1
 1520 397 l 1
 1338 64 1253 -13 1045 -13 c 0
 796 -13 759 146 759 235 c 0
 759 270 764 293 765 293 c 2
 808 595 l 2
 810 608 811 621 811 632 c 0
 811 685 791 712 751 712 c 0
 692 712 657 676 647 602 c 2
 605 302 l 1
 675 302 l 1
 633 0 l 1
 53 0 l 1
 96 302 l 1
 167 302 l 1
 279 1104 l 1
 205 1104 l 1
 223 1233 l 1
 298 1233 l 1
 308 1309 l 1
 233 1309 l 1
 280 1640 l 1
 790 1640 l 1
 733 1233 l 1
 885 1233 l 1
 867 1104 l 1
 715 1104 l 1
 684 884 l 1
 767 973 843 1057 992 1057 c 0
1432 437 m 1
 1446 462 1461 490 1478 521 c 1
 1425 440 l 1
 1432 437 l 1
EndSplineSet
EndChar

StartChar: ij
Encoding: 233 307 224
Width: 1323
Flags: HW
HStem: -395 325<710.191 808.313> 1137 496<380.95 466 468 622.25 1079.61 1165 1167 1324.58>
VStem: 252 510<1270.72 1502.63> 950 510<1269.54 1501.63>
DStem2: 761.33 -395 1204.36 -395 0.139173 0.990268<334.083 1169.37>
LayerCount: 2
Fore
SplineSet
1460 1431 m 0
 1460 1260 1333 1137 1167 1137 c 1
 1165 1136 l 1
 1042 1136 950 1214 950 1340 c 0
 950 1510 1069 1632 1235 1632 c 0
 1364 1632 1460 1560 1460 1431 c 0
762 1432 m 0
 762 1260 635 1138 468 1138 c 1
 466 1137 l 1
 344 1137 252 1215 252 1341 c 0
 252 1511 371 1633 537 1633 c 0
 666 1633 762 1561 762 1432 c 0
1410 1072 m 1
 202 1075 l 1
 159 764 l 1
 238 764 l 1
 174 308 l 1
 101 308 l 1
 58 3 l 1
 632 3 l 1
 675 308 l 1
 602 308 l 1
 666 763 l 1
 924 763 l 1
 816 -6 l 2
 810 -46 771 -70 726 -70 c 0
 721 -70 717 -70 712 -69 c 1
 668 -395 l 1
 960 -395 1135 -306 1219 -102 c 0
 1245 -39 1265 38 1278 129 c 2
 1410 1072 l 1
EndSplineSet
EndChar

StartChar: Euro
Encoding: 352 8364 240
Width: 1392
Flags: HW
HStem: -21 362<535.5 965.383> 0 21G<1067.68 1364.84> 514 224<123 207.525 779 940> 864 224<172 223 851 990> 1287 362<942.343 1169.27> 1603 20G<1289.65 1590>
LayerCount: 2
Fore
SplineSet
205 741 m 1
 207 766 218 845 223 867 c 1
 141 867 l 1
 172 1091 l 1
 283 1091 l 1
 392 1389 597 1649 939 1649 c 0
 1082 1649 1195 1627 1259 1549 c 1
 1301 1623 l 1
 1590 1623 l 1
 1502 988 l 1
 1225 988 l 1
 1230 1016 1232 1043 1232 1069 c 0
 1232 1194 1175 1287 1049 1287 c 0
 964 1287 899 1221 851 1088 c 1
 1021 1088 l 1
 990 864 l 1
 797 864 l 1
 791 822 785 780 779 738 c 1
 972 738 l 1
 940 514 l 1
 773 514 l 1
 786 399 833 341 916 341 c 0
 1068 341 1158 477 1176 640 c 1
 1453 640 l 1
 1362 0 l 1
 1073 0 l 1
 1052 79 l 1
 966 1 848 -21 705 -21 c 0
 366 -21 230 223 203 517 c 1
 92 517 l 1
 123 741 l 1
 205 741 l 1
EndSplineSet
EndChar

StartChar: uniFB00
Encoding: 360 64256 241
Width: 1628
Flags: HW
HStem: -398 21G<114 549.804 856 1292.8> 736 304<171 273 742 1016 1485 1629> 1212 311<845.41 954.028 1588.41 1697.03> 1225 345<629 954.612 1371 1697.51>
VStem: 114 433<-398 35> 856 434<-398 36>
DStem2: 114 -398 547 -398 0.139173 0.990268<60.262 1145.09 1511.41 1691.66> 856 -398 1290 -398 0.139173 0.990268<60.4011 1145.23>
LayerCount: 2
Back
SplineSet
516 1608 m 4
 617 1608 826 1562 826 1562 c 5
 826 1251 l 5
 787 1260 755 1264 730 1264 c 4
 628 1264 612 1191 619 1072 c 5
 1014 1072 l 5
 1014 1074 1013 1119 1012 1207 c 5
 1010 1203 l 5
 1010 1472 1137 1606 1390 1606 c 4
 1491 1606 1700 1560 1700 1560 c 5
 1700 1249 l 5
 1661 1258 1629 1262 1604 1262 c 4
 1502 1262 1486 1189 1493 1070 c 5
 1672 1070 l 5
 1672 759 l 5
 1500 759 l 5
 1500 305 l 5
 1610 305 l 5
 1610 0 l 5
 930 0 l 5
 930 305 l 5
 1014 305 l 5
 1014 759 l 5
 625 759 l 5
 625 305 l 5
 735 305 l 5
 735 0 l 5
 55 0 l 5
 55 305 l 5
 139 305 l 5
 139 759 l 5
 55 759 l 5
 55 1070 l 5
 138 1070 l 5
 138 1072 136 1117 136 1205 c 4
 136 1474 263 1608 516 1608 c 4
EndSplineSet
Fore
Refer: 71 102 N 1 0 0 1 814 0 2
Refer: 71 102 N 1 0 0 1 0 0 2
LCarets2: 1 0 
Ligature2: "'liga' Standard Ligatures in Latin lookup 0-1" f f
EndChar

StartChar: fi
Encoding: 355 64257 242
Width: 1472
Flags: HW
HStem: -398 21G<66 501.822> 0 21G<789 1408.82> 736 304<123 225 694 986> 1135 495<1133.96 1378.56> 1225 345<729.892 907.369>
VStem: 66 433<-398 35> 1006 507<1271.99 1501.33>
DStem2: 66 -398 499 -398 0.139173 0.990268<60.262 1145.09 1511.41 1691.83>
LayerCount: 2
Back
SplineSet
832 1523 m 5
 832 1212 l 5
 781 1221 740 1225 706 1225 c 4
 636 1225 618 1180 618 1107 c 4
 618 1096 618 1084 619 1072 c 5
 833 1072 l 5
 833 779 l 5
 627 779 l 5
 627 305 l 5
 803 305 l 5
 803 0 l 5
 -8 0 l 5
 -8 305 l 5
 140 305 l 5
 140 779 l 5
 -26 779 l 5
 -26 1072 l 5
 140 1072 l 5
 140 1167 l 6
 140 1436 257 1570 495 1570 c 4
 606 1570 832 1523 832 1523 c 5
EndSplineSet
Fore
Refer: 74 105 N 1 0 0 1 814 0 2
Refer: 71 102 S 1 0 0 1 -3 0 2
LCarets2: 1 0 
Ligature2: "'liga' Standard Ligatures in Latin lookup 0-1" f i
EndChar

StartChar: invertedbreve
Encoding: 365 -1 248
Width: 857
Flags: HW
HStem: 1312 184<505.801 706.881>
VStem: 734 236<1151 1283.36>
LayerCount: 2
Fore
SplineSet
613 1312 m 0
 530 1312 462 1246 449 1152 c 1
 215 1152 l 1
 213 1151 l 1
 244 1374 432 1496 638 1496 c 0
 827 1496 970 1394 970 1207 c 0
 970 1189 969 1170 966 1151 c 1
 732 1151 l 1
 733 1161 734 1171 734 1181 c 0
 734 1259 688 1312 613 1312 c 0
EndSplineSet
EndChar

StartChar: Delta
Encoding: 366 -1 249
Width: 1077
Flags: HW
HStem: 0 205<436 790>
DStem2: 44 55 436 205 0.365141 0.930952<282.778 1213.48>
LayerCount: 2
Fore
SplineSet
436 205 m 1
 790 205 l 1
 754 1080 l 1
 436 205 l 1
44 55 m 1
 508 1238 l 1
 948 1238 l 1
 1051 55 l 1
 1044 0 l 1
 36 0 l 1
 44 55 l 1
EndSplineSet
EndChar

StartChar: IJ
Encoding: 232 306 252
Width: 2076
Flags: HW
HStem: -30 395<1275.09 1591.5> 0 359<83 220 754 834> 1240 353<260 344 878 1014>
DStem2: 165.33 -30 699.33 -30 0.139173 0.990268<467.141 1282.51> 1394.39 -30 1909.03 -30 0.139173 0.990268<416.544 1282.5>
LayerCount: 2
Fore
SplineSet
1347 365 m 0
 1277 365 1258 426 1258 501 c 0
 1258 543 1264 590 1270 633 c 1
 988 633 l 1
 897 -13 l 1
 1148 -13 l 1
 1195 79 l 1
 1240 6 1324 -30 1448 -30 c 0
 1735 -30 1937 167 1980 475 c 2
 2087 1240 l 1
 2224 1240 l 1
 2274 1593 l 1
 1480 1593 l 1
 1430 1240 l 1
 1573 1240 l 1
 1479 572 l 2
 1463 458 1435 365 1347 365 c 0
1014 1240 m 1
 878 1240 l 1
 754 359 l 1
 885 359 l 1
 834 0 l 1
 33 0 l 1
 83 359 l 1
 220 359 l 1
 344 1240 l 1
 211 1240 l 1
 260 1593 l 1
 1064 1593 l 1
 1014 1240 l 1
EndSplineSet
EndChar

StartChar: kgreenlandic
Encoding: 238 312 254
Width: 1238
Flags: HW
HStem: 0 21G<122 1219.81> 729 311<794 833 1154 1304> 1540 20G<619.217 771.194>
DStem2: 122 0 555.016 0 0.139173 0.990268<627.787 1211.7>
LayerCount: 2
Fore
SplineSet
1217 0 m 1
 122 0 l 1
 290 1200 l 1
 200 1200 l 1
 240 1491 l 1
 774 1560 l 1
 634 562 l 1
 833 729 l 1
 750 729 l 1
 794 1040 l 1
 1347 1040 l 1
 1304 729 l 1
 1154 729 l 1
 1154 730 985 592 984 592 c 2
 1123 292 l 1
 1258 292 l 1
 1217 0 l 1
EndSplineSet
EndChar

StartChar: uni0311
Encoding: 340 785 255
Width: 858
Flags: HW
HStem: 1404 217<522.433 656 658 713.992>
VStem: 229 234<1244 1340.91> 747 238<1243 1375.79>
LayerCount: 2
Fore
SplineSet
627 1404 m 0
 544 1404 476 1338 463 1244 c 1
 229 1244 l 1
 264 1490 420 1621 656 1621 c 1
 658 1619 l 1
 865 1619 985 1514 985 1319 c 0
 985 1295 984 1270 980 1243 c 1
 745 1243 l 1
 746 1253 747 1263 747 1273 c 0
 747 1351 702 1404 627 1404 c 0
EndSplineSet
EndChar

StartChar: uni0326
Encoding: 341 806 256
Width: 550
Flags: HW
HStem: -960 224<-72 72.4209>
VStem: -103 589
LayerCount: 2
Fore
SplineSet
-72 -736 m 1
 75 -736 114 -673 136 -513 c 1
 -39 -513 l 1
 12 -147 l 1
 486 -147 l 1
 486 -250 482 -342 470 -424 c 0
 418 -793 239 -960 -103 -960 c 1
 -72 -736 l 1
EndSplineSet
EndChar

StartChar: uni030F
Encoding: 339 783 257
Width: 938
Flags: HW
LayerCount: 2
Fore
SplineSet
898 1128 m 1
 710 1695 l 1
 1005 1814 l 1
 1060 1188 l 1
 898 1128 l 1
601 1129 m 1
 275 1604 l 1
 543 1795 l 1
 749 1228 l 1
 601 1129 l 1
EndSplineSet
EndChar

StartChar: uni00B5
Encoding: 115 181 366
Width: 1286
Flags: HW
HStem: 0 21G<481.5 539 727 1266.82> 788 265<137 508.795>
LayerCount: 2
Fore
SplineSet
375 -278 m 1
 87 -278 l 1
 223 690 l 1
 223 690 215 757 208 754 c 1
 205 776 188 788 167 788 c 0
 117 788 70 725 2 604 c 1
 -85 644 l 1
 96 976 180 1053 386 1053 c 0
 632 1053 669 896 669 807 c 0
 669 771 663 746 662 746 c 2
 618 430 l 2
 617 422 616 415 616 407 c 0
 616 360 638 318 680 318 c 0
 735 318 778 368 786 428 c 2
 829 733 l 1
 742 733 l 1
 780 1000 l 1
 1312 1092 l 1
 1202 305 l 1
 1307 305 l 1
 1264 0 l 1
 727 0 l 1
 748 156 l 1
 679 59 582 -28 496 -28 c 0
 467 -28 439 -19 414 4 c 1
 375 -278 l 1
2 604 m 1
 -12 579 -27 552 -43 522 c 1
 9 601 l 1
 2 604 l 1
EndSplineSet
EndChar

StartChar: dcroat
Encoding: 207 273 367
Width: 1239
Flags: HW
HStem: -19 313<314.25 644.5> -13 265<926.5 1253> 727 257<477.364 765.252> 1039 116<673 838> 1269 213<766 870> 1540 20G<1189.85 1333.19>
VStem: 84 423<311.49 634.243>
LayerCount: 2
Fore
SplineSet
514 518 m 0
 510 488 507 459 507 433 c 0
 507 350 534 294 615 294 c 0
 674 294 719 333 743 367 c 1
 785 663 l 1
 756 707 719 727 681 727 c 0
 608 727 532 651 514 518 c 0
1382 1155 m 1
 1366 1039 l 1
 1167 354 l 1
 1167 354 1175 285 1182 288 c 1
 1185 265 1202 252 1223 252 c 0
 1273 252 1320 316 1389 441 c 1
 1476 401 l 1
 1296 65 1211 -13 1007 -13 c 0
 846 -13 740 56 710 128 c 1
 645 47 546 -18 431 -19 c 1
 197 -19 84 150 84 386 c 0
 84 424 87 464 93 505 c 0
 135 800 367 984 588 984 c 0
 670 984 750 959 819 904 c 1
 838 1039 l 1
 657 1039 l 1
 673 1155 l 1
 854 1155 l 1
 870 1269 l 1
 736 1269 l 1
 766 1482 l 1
 1336 1560 l 1
 1279 1155 l 1
 1382 1155 l 1
1389 441 m 1
 1403 467 1418 495 1434 526 c 1
 1381 445 l 1
 1389 441 l 1
EndSplineSet
EndChar

StartChar: No
Encoding: 371 -1 371
Width: 2876
Flags: HW
HStem: 0 359<83 235 529 625> 0 166<1740 2681> 276 252<2188.02 2355.76> 983 262<2235.77 2407.54> 1100 352<243 339 1240 1338 1636 1783>
VStem: 1770 384<559.875 887.429> 2441 384<635.312 954.19>
DStem2: 184.405 0 478.405 0 0.139173 0.990268<404.455 927.573> 1183.07 0 1481.41 0 0.139173 0.990268<653.358 1110.86>
LayerCount: 2
Fore
SplineSet
1783 1100 m 1x8e
 1636 1100 l 1
 1482 0 l 1
 918 0 l 1x4e
 602 878 l 1
 529 360 l 1
 529 360 572 360 676 359 c 1
 625 0 l 1x86
 33 0 l 1x46
 83 359 l 1
 178 359 235 360 235 360 c 1
 339 1102 l 1
 193 1102 l 1
 243 1453 l 1
 926 1453 l 1
 1274 647 l 1
 1338 1100 l 1
 1191 1100 l 1
 1240 1452 l 1
 1833 1452 l 1
 1783 1100 l 1x8e
2329 983 m 0x36
 2222 983 2154 840 2154 704 c 0
 2154 610 2188 528 2265 528 c 0
 2369 528 2441 681 2441 819 c 0
 2441 908 2408 983 2329 983 c 0x36
2365 1245 m 0
 2647 1245 2825 1109 2825 850 c 0
 2825 822 2823 792 2819 761 c 0
 2776 452 2542 276 2229 276 c 0
 1946 276 1770 420 1770 675 c 0
 1770 702 1772 731 1776 761 c 0
 1820 1077 2052 1245 2365 1245 c 0
1740 166 m 1x46
 2705 166 l 1
 2681 0 l 1
 1717 0 l 1
 1740 166 l 1x46
EndSplineSet
LCarets2: 2 0 0 
Ligature2: "'dlig' Discretionary Ligatures in Latin lookup 3-1" N o period
EndChar

StartChar: t.fin
Encoding: 372 -1 372
Width: 914
Flags: HW
HStem: -18 352<370.485 704.5> 736 304<163 225 701 815> 1386 20G<674.739 750.158>
VStem: 165 448<167.81 630.297>
LayerCount: 2
Back
SplineSet
724 334 m 0
 754 334 790 339 832 348 c 1
 832 49 l 1
 738 6 615 -18 525 -18 c 0
 264 -18 139 115 139 382 c 2
 139 768 l 1
 17 768 l 1
 17 1072 l 1
 139 1072 l 1
 139 1301 l 1
 626 1406 l 1
 626 1072 l 1
 799 1072 l 1
 799 768 l 1
 626 768 l 1
 626 438 l 2
 626 377 657 334 724 334 c 0
EndSplineSet
Fore
SplineSet
460 -18 m 0
 281 -18 165 66 165 270 c 0
 165 298 167 329 172 362 c 2
 225 736 l 1
 120 736 l 1
 163 1040 l 1
 268 1040 l 1
 303 1291 l 1
 753 1406 l 1
 701 1040 l 1
 857 1040 l 1
 815 736 l 1
 658 736 l 1
 615 427 l 2
 614 420 613 413 613 407 c 0
 613 359 643 334 692 334 c 0
 717 334 747 339 780 347 c 1
 774 75 l 1
 684 13 552 -18 460 -18 c 0
EndSplineSet
EndChar

StartChar: a.sc
Encoding: 373 -1 373
Width: 1324
VWidth: 0
Flags: HW
HStem: 0 313<69 193 493 562 705 828.173 1251 1303> 425 211<596 791>
LayerCount: 2
Fore
SplineSet
745 992 m 1
 596 636 l 1
 791 636 l 1
 745 992 l 1
814 425 m 1
 569 425 l 1
 493 313 l 1
 606 313 l 1
 562 0 l 1
 25 0 l 1
 69 313 l 1
 193 313 l 1
 479 982 l 1
 311 982 l 1
 354 1290 l 1
 1132 1290 l 1
 1251 314 l 1
 1347 314 l 1
 1303 0 l 1
 661 0 l 1
 705 313 l 1
 827 313 l 2
 828 313 828 317 828 319 c 0
 828 342 814 425 814 425 c 1
EndSplineSet
EndChar

StartChar: b.sc
Encoding: 374 -1 374
Width: 1231
VWidth: 0
Flags: HW
HStem: 0 313<71 203 612 804.396> 549 228<677 821.959> 982 308<214 297 706 877.088>
VStem: 838 421<348.785 531.458> 895 396<837.204 1131.54>
LayerCount: 2
Fore
SplineSet
708 777 m 2
 816 777 895 797 895 898 c 0
 895 949 859 982 803 982 c 2
 706 982 l 1
 677 777 l 1
 708 777 l 2
629 313 m 2
 735 313 838 323 838 455 c 0
 838 522 787 549 702 549 c 0
 697 549 677 549 645 548 c 1
 612 313 l 1
 629 313 l 2
1291 1017 m 0
 1291 838 1186 726 1058 680 c 1
 1181 641 1259 553 1259 406 c 0
 1259 99 1020 0 755 0 c 2
 27 0 l 1
 71 313 l 1
 203 313 l 1
 297 982 l 1
 171 982 l 1
 214 1290 l 1
 842 1290 l 2
 1094 1290 1291 1246 1291 1017 c 0
EndSplineSet
EndChar

StartChar: c.sc
Encoding: 375 -1 375
Width: 1120
VWidth: 0
Flags: HW
HStem: -22 366<483.333 883.514> 999 316<716.907 934.84>
VStem: 105 476<435.405 807.917>
LayerCount: 2
Fore
SplineSet
824 999 m 0
 685 999 581 797 581 609 c 0
 581 467 641 344 792 344 c 0
 934 344 1073 417 1137 473 c 1
 1087 117 l 1
 932 24 773 -22 631 -22 c 0
 336 -22 105 161 105 519 c 0
 105 561 108 605 115 652 c 0
 166 1016 374 1315 734 1315 c 0
 858 1315 956 1291 1010 1201 c 1
 1048 1291 l 1
 1275 1291 l 1
 1202 774 l 1
 971 774 l 1
 974 792 976 812 976 829 c 0
 976 926 928 999 824 999 c 0
EndSplineSet
EndChar

StartChar: d.sc
Encoding: 376 -1 376
Width: 1324
VWidth: 0
Flags: HW
HStem: 0 313<77 200 624 780.736> 983 307<209 294 718 882.513>
VStem: 940 463<509.795 924.274>
DStem2: 156.011 0 580.011 0 0.139173 0.990268<375.085 992.638>
LayerCount: 2
Fore
SplineSet
931 646 m 0
 936 685 940 723 940 759 c 0
 940 886 897 983 754 983 c 2
 718 983 l 1
 624 313 l 1
 651 313 l 2
 833 313 907 472 931 646 c 0
1392 645 m 0
 1341 284 1061 0 651 0 c 2
 33 0 l 1
 77 313 l 1
 200 313 l 1
 294 983 l 1
 165 983 l 1
 209 1290 l 1
 849 1290 l 2
 1216 1290 1403 1123 1403 793 c 0
 1403 747 1399 698 1392 645 c 0
EndSplineSet
EndChar

StartChar: e.sc
Encoding: 377 -1 377
Width: 1047
VWidth: 0
Flags: HW
HStem: 0 313<71 191 620 786> 567 229<688 812> 982 308<209 285 714 876>
VStem: 905 209<779 879.352>
LayerCount: 2
Fore
SplineSet
905 779 m 1
 876 982 l 1
 714 982 l 1
 688 796 l 1
 844 796 l 1
 812 567 l 1
 656 567 l 1
 620 313 l 1
 786 313 l 1
 877 536 l 1
 1087 536 l 1
 1012 0 l 1
 27 0 l 1
 71 313 l 1
 191 313 l 1
 285 982 l 1
 165 982 l 1
 209 1290 l 1
 1186 1290 l 1
 1114 779 l 1
 905 779 l 1
EndSplineSet
EndChar

StartChar: f.sc
Encoding: 378 -1 378
Width: 1025
VWidth: 0
Flags: HW
HStem: 0 313<71 191 629 702> 543 224<693 815> 982 308<209 285 723 878>
VStem: 897 216<775 877.542>
LayerCount: 2
Fore
SplineSet
815 543 m 1
 661 543 l 1
 629 313 l 1
 746 313 l 1
 702 0 l 1
 27 0 l 1
 71 313 l 1
 191 313 l 1
 285 982 l 1
 165 982 l 1
 209 1290 l 1
 1185 1290 l 1
 1113 775 l 1
 897 775 l 1
 878 982 l 1
 723 982 l 1
 693 767 l 1
 846 767 l 1
 815 543 l 1
EndSplineSet
EndChar

StartChar: g.sc
Encoding: 379 -1 379
Width: 1256
VWidth: 0
Flags: HW
HStem: -24 355<657.86 924.948> 999 315<741.03 981.755>
VStem: 104 471<424.185 793.3> 1047 239<800 901.806>
LayerCount: 2
Fore
SplineSet
579 652 m 0
 576 631 575 610 575 589 c 0
 575 453 638 331 779 331 c 0
 854 331 925 349 925 349 c 1
 939 449 l 1
 812 449 l 1
 849 715 l 1
 1331 715 l 1
 1248 123 l 1
 1077 27 882 -24 703 -24 c 0
 380 -24 104 135 104 515 c 0
 104 554 107 597 113 641 c 0
 163 998 409 1314 823 1314 c 0
 922 1314 999 1279 1048 1198 c 1
 1087 1290 l 1
 1355 1290 l 1
 1286 800 l 1
 1047 800 l 1
 1034 937 960 999 875 999 c 0
 725 999 610 870 579 652 c 0
EndSplineSet
EndChar

StartChar: h.sc
Encoding: 380 -1 380
Width: 1371
VWidth: 0
Flags: HW
HStem: 0 313<71 185 625 656 767 832 1273 1343> 503 298<693 859> 982 308<209 279 719 793 902 926 1367 1477>
LayerCount: 2
Fore
SplineSet
71 313 m 1
 185 313 l 1
 279 982 l 1
 165 982 l 1
 209 1290 l 1
 836 1290 l 1
 793 982 l 1
 719 982 l 1
 693 801 l 1
 900 801 l 1
 926 982 l 1
 858 982 l 1
 902 1290 l 1
 1520 1290 l 1
 1477 982 l 1
 1367 982 l 1
 1273 313 l 1
 1387 313 l 1
 1343 0 l 1
 723 0 l 1
 767 313 l 1
 832 313 l 1
 859 503 l 1
 652 503 l 1
 625 313 l 1
 700 313 l 1
 656 0 l 1
 27 0 l 1
 71 313 l 1
EndSplineSet
EndChar

StartChar: i.sc
Encoding: 381 -1 381
Width: 728
VWidth: 0
Flags: HW
HStem: 0 313<71 185 630 696> 982 308<212 279 724 839>
DStem2: 141.011 0 586.011 0 0.139173 0.990268<378.008 991.648>
LayerCount: 2
Fore
SplineSet
839 982 m 1
 724 982 l 1
 630 313 l 1
 740 313 l 1
 696 0 l 1
 27 0 l 1
 71 313 l 1
 185 313 l 1
 279 982 l 1
 169 982 l 1
 212 1290 l 1
 882 1290 l 1
 839 982 l 1
EndSplineSet
EndChar

StartChar: j.sc
Encoding: 382 -1 382
Width: 998
VWidth: 0
Flags: HW
HStem: -25 344<330.999 591.989> 982 308<499 572 1001 1113>
DStem2: 430.73 -25 859.784 -25 0.139173 0.990268<353.481 1016.86>
LayerCount: 2
Fore
SplineSet
395 319 m 0
 467 319 489 388 501 475 c 2
 572 982 l 1
 455 982 l 1
 499 1290 l 1
 1156 1290 l 1
 1113 982 l 1
 1001 982 l 1
 916 375 l 2
 882 131 715 -25 477 -25 c 0
 374 -25 305 6 269 71 c 1
 229 -11 l 1
 19 -11 l 1
 94 522 l 1
 330 522 l 1
 325 490 321 456 321 425 c 0
 321 367 336 319 395 319 c 0
EndSplineSet
EndChar

StartChar: k.sc
Encoding: 383 -1 383
Width: 1335
VWidth: 0
Flags: HW
HStem: 0 313<71 184 609 669 1237.3 1308> 982 307<209 278 703 802 1300 1406>
VStem: 837 399<313.797 504.627>
LayerCount: 2
Fore
SplineSet
816 249 m 2
 836 392 l 2
 837 397 837 402 837 408 c 0
 837 456 811 512 768 512 c 2
 637 512 l 1
 609 313 l 1
 708 313 l 1
 669 0 l 1
 27 0 l 1
 71 313 l 1
 184 313 l 1
 278 982 l 1
 165 982 l 1
 209 1289 l 1
 845 1289 l 1
 802 982 l 1
 703 982 l 1
 662 694 l 1
 923 983 l 1
 966 1289 l 1
 1449 1289 l 1
 1406 982 l 1
 1300 982 l 1
 1011 677 l 1
 1010 667 l 1
 1149 667 1253 635 1253 517 c 0
 1253 507 1253 496 1251 485 c 2
 1237 381 l 2
 1237 378 1236 375 1236 371 c 0
 1236 344 1250 313 1279 313 c 2
 1348 313 l 1
 1308 0 l 1
 1040 0 l 2
 887 0 812 63 812 193 c 0
 812 210 813 229 816 249 c 2
EndSplineSet
EndChar

StartChar: l.sc
Encoding: 384 -1 384
Width: 1028
VWidth: 0
Flags: HW
HStem: 0 313<76 183 623 769> 982 307<208 277 717 834>
DStem2: 139.011 0 579.011 0 0.139173 0.990268<377.312 991.648>
LayerCount: 2
Fore
SplineSet
623 313 m 1
 769 313 l 1
 871 578 l 1
 1089 578 l 1
 1007 0 l 1
 32 0 l 1
 76 313 l 1
 183 313 l 1
 277 982 l 1
 165 982 l 1
 208 1289 l 1
 877 1289 l 1
 834 982 l 1
 717 982 l 1
 623 313 l 1
EndSplineSet
EndChar

StartChar: m.sc
Encoding: 385 -1 385
Width: 1753
VWidth: 0
Flags: HW
HStem: 0 313<75 201 453 535 1151 1245 1652 1725> 982 308<209 295 1746 1858>
DStem2: 156.87 0 408.87 0 0.139173 0.990268<352.158 803.575>
LayerCount: 2
Fore
SplineSet
579 313 m 1
 535 0 l 1
 31 0 l 1
 75 313 l 1
 162 313 201 314 201 314 c 1
 295 982 l 1
 165 982 l 1
 209 1290 l 1
 853 1290 l 1
 1000 656 l 1
 1298 1290 l 1
 1901 1290 l 1
 1858 982 l 1
 1746 982 l 1
 1652 313 l 1
 1769 313 l 1
 1725 0 l 1
 1107 0 l 1
 1151 313 l 1
 1245 313 l 1
 1306 745 l 1
 941 0 l 1
 728 0 l 1
 516 761 l 1
 453 314 l 1
 453 314 504 313 579 313 c 1
EndSplineSet
EndChar

StartChar: n.sc
Encoding: 386 -1 386
Width: 1376
VWidth: 0
Flags: HW
HStem: 0 313<71 198 443 521> 982 307<1037 1117 1366 1488>
DStem2: 153.87 0 398.87 0 0.139173 0.990268<351.183 735.852> 978.216 0 1227.99 0 0.139173 0.990268<530.159 991.758>
LayerCount: 2
Fore
SplineSet
1488 982 m 1
 1366 982 l 1
 1228 0 l 1
 760 0 l 1
 496 695 l 1
 443 314 l 1
 443 314 479 314 565 313 c 1
 521 0 l 1
 27 0 l 1
 71 313 l 1
 150 313 198 314 198 314 c 1
 292 984 l 1
 171 984 l 1
 219 1322 l 1
 786 1322 l 1
 1052 525 l 1
 1117 982 l 1
 994 982 l 1
 1037 1289 l 1
 1531 1289 l 1
 1488 982 l 1
EndSplineSet
EndChar

StartChar: o.sc
Encoding: 387 -1 387
Width: 1311
VWidth: 0
Flags: HW
HStem: -24 302<619.569 777.582> 999 316<699.753 875.959>
VStem: 106 465<329.143 806.592> 923 465<503.424 951.805>
LayerCount: 2
Fore
SplineSet
653 -24 m 0
 319 -24 106 207 106 534 c 0
 106 570 109 607 114 646 c 0
 171 1048 451 1315 841 1315 c 0
 1188 1315 1388 1104 1388 774 c 0
 1388 733 1385 690 1379 646 c 0
 1325 261 1024 -24 653 -24 c 0
796 999 m 0
 650 999 571 737 571 526 c 0
 571 390 607 278 695 278 c 0
 832 278 923 555 923 770 c 0
 923 897 888 999 796 999 c 0
EndSplineSet
EndChar

StartChar: p.sc
Encoding: 388 -1 388
Width: 1225
VWidth: 0
Flags: HW
HStem: 0 313<71 190 624 690> 448 285<683 860.329> 982 308<213 284 718 890.521>
VStem: 908 430<783.022 1109.78>
LayerCount: 2
Fore
SplineSet
715 733 m 2
 830.042 733 908 784.109 908 891 c 0
 908 950 859 982 782 982 c 2
 718 982 l 1
 683 733 l 1
 715 733 l 2
758 448 m 0
 722 448 684 451 644 457 c 1
 624 313 l 1
 734 313 l 1
 690 0 l 1
 27 0 l 1
 71 313 l 1
 190 313 l 1
 284 982 l 1
 170 982 l 1
 213 1290 l 1
 869 1290 l 2
 1098 1290 1338 1238 1338 982 c 0
 1338 961 1336 939 1333 915 c 0
 1285 573 1085 448 758 448 c 0
EndSplineSet
EndChar

StartChar: q.sc
Encoding: 389 -1 389
Width: 1352
VWidth: 0
Flags: HW
HStem: -24 302<618.124 784.78> 999 316<699.753 875.995>
VStem: 106 465<328.887 798.065> 923 467<507.851 954.822>
LayerCount: 2
Fore
SplineSet
796 999 m 0
 650 999 571 737 571 526 c 0
 571 390 607 278 695 278 c 0
 832 278 923 555 923 770 c 0
 923 897 888 999 796 999 c 0
650 -24 m 0
 317 -24 106 207 106 533 c 0
 106 570 109 607 114 646 c 0
 171 1048 451 1315 841 1315 c 0
 1189 1315 1390 1108 1390 783 c 0
 1390 587 1335 436 1244 310 c 1
 1246 311 l 1
 1371 311 l 1
 1328 2 l 1
 834 2 l 1
 775 -15 713 -24 650 -24 c 0
EndSplineSet
EndChar

StartChar: r.sc
Encoding: 390 -1 390
Width: 1306
VWidth: 0
Flags: HW
HStem: 0 313<72 189 605 652 1210.5 1281> 561 198<662 817.561> 1013 308<213 288 698 902.581>
VStem: 838 384<315.111 541.177> 919 439<846.823 1140.39>
LayerCount: 2
Fore
SplineSet
709 759 m 2xe8
 814 759 919 793 919 913 c 0
 919 976 869 1013 791 1013 c 2
 698 1013 l 1
 662 759 l 1
 709 759 l 2xe8
1358 1039 m 0
 1358 805 1215 697 1033 661 c 1
 1137 635 1222 597 1222 494 c 0
 1222 484 1222 474 1220 463 c 2
 1210 397 l 2
 1209 389 1208 382 1208 376 c 0
 1208 317 1254 312 1325 312 c 1
 1281 -1 l 1
 1032 -1 l 2
 896 -1 807 34 807 162 c 0
 807 176 808 192 810 209 c 2
 832 361 l 2
 836 388 838 413 838 435 c 0xf0
 838 515 808 561 715 561 c 2
 640 561 l 1
 605 313 l 1
 696 313 l 1
 652 0 l 1
 28 0 l 1
 72 313 l 1
 189 313 l 1
 288 1013 l 1
 170 1013 l 1
 213 1321 l 1
 996 1321 l 2
 1221 1321 1358 1242 1358 1039 c 0
EndSplineSet
EndChar

StartChar: s.sc
Encoding: 391 -1 391
Width: 1009
VWidth: 0
Flags: HW
HStem: -24 316<412.969 644.784> 0 21G<54 314.75> 1012 303<530.113 753.714>
VStem: 150 371<717.295 1000.41> 656 392<309.887 593.271>
LayerCount: 2
Fore
SplineSet
150 841 m 0
 150 1120 349 1315 561 1315 c 0
 683 1315 777 1290 845 1238 c 1
 849 1245 849 1290 877 1290 c 2
 1094 1290 l 1
 1035 875 l 1
 802 875 l 1
 769 980 721 1012 619 1012 c 0
 563 1012 521 984 521 931 c 0
 521 881 596 860 666 843 c 0
 874 792 1048 710 1048 476 c 0
 1048 192 849 -24 596 -24 c 0
 464 -24 412 10 344 80 c 1
 305 0 l 1
 54 0 l 1
 114 425 l 1
 364 425 l 1
 382 321 449 292 539 292 c 0
 597 292 656 316 656 370 c 0
 656 421 595 439 544 454 c 0
 329 517 150 594 150 841 c 0
EndSplineSet
EndChar

StartChar: t.sc
Encoding: 392 -1 392
Width: 1201
VWidth: 0
Flags: HW
HStem: 0 314<300 425 862 943> 743 546<204 345 1067 1282> 982 307<412 519 956 1067>
VStem: 1065 217<743 844.655>
DStem2: 380.87 0 817.87 0 0.139173 0.990268<377.905 991.667>
LayerCount: 2
Fore
SplineSet
1065 743 m 1
 1067 982 l 1
 956 982 l 1
 862 314 l 1
 987 314 l 1
 943 0 l 1
 256 0 l 1
 300 314 l 1
 425 314 l 1
 519 982 l 1
 412 982 l 1
 345 743 l 1
 127 743 l 1
 204 1289 l 1
 1359 1289 l 1
 1282 743 l 1
 1065 743 l 1
EndSplineSet
EndChar

StartChar: u.sc
Encoding: 393 -1 393
Width: 1277
VWidth: 0
Flags: HW
HStem: -24 327<669.924 857.228> 982 307<203 282 717 829 928 1012 1272 1391>
VStem: 210 434<330.097 783.672>
DStem2: 869.805 -24 1130.86 -24 0.139173 0.990268<365.773 1016>
LayerCount: 2
Fore
SplineSet
223 557 m 2
 282 982 l 1
 160 982 l 1
 203 1289 l 1
 872 1289 l 1
 829 982 l 1
 717 982 l 1
 648 496 l 2
 645 478 644 461 644 445 c 0
 644 364 677 303 766 303 c 0
 858 303 923 356 936 447 c 2
 1012 982 l 1
 885 982 l 1
 928 1289 l 1
 1435 1289 l 1
 1391 982 l 1
 1272 982 l 1
 1192 411 l 2
 1154 143 893 -24 628 -24 c 0
 328 -24 210 130 210 394 c 0
 210 445 215 499 223 557 c 2
EndSplineSet
EndChar

StartChar: v.sc
Encoding: 394 -1 394
Width: 1279
VWidth: 0
Flags: HW
HStem: 0 21G<399.189 849.982> 982 307<181 264 710 792 935 990 1282 1419>
LayerCount: 2
Fore
SplineSet
792 982 m 1
 710 982 l 1
 789 412 l 1
 990 981 l 1
 891 981 l 1
 935 1289 l 1
 1462 1289 l 1
 1419 982 l 1
 1282 982 l 1
 841 0 l 1
 402 0 l 1
 264 982 l 1
 138 982 l 1
 181 1289 l 1
 835 1289 l 1
 792 982 l 1
EndSplineSet
EndChar

StartChar: w.sc
Encoding: 395 -1 395
Width: 1903
VWidth: 0
Flags: HW
HStem: 0 21G<385.434 804.307 1093.61 1517.23> 982 308<181 262 700 815 1576 1632 1913 2043>
DStem2: 1459 559 1509 0 0.380466 0.924795<0 457.009>
LayerCount: 2
Fore
SplineSet
138 982 m 1
 181 1290 l 1
 858 1290 l 1
 815 982 l 1
 700 982 l 1
 754 534 l 1
 1059 1290 l 1
 1369 1290 l 1
 1459 559 l 1
 1632 982 l 1
 1533 982 l 1
 1576 1290 l 1
 2086 1290 l 1
 2043 982 l 1
 1913 982 l 1
 1509 0 l 1
 1096 0 l 1
 1029 561 l 1
 796 0 l 1
 388 0 l 1
 262 982 l 1
 138 982 l 1
EndSplineSet
EndChar

StartChar: x.sc
Encoding: 396 -1 396
Width: 1459
VWidth: 0
Flags: HW
HStem: 0 313<70 192 525 651 771 867 1361 1432> 982 308<247 334 838 900 1007 1074 1382 1532>
LayerCount: 2
Fore
SplineSet
695 313 m 1
 651 0 l 1
 26 0 l 1
 70 313 l 1
 192 313 l 1
 572 679 l 1
 334 982 l 1
 204 982 l 1
 247 1290 l 1
 944 1290 l 1
 900 982 l 1
 838 982 l 1
 941 833 l 1
 1074 982 l 1
 964 982 l 1
 1007 1290 l 1
 1575 1290 l 1
 1532 982 l 1
 1382 982 l 1
 1083 655 l 1
 1361 314 l 1
 1476 314 l 1
 1432 0 l 1
 727 0 l 1
 771 313 l 1
 867 313 l 1
 710 507 l 1
 525 313 l 1
 695 313 l 1
EndSplineSet
EndChar

StartChar: y.sc
Encoding: 397 -1 397
Width: 1251
VWidth: 0
Flags: HW
HStem: 0 313<352 470 896 973> 982 307<202 245 737 807 918 988 1230 1367>
LayerCount: 2
Fore
SplineSet
988 982 m 1
 874 982 l 1
 918 1289 l 1
 1410 1289 l 1
 1367 982 l 1
 1230 982 l 1
 933 575 l 1
 896 313 l 1
 1017 313 l 1
 973 0 l 1
 308 0 l 1
 352 313 l 1
 470 313 l 1
 501 535 l 1
 245 982 l 1
 159 982 l 1
 202 1289 l 1
 850 1289 l 1
 807 982 l 1
 737 982 l 1
 849 780 l 1
 988 982 l 1
EndSplineSet
EndChar

StartChar: z.sc
Encoding: 398 -1 398
Width: 1130
VWidth: 0
Flags: HW
HStem: 0 313<616 851> 982 307<445 685>
DStem2: 75 305 616 313 0.663487 0.748188<364.932 911.25>
LayerCount: 2
Fore
SplineSet
1227 1002 m 1
 616 313 l 1
 851 313 l 1
 968 568 l 1
 1182 568 l 1
 1102 0 l 1
 32 0 l 1
 75 305 l 1
 685 982 l 1
 445 982 l 1
 351 745 l 1
 132 745 l 1
 208 1289 l 1
 1267 1289 l 1
 1227 1002 l 1
EndSplineSet
EndChar

StartChar: c_h
Encoding: 400 -1 400
Width: 2143
Flags: HW
HStem: -18 313<377.5 698.355> -13 265<1865.93 2141> 746 314<600.571 759.66 1586.5 1942> 1540 20G<1487.22 1639.19>
VStem: 93 419<318.085 642.756> 740 249<1052.21 1177.19> 776 223<607 732.249> 990 433<0 433> 1675 445<416.016 864>
DStem2: 987.47 -18 1420.47 -18 0.139173 0.990268<78.4389 830.182 971.093 1228.89>
LayerCount: 2
Fore
SplineSet
93 416 m 0
 93 784 324 1060 632 1060 c 0
 697 1060 757 1039 807 996 c 1
 761 1100 740 1182 740 1247 c 0
 740 1418 886 1468 1108 1491 c 1
 1642 1560 l 1
 1547 884 l 1
 1603 972 1705 1058 1852 1058 c 0
 2032 1058 2120 953 2120 775 c 0
 2120 746 2118 715 2113 683 c 2
 2066 350 l 1
 2066 350 2075 283 2082 286 c 1
 2085 264 2102 252 2123 252 c 0
 2173 252 2220 315 2288 436 c 1
 2375 396 l 1
 2194 64 2109 -13 1903 -13 c 0
 1656 -13 1618 145 1618 234 c 0
 1618 269 1624 294 1625 294 c 2
 1672 629 l 2
 1674 643 1675 656 1675 668 c 0
 1675 720 1655 747 1616 747 c 0
 1557 747 1523 710 1512 634 c 2
 1423 0 l 1
 990 0 l 1
 1158 1199 l 1
 1011 1199 989 1162 989 1036 c 0
 989 1002 991 961 992 912 c 2
 999 607 l 1
 774 606 l 1
 775 615 776 623 776 632 c 0
 776 695 744 746 686 746 c 0
 578 746 512 588 512 441 c 0
 512 360 541 295 623 295 c 0
 695 295 751 416 751 416 c 1
 964 416 l 1
 923 124 l 1
 923 124 734 -18 511 -18 c 0
 244 -18 93 147 93 416 c 0
2288 436 m 1
 2302 461 2317 489 2333 519 c 1
 2281 439 l 1
 2288 436 l 1
EndSplineSet
LCarets2: 1 0 
Ligature2: "'liga' Standard Ligatures in Latin lookup 0-1" c h
EndChar

StartChar: c_k
Encoding: 401 -1 401
Width: 2106
Flags: HW
HStem: -18 313<390.375 698.355> 746 314<600.571 759.66>
VStem: 93 419<318.085 642.756> 740 249<1052.21 1178.13> 776 223<607 732.249> 990 444<0 444>
DStem2: 987.47 -18 1431.47 -18 0.139173 0.990268<79.9698 525.184 645.964 1229.88>
LayerCount: 2
Back
SplineSet
92.6724 415.703 m 4xba80
 92.6724 784.163 323.82 1060 632 1060 c 4
 697.116 1060 756.535 1038.89 807 996 c 5
 761.014 1100.41 739.959 1182.43 739.959 1247.13 c 4
 739.959 1417.7 886.307 1467.93 1108 1491 c 5
 1642 1560 l 1
 1547 884 l 1
 1603 972 1705 1058 1852 1058 c 0
 2031.88 1058 2119.91 952.815 2119.91 774.958 c 0
 2119.91 746.164 2117.6 715.466 2113 683 c 2
 2066 350 l 1
 2066 350 2075 283 2082 286 c 1
 2085 264 2102 252 2123 252 c 0
 2172.7 252 2219.66 314.442 2287.74 435.915 c 1
 2375 396 l 1
 2194 64 2109 -13 1903 -13 c 0
 1655.52 -13 1618.36 145.09 1618.36 234.359 c 0
 1618.36 269.479 1624.11 293.947 1625.07 293.947 c 2
 1672 629 l 2
 1674.02 643.344 1675.03 656.403 1675.03 668.164 c 0
 1675.03 720.359 1655.17 747 1616 747 c 0
 1557 747 1523 710 1512 634 c 2
 1423 0 l 1
 990 0 l 1
 1158 1199 l 5
 1011.03 1199 989.252 1161.94 989.252 1035.9 c 4x7d80
 989.252 1001.56 990.868 960.606 992.01 912 c 6
 999 607 l 5
 774 606 l 5
 775.204 614.912 775.799 623.707 775.799 632.286 c 4
 775.799 694.939 744.052 746 686 746 c 4
 577.792 746 511.733 587.724 511.733 440.964 c 4
 511.733 359.595 541.395 295 623 295 c 4
 695 295 751 416 751 416 c 5
 964 416 l 5
 923 124 l 5
 923 124 734 -18 511 -18 c 4
 243.978 -18 92.6724 146.644 92.6724 415.703 c 4xba80
2287.74 435.915 m 1
 2301.85 461.086 2316.87 488.791 2333 519 c 1
 2281 439 l 1
 2287.74 435.915 l 1
EndSplineSet
Fore
SplineSet
1158 1200 m 1
 990 0 l 1
 1434 0 l 1
 1488 442 l 1
 1667 0 l 1
 2085 0 l 1
 2126 292 l 1
 1991 292 l 1
 1852 592 l 2
 1853 592 2023 737 2023 736 c 1
 2173 736 l 1
 2215 1040 l 1
 1662 1040 l 1
 1619 736 l 1
 1702 736 l 1
 1502 562 l 1
 1642 1560 l 1
 1108 1491 l 2
 887 1462 740 1418 740 1247 c 0
 740 1182 761 1100 807 996 c 1
 757 1039 697 1060 632 1060 c 0
 324 1060 93 784 93 416 c 0
 93 147 244 -18 511 -18 c 0
 734 -18 923 124 923 124 c 1
 964 416 l 1
 751 416 l 1
 751 416 695 295 623 295 c 0
 541 295 512 360 512 441 c 0
 512 588 578 746 686 746 c 0
 744 746 776 695 776 632 c 0
 776 623 775 615 774 606 c 1
 999 607 l 1
 992 912 l 2
 991 961 989 1002 989 1036 c 0
 989 1163 1011 1200 1158 1200 c 1
EndSplineSet
Ligature2: "'liga' Standard Ligatures in Latin lookup 0-1" c k
EndChar

StartChar: u.ini
Encoding: 402 -1 402
Width: 1272
Flags: HW
HStem: -18 336<327.856 702.5> -13 265<947.5 1283.52> 788 265<148.118 420.39>
VStem: 170 440<164.749 633.822> 866 434<606 1040>
DStem2: 717.897 -18 1150.72 -18 0.139173 0.990268<347.108 1068.32>
LayerCount: 2
Fore
SplineSet
866 1040 m 1xb8
 1300 1040 l 1
 1203 354 l 1
 1203 354 1211 284 1218 287 c 1
 1221 264 1238 252 1259 252 c 0
 1308 252 1355 316 1424 439 c 1
 1512 399 l 1
 1331 64 1245 -13 1039 -13 c 0x78
 856 -13 766 74 743 156 c 1
 669 51 553 -18 406 -18 c 0
 250 -18 170 73 170 256 c 0
 170 291 173 329 179 371 c 2
 223 690 l 1
 223 690 215 757 208 754 c 1
 205 776 188 788 167 788 c 0
 117 788 70 725 2 604 c 1
 -85 644 l 1
 95 976 179 1053 383 1053 c 0
 627 1053 664 896 664 807 c 0
 664 771 658 746 657 746 c 2
 612 430 l 2
 611 422 610 415 610 408 c 0
 610 360 633 318 675 318 c 0
 730 318 772 370 781 431 c 2
 866 1040 l 1xb8
2 604 m 1
 -12 579 -27 552 -43 522 c 1
 9 601 l 1
 2 604 l 1
1424 439 m 1
 1438 464 1453 491 1469 521 c 1
 1417 442 l 1
 1424 439 l 1
EndSplineSet
EndChar

StartChar: p.ini
Encoding: 403 -1 403
Width: 1300
Flags: W
HStem: -398 21G<77 513.785> -17 311<685.428 980> 747 313<668.976 878.584>
VStem: 77 434<-398 36> 903 424<390.311 723.292>
DStem2: 77 -398 511 -398 0.139173 0.990268<60.4011 582.39 800.142 1105.92>
LayerCount: 2
Back
SplineSet
720 294 m 4
 849.365 294 903.159 445.798 903.159 596.572 c 4
 903.159 697.395 864.26 747 787 747 c 4
 726 747 659 659 659 659 c 5
 620 384 l 5
 620 384 661 294 720 294 c 4
863 1061 m 4
 1175.88 1061 1325.71 878.88 1325.71 644.43 c 4
 1325.71 605.845 1322.79 565.842 1317 525 c 4
 1276 235 1106 -17 840 -17 c 4
 711 -17 646 53 583 119 c 5
 511 -398 l 5
 77 -398 l 5
 237 737 l 5
 134 707 l 5
 101 818 l 5
 422.879 1001.77 548.129 1061 863 1061 c 4
EndSplineSet
Fore
SplineSet
720 294 m 0
 849 294 903 446 903 597 c 0
 903 698 864 747 787 747 c 0
 728 747 664 721 664 721 c 1
 620 384 l 1
 620 384 661 294 720 294 c 0
824 1060 m 0
 1118 1060 1327 923 1327 595 c 0
 1327 239 1120 -17 840 -17 c 0
 711 -17 646 53 583 119 c 1
 511 -398 l 1
 77 -398 l 1
 232 697 l 1
 109 657 l 1
 76 768 l 1
 261 948 563 1060 824 1060 c 0
EndSplineSet
EndChar

StartChar: i.ini
Encoding: 404 -1 404
Width: 658
Flags: HW
HStem: -13 265<318.26 687.855> 788 265<138.157 507.705> 1155 475<372.574 621.477>
VStem: 248 508<1285.28 1508.05>
LayerCount: 2
Fore
SplineSet
756 1434 m 0
 756 1258 612 1155 464 1155 c 0
 339 1155 248 1230 248 1355 c 0
 248 1530 383 1630 531 1630 c 0
 661 1630 756 1560 756 1434 c 0
662 746 m 2
 606 350 l 1
 606 350 614 283 621 286 c 1
 624 264 642 252 663 252 c 0
 713 252 759 315 827 437 c 1
 915 397 l 1
 734 64 648 -13 442 -13 c 0
 195 -13 157 145 157 234 c 0
 157 269 163 294 164 294 c 2
 220 689 l 1
 220 689 212 757 205 754 c 1
 202 776 184 788 163 788 c 0
 113 788 67 725 -2 603 c 1
 -90 643 l 1
 92 976 177 1053 384 1053 c 0
 631 1053 669 895 669 806 c 0
 669 770 663 746 662 746 c 2
-2 603 m 1
 -16 578 -32 550 -48 520 c 1
 5 600 l 1
 -2 603 l 1
827 437 m 1
 841 462 856 490 872 520 c 1
 820 440 l 1
 827 437 l 1
EndSplineSet
EndChar
